<svg width="23" height="18" viewBox="0 0 23 18" fill="none" xmlns="http://www.w3.org/2000/svg">
<path id="Vector" d="M12.0869 0.451716C12.7255 -0.0466987 13.7409 0.347202 13.7409 1.0931V17.1449C13.7409 17.8913 12.7255 18.2852 12.0869 17.7868L7.4371 14.1554C6.94326 13.7695 6.30294 13.556 5.63917 13.5559H2.97484C2.18586 13.5559 1.4292 13.2833 0.871311 12.7979C0.31342 12.3125 0 11.6542 0 10.9677V7.27029C0 5.84061 1.3316 4.68208 2.97484 4.68208H5.63917C6.30294 4.68198 6.94326 4.46848 7.4371 4.0826L12.0869 0.451716ZM12.3243 1.92231L8.38339 5.00055C7.62945 5.58916 6.65214 5.91467 5.63917 5.91456H2.97484C2.56157 5.91456 2.16522 6.0574 1.87299 6.31164C1.58076 6.56589 1.41659 6.91073 1.41659 7.27029V10.9677C1.41659 11.3273 1.58076 11.6721 1.87299 11.9264C2.16522 12.1806 2.56157 12.3235 2.97484 12.3235H5.63917C6.65222 12.3235 7.62954 12.6492 8.38339 13.238L12.3243 16.3167V1.92231ZM18.4656 1.42636C18.5939 1.30719 18.7715 1.23723 18.9591 1.23187C19.1467 1.22651 19.3291 1.28618 19.4662 1.39777L19.4725 1.4027L19.4832 1.41157C19.5343 1.45409 19.5838 1.49799 19.6317 1.5432C19.728 1.63194 19.8606 1.76061 20.0181 1.92921C20.4486 2.39261 20.8309 2.88837 21.1605 3.41065C21.9872 4.71117 22.8071 6.63088 22.8071 9.11901C22.8071 11.6071 21.9872 13.5264 21.1605 14.8279C20.8309 15.35 20.4486 15.8456 20.0181 16.3088C19.8594 16.4782 19.692 16.6414 19.5167 16.7979L19.4827 16.8264L19.4691 16.8383L19.4674 16.8393L19.592 16.7313C19.6527 16.6785 19.6731 16.6603 19.4662 16.8398C19.3282 16.9456 19.1482 17.0005 18.9644 16.9929C18.7807 16.9853 18.6075 16.9158 18.4816 16.7991C18.3557 16.6823 18.2869 16.5276 18.2898 16.3675C18.2928 16.2075 18.3672 16.0547 18.4973 15.9415L18.4995 15.9396C18.5342 15.9102 18.5681 15.8802 18.601 15.8493C18.6752 15.7803 18.7857 15.6743 18.92 15.5304C19.2968 15.1238 19.6317 14.6891 19.9207 14.2313C20.6528 13.0797 21.3905 11.3636 21.3905 9.11901C21.3905 6.87442 20.6528 5.15831 19.9207 4.00668C19.6317 3.54872 19.2969 3.11386 18.92 2.70715C18.7927 2.57089 18.6584 2.43962 18.5177 2.31375L18.4967 2.29551C18.3603 2.18364 18.2804 2.0293 18.2746 1.86629C18.2688 1.70328 18.3374 1.5454 18.4656 1.42636ZM16.1967 4.38629C16.26 4.32697 16.3362 4.27908 16.4208 4.24536C16.5054 4.21165 16.5968 4.19276 16.6897 4.18979C16.7827 4.18681 16.8755 4.1998 16.9627 4.22802C17.0499 4.25624 17.1298 4.29913 17.198 4.35424L17.2025 4.35819L17.2105 4.3641L17.2342 4.38431C17.2535 4.40075 17.2794 4.42359 17.3119 4.45284C17.3759 4.51101 17.4643 4.59433 17.568 4.7018C17.7754 4.91675 18.0479 5.23029 18.3194 5.63504C19.0309 6.69181 19.4064 7.89427 19.4073 9.11901C19.4073 10.6093 18.8616 11.794 18.3194 12.6035C18.0474 13.0077 17.7754 13.3218 17.568 13.5367C17.4619 13.6467 17.3504 13.7527 17.2337 13.8542L17.2229 13.8636L17.2105 13.8739L17.2025 13.8803L17.1997 13.8828L17.1986 13.8843H17.1974C17.0595 13.9929 16.878 14.0499 16.6922 14.0431C16.5063 14.0363 16.331 13.9661 16.2041 13.8477C16.0772 13.7294 16.009 13.5723 16.0141 13.4106C16.0191 13.2488 16.0972 13.0952 16.2313 12.9831L16.2415 12.9742L16.2897 12.9318C16.3339 12.8919 16.4007 12.8288 16.4823 12.744C16.6466 12.5734 16.8705 12.317 17.0949 11.9823C17.6804 11.114 17.9896 10.1257 17.9907 9.11901C17.9907 7.89787 17.5448 6.92569 17.0954 6.25621C16.871 5.92097 16.6478 5.66461 16.4835 5.49453C16.4065 5.41505 16.326 5.33825 16.2421 5.2643L16.2324 5.25592C16.0952 5.14464 16.0148 4.99101 16.008 4.82788C16.0012 4.66474 16.0691 4.50592 16.1967 4.38629ZM19.4725 1.4027L19.4662 1.39777L19.4674 1.39875L19.4691 1.39974L19.4725 1.4027Z" fill="#353535"/>
</svg>
