<svg width="22" height="22" viewBox="0 0 22 22" fill="none" xmlns="http://www.w3.org/2000/svg">
<g id="Property 1=Active">
<path id="Vector" d="M11.1667 19.8208L9.8375 18.6292C8.29445 17.2389 7.01875 16.0396 6.01042 15.0312C5.00208 14.0229 4.2 13.1176 3.60417 12.3152C3.00833 11.5128 2.59217 10.7758 2.35567 10.1042C2.11917 9.43255 2.00061 8.74505 2 8.04167C2 6.60555 2.48125 5.40625 3.44375 4.44375C4.40625 3.48125 5.60556 3 7.04167 3C7.83611 3 8.59236 3.16806 9.31042 3.50417C10.0285 3.84028 10.6472 4.31389 11.1667 4.925C11.6861 4.31389 12.3049 3.84028 13.0229 3.50417C13.741 3.16806 14.4972 3 15.2917 3C16.7278 3 17.9271 3.48125 18.8896 4.44375C19.8521 5.40625 20.3333 6.60555 20.3333 8.04167C20.3333 8.74444 20.2151 9.43194 19.9786 10.1042C19.7421 10.7764 19.3256 11.5134 18.7292 12.3152C18.1327 13.1169 17.3306 14.0223 16.3229 15.0312C15.3152 16.0402 14.0395 17.2395 12.4958 18.6292L11.1667 19.8208Z" fill="#05574A"/>
</g>
</svg>
