<svg width="22" height="22" viewBox="0 0 22 22" fill="none" xmlns="http://www.w3.org/2000/svg">
<g id="save">
<path id="Vector" d="M11.1667 19.8208L9.8375 18.6292C8.29444 17.2389 7.01875 16.0396 6.01042 15.0312C5.00208 14.0229 4.2 13.1176 3.60417 12.3152C3.00833 11.5128 2.59217 10.7758 2.35567 10.1042C2.11917 9.43255 2.00061 8.74505 2 8.04167C2 6.60555 2.48125 5.40625 3.44375 4.44375C4.40625 3.48125 5.60556 3 7.04167 3C7.83611 3 8.59236 3.16806 9.31042 3.50417C10.0285 3.84028 10.6472 4.31389 11.1667 4.925C11.6861 4.31389 12.3049 3.84028 13.0229 3.50417C13.741 3.16806 14.4972 3 15.2917 3C16.7278 3 17.9271 3.48125 18.8896 4.44375C19.8521 5.40625 20.3333 6.60555 20.3333 8.04167C20.3333 8.74444 20.2151 9.43194 19.9786 10.1042C19.7421 10.7764 19.3256 11.5134 18.7292 12.3152C18.1327 13.1169 17.3306 14.0223 16.3229 15.0312C15.3152 16.0402 14.0395 17.2395 12.4958 18.6292L11.1667 19.8208ZM11.1667 17.3458C12.6333 16.0319 13.8403 14.9054 14.7875 13.9661C15.7347 13.0268 16.4833 12.2094 17.0333 11.514C17.5833 10.8186 17.9653 10.1995 18.1792 9.65683C18.3931 9.11417 18.5 8.57578 18.5 8.04167C18.5 7.125 18.1944 6.36111 17.5833 5.75C16.9722 5.13889 16.2083 4.83333 15.2917 4.83333C14.5736 4.83333 13.909 5.03561 13.2979 5.44017C12.6868 5.84472 12.2667 6.3605 12.0375 6.9875H10.2958C10.0667 6.36111 9.64653 5.84564 9.03542 5.44108C8.42431 5.03653 7.75972 4.83394 7.04167 4.83333C6.125 4.83333 5.36111 5.13889 4.75 5.75C4.13889 6.36111 3.83333 7.125 3.83333 8.04167C3.83333 8.57639 3.94028 9.11508 4.15417 9.65775C4.36806 10.2004 4.75 10.8192 5.3 11.514C5.85 12.2088 6.59861 13.0262 7.54583 13.9661C8.49306 14.906 9.7 16.0326 11.1667 17.3458Z" fill="#05574A"/>
</g>
</svg>
