<svg width="67" height="22" viewBox="0 0 67 22" fill="none" xmlns="http://www.w3.org/2000/svg">
<g id="Group 1">
<rect id="Rectangle 32" x="14.5669" y="1.87061" width="3.12145" height="10.8744" rx="1.08744" fill="white"/>
<rect id="Rectangle 33" x="9.36426" y="4.04541" width="3.12145" height="8.69952" rx="1.08744" fill="white"/>
<rect id="Rectangle 34" x="5.20233" y="7.30762" width="3.12145" height="5.4372" rx="1.08744" fill="white"/>
<rect id="Rectangle 35" y="9.48291" width="3.12145" height="3.26232" rx="1.08744" fill="white"/>
<g id="Ellipse 27">
<mask id="path-5-inside-1_2414_8184" fill="white">
<path d="M35.5974 8.02975C35.0953 7.15777 34.3886 6.43412 33.5442 5.92728C32.6998 5.42045 31.7456 5.14719 30.7719 5.13336C29.7983 5.11954 28.8373 5.36562 27.98 5.8483C27.1228 6.33098 26.3975 7.03431 25.8729 7.89171L27.6734 9.09494C28.0021 8.55772 28.4565 8.11704 28.9936 7.81461C29.5308 7.51218 30.1328 7.358 30.7429 7.36666C31.353 7.37532 31.9508 7.54654 32.4799 7.8641C33.009 8.18167 33.4518 8.63508 33.7664 9.18143L35.5974 8.02975Z"/>
</mask>
<path d="M35.5974 8.02975C35.0953 7.15777 34.3886 6.43412 33.5442 5.92728C32.6998 5.42045 31.7456 5.14719 30.7719 5.13336C29.7983 5.11954 28.8373 5.36562 27.98 5.8483C27.1228 6.33098 26.3975 7.03431 25.8729 7.89171L27.6734 9.09494C28.0021 8.55772 28.4565 8.11704 28.9936 7.81461C29.5308 7.51218 30.1328 7.358 30.7429 7.36666C31.353 7.37532 31.9508 7.54654 32.4799 7.8641C33.009 8.18167 33.4518 8.63508 33.7664 9.18143L35.5974 8.02975Z" stroke="white" stroke-width="4.34976" mask="url(#path-5-inside-1_2414_8184)"/>
</g>
<g id="Ellipse 28">
<mask id="path-6-inside-2_2414_8184" fill="white">
<path d="M38.6705 5.0123C37.7718 3.72896 36.6016 2.67981 35.2513 1.9466C33.901 1.2134 32.4069 0.815917 30.8855 0.785138C29.3641 0.754359 27.8564 1.09111 26.48 1.76915C25.1035 2.4472 23.8954 3.44823 22.9498 4.69425L24.6157 6.07513C25.3579 5.09713 26.3061 4.31142 27.3865 3.77922C28.4669 3.24703 29.6502 2.98271 30.8444 3.00687C32.0385 3.03103 33.2112 3.34301 34.2711 3.9185C35.3309 4.494 36.2494 5.31747 36.9548 6.32476L38.6705 5.0123Z"/>
</mask>
<path d="M38.6705 5.0123C37.7718 3.72896 36.6016 2.67981 35.2513 1.9466C33.901 1.2134 32.4069 0.815917 30.8855 0.785138C29.3641 0.754359 27.8564 1.09111 26.48 1.76915C25.1035 2.4472 23.8954 3.44823 22.9498 4.69425L24.6157 6.07513C25.3579 5.09713 26.3061 4.31142 27.3865 3.77922C28.4669 3.24703 29.6502 2.98271 30.8444 3.00687C32.0385 3.03103 33.2112 3.34301 34.2711 3.9185C35.3309 4.494 36.2494 5.31747 36.9548 6.32476L38.6705 5.0123Z" stroke="white" stroke-width="4.34976" mask="url(#path-6-inside-2_2414_8184)"/>
</g>
<path id="Vector 37" d="M33.2955 10.5704L30.6942 13.289L28.6133 10.5704L28.8852 10.4283C30.0313 9.82936 31.3844 9.77143 32.5775 10.2702L33.2955 10.5704Z" fill="white"/>
<rect id="Rectangle 42" x="44.2441" y="1.32692" width="21.8032" height="11.9618" rx="2.7186" stroke="white" stroke-width="1.08744"/>
<rect id="Rectangle 43" x="45.7812" y="2.95801" width="18.7287" height="8.69952" rx="2.17488" fill="white"/>
</g>
</svg>
