<?xml version="1.0" encoding="UTF-8"?>
<svg xmlns="http://www.w3.org/2000/svg" xmlns:xlink="http://www.w3.org/1999/xlink" version="1.1" viewBox="0 0 806.2 510.4">
  <!-- Generator: Adobe Illustrator 29.3.0, SVG Export Plug-In . SVG Version: 2.1.0 Build 146)  -->
  <defs>
    <style>
      .st0, .st1, .st2, .st3, .st4, .st5, .st6, .st7 {
        fill: none;
      }

      .st8 {
        mask: url(#mask);
      }

      .st9 {
        fill: #04443a;
      }

      .st10 {
        fill: #d9d9d9;
      }

      .st1 {
        stroke: #03352d;
      }

      .st11 {
        fill: #b2cec9;
      }

      .st12 {
        fill: #e6efee;
      }

      .st13 {
        fill: #05574a;
      }

      .st14 {
        fill: #8cb6af;
      }

      .st15, .st16 {
        font-size: 16px;
      }

      .st15, .st17, .st18 {
        fill: #066051;
      }

      .st15, .st18 {
        font-family: Helvetica, Helvetica;
      }

      .st2 {
        stroke: #a2a2a2;
      }

      .st2, .st3, .st4 {
        stroke-linecap: round;
      }

      .st2, .st4 {
        stroke-width: 8px;
      }

      .st19 {
        clip-path: url(#clippath-1);
      }

      .st20 {
        clip-path: url(#clippath-3);
      }

      .st21 {
        clip-path: url(#clippath-4);
      }

      .st22 {
        clip-path: url(#clippath-2);
      }

      .st23 {
        clip-path: url(#clippath-7);
      }

      .st24 {
        clip-path: url(#clippath-6);
      }

      .st25 {
        clip-path: url(#clippath-8);
      }

      .st26 {
        clip-path: url(#clippath-5);
      }

      .st27 {
        font-size: 14px;
      }

      .st28 {
        fill: #388074;
      }

      .st29 {
        fill: #fff;
      }

      .st3 {
        stroke-linejoin: round;
        stroke-width: 2.5px;
      }

      .st3, .st7 {
        stroke: #353535;
      }

      .st4, .st6 {
        stroke: #066051;
      }

      .st5 {
        stroke: #fff;
      }

      .st5, .st6, .st7 {
        stroke-width: 2px;
      }

      .st6 {
        stroke-miterlimit: 10;
      }

      .st30 {
        clip-path: url(#clippath);
      }

      .st31 {
        fill: #161616;
      }
    </style>
    <clipPath id="clippath">
      <rect class="st0" x="67" y="116.1" width="169" height="38" rx="18" ry="18"/>
    </clipPath>
    <clipPath id="clippath-1">
      <rect class="st0" x="67" y="192.1" width="169" height="39" rx="18" ry="18"/>
    </clipPath>
    <clipPath id="clippath-2">
      <rect class="st0" x="67" y="269.1" width="169" height="38" rx="18" ry="18"/>
    </clipPath>
    <clipPath id="clippath-3">
      <rect class="st0" x="264" y="116.1" width="169" height="38" rx="18" ry="18"/>
    </clipPath>
    <clipPath id="clippath-4">
      <rect class="st0" x="264" y="192.1" width="169" height="39" rx="18" ry="18"/>
    </clipPath>
    <clipPath id="clippath-5">
      <rect class="st0" x="264" y="269.1" width="169" height="38" rx="18" ry="18"/>
    </clipPath>
    <clipPath id="clippath-6">
      <rect class="st0" x="677.3" y="382.1" width="24.5" height="24.5"/>
    </clipPath>
    <mask id="mask" x="673" y="438.1" width="32" height="32" maskUnits="userSpaceOnUse">
      <g id="mask0_132_277">
        <rect class="st10" x="673" y="438.1" width="32" height="32"/>
      </g>
    </mask>
    <clipPath id="clippath-7">
      <path class="st0" d="M395.5,435.6h0c11,0,20,9,20,20s-9,20-20,20-20-9-20-20,9-20,20-20Z"/>
    </clipPath>
    <clipPath id="clippath-8">
      <path class="st0" d="M395.5,371.6h0c11,0,20,9,20,20s-9,20-20,20-20-9-20-20,9-20,20-20Z"/>
    </clipPath>
  </defs>
  <g id="Layer_1">
    <rect class="st29" y="76.4" width="806.2" height="434.1" rx="19.7" ry="19.7"/>
    <g class="st30">
      <g>
        <rect class="st17" x="67" y="116.1" width="169" height="38" rx="18" ry="18"/>
        <path class="st29" d="M101.5,128.8v12.8h-1.7v-12.8h1.7ZM106.8,134.6v1.4h-5.7v-1.4h5.7ZM107.7,128.8v1.4h-6.6v-1.4h6.6ZM111.2,132.1v9.5h-1.6v-9.5h1.6ZM109.5,129.6c0-.3,0-.5.2-.7.2-.2.4-.3.7-.3s.5,0,.7.3c.2.2.3.4.3.7s0,.5-.3.7c-.2.2-.4.3-.7.3s-.6,0-.7-.3c-.2-.2-.2-.4-.2-.7ZM115.6,128.1v13.5h-1.6v-13.5h1.6ZM120,128.1v13.5h-1.6v-13.5h1.6ZM126.6,141.8c-.7,0-1.3-.1-1.8-.3-.5-.2-1-.5-1.4-1-.4-.4-.7-.9-.9-1.5-.2-.6-.3-1.2-.3-1.8v-.4c0-.8.1-1.5.3-2.1.2-.6.5-1.1.9-1.5.4-.4.8-.7,1.3-1,.5-.2,1-.3,1.5-.3s1.3.1,1.8.4c.5.2.9.6,1.2,1,.3.4.6.9.7,1.5.2.6.2,1.2.2,1.8v.7h-7.1v-1.3h5.5c0-.5-.1-1-.3-1.4-.1-.4-.4-.7-.7-1-.3-.3-.8-.4-1.3-.4s-.7,0-1,.2c-.3.2-.6.4-.8.7-.2.3-.4.7-.5,1.1-.1.4-.2.9-.2,1.5v.4c0,.5,0,.9.2,1.3.1.4.3.7.6,1,.2.3.5.5.9.7.4.2.8.3,1.2.3s1.1-.1,1.5-.4c.4-.2.7-.5,1-.9l1,.8c-.2.3-.5.6-.8.9-.3.3-.7.5-1.2.7-.5.2-1,.3-1.6.3ZM138.1,139.8v-11.7h1.6v13.5h-1.5v-1.8ZM131.8,136.9v-.2c0-.7,0-1.4.3-2,.2-.6.4-1.1.8-1.5.3-.4.7-.8,1.2-1,.5-.2,1-.4,1.5-.4s1.1.1,1.6.3c.5.2.8.5,1.1.9.3.4.6.9.7,1.4.2.6.3,1.2.4,1.9v.8c0,.7-.2,1.3-.4,1.9-.2.6-.4,1-.7,1.4-.3.4-.7.7-1.1.9-.5.2-1,.3-1.6.3s-1.1-.1-1.5-.4c-.5-.2-.9-.6-1.2-1-.3-.4-.6-.9-.8-1.5-.2-.6-.3-1.2-.3-1.9ZM133.4,136.8v.2c0,.5,0,.9.1,1.3.1.4.3.8.5,1.1s.5.6.8.7c.3.2.7.3,1.1.3s1-.1,1.3-.3c.4-.2.6-.5.8-.9.2-.4.4-.8.5-1.2v-2.1c0-.3-.2-.6-.3-.9-.1-.3-.3-.6-.5-.8-.2-.2-.5-.4-.8-.6-.3-.1-.7-.2-1.1-.2s-.8,0-1.2.3c-.3.2-.6.4-.8.8-.2.3-.4.7-.5,1.1,0,.4-.1.9-.1,1.3ZM156.9,128.8v12.8h-1.7l-6.4-9.9v9.9h-1.7v-12.8h1.7l6.5,9.9v-9.9h1.7ZM159.2,136.9v-.2c0-.7,0-1.3.3-1.9.2-.6.5-1.1.9-1.5.4-.4.8-.8,1.4-1,.5-.2,1.1-.4,1.8-.4s1.3.1,1.8.4c.5.2,1,.6,1.4,1,.4.4.7.9.9,1.5.2.6.3,1.2.3,1.9v.2c0,.7,0,1.3-.3,1.9-.2.6-.5,1.1-.9,1.5-.4.4-.8.8-1.4,1-.5.2-1.1.4-1.8.4s-1.3-.1-1.8-.4c-.5-.2-1-.6-1.4-1-.4-.4-.7-1-.9-1.5-.2-.6-.3-1.2-.3-1.9ZM160.8,136.7v.2c0,.5,0,.9.2,1.3.1.4.3.8.5,1.1.2.3.5.6.9.8.3.2.7.3,1.2.3s.8,0,1.2-.3c.3-.2.6-.4.8-.8.2-.3.4-.7.5-1.1.1-.4.2-.9.2-1.3v-.2c0-.5,0-.9-.2-1.3-.1-.4-.3-.8-.5-1.1-.2-.3-.5-.6-.8-.8-.3-.2-.7-.3-1.2-.3s-.8,0-1.2.3c-.3.2-.6.4-.8.8-.2.3-.4.7-.5,1.1-.1.4-.2.9-.2,1.3ZM171.5,133.6v8h-1.6v-9.5h1.6v1.5ZM174.5,132v1.5c-.1,0-.3,0-.4,0-.1,0-.3,0-.4,0-.4,0-.7,0-1,.2-.3.1-.5.3-.7.5-.2.2-.4.5-.5.8-.1.3-.2.6-.2.9l-.5.3c0-.6,0-1.1.2-1.6.1-.5.3-.9.5-1.3.2-.4.5-.7.9-.9.4-.2.8-.3,1.3-.3s.3,0,.4,0c.2,0,.3,0,.3,0ZM177.6,134v7.6h-1.6v-9.5h1.5v1.9ZM177.3,136.5h-.8c0-.7,0-1.3.3-1.8.2-.6.4-1,.7-1.5.3-.4.7-.7,1.2-.9.5-.2,1-.3,1.7-.3s.9,0,1.2.2c.4.1.7.3,1,.6.3.3.5.6.6,1,.2.4.2.9.2,1.5v6.3h-1.6v-6.3c0-.5,0-.9-.3-1.2-.2-.3-.4-.5-.7-.7-.3-.1-.7-.2-1.1-.2s-.9,0-1.2.3c-.3.2-.6.4-.8.7-.2.3-.3.6-.4,1,0,.4-.1.8-.1,1.2ZM183.4,135.6l-1.1.3c0-.5,0-1,.3-1.5.2-.5.4-.9.7-1.3.3-.4.7-.7,1.2-.9.5-.2,1-.3,1.6-.3s1,0,1.4.2c.4.1.7.3,1,.6.3.3.5.6.6,1.1.1.4.2.9.2,1.5v6.2h-1.6v-6.3c0-.5,0-.9-.3-1.2-.2-.3-.4-.5-.7-.6-.3-.1-.7-.2-1.1-.2s-.7,0-.9.2c-.3.1-.5.3-.7.5-.2.2-.3.5-.4.7,0,.3-.1.6-.1.9ZM197.4,140v-4.9c0-.4,0-.7-.2-1-.1-.3-.4-.5-.7-.7-.3-.2-.7-.2-1.1-.2s-.8,0-1.1.2c-.3.1-.5.3-.7.6-.2.2-.3.5-.3.7h-1.6c0-.3,0-.7.3-1,.2-.3.4-.6.8-.9.3-.3.7-.5,1.2-.7.5-.2,1-.2,1.6-.2s1.3.1,1.8.4c.5.2.9.6,1.2,1.1.3.5.5,1.1.5,1.8v4.4c0,.3,0,.7,0,1,0,.4.1.7.3.9h0c0,.1-1.7.1-1.7.1,0-.2-.1-.4-.2-.7,0-.3,0-.6,0-.9ZM197.7,135.8v1.1s-1.6,0-1.6,0c-.5,0-.9,0-1.2.1-.4,0-.7.2-.9.3s-.4.3-.6.6c-.1.2-.2.5-.2.8s0,.6.2.8c.1.2.3.4.6.6.3.1.6.2,1,.2s.9-.1,1.3-.3c.4-.2.7-.5.9-.8.2-.3.4-.6.4-.9l.7.8c0,.2-.2.5-.3.8-.2.3-.4.6-.7.9-.3.3-.7.5-1.1.7-.4.2-.9.3-1.4.3s-1.2-.1-1.7-.4c-.5-.3-.9-.6-1.1-1-.3-.4-.4-.9-.4-1.4s.1-1,.3-1.3c.2-.4.5-.7.9-1,.4-.3.8-.5,1.4-.6.5-.1,1.1-.2,1.8-.2h1.9ZM203.3,128.1v13.5h-1.6v-13.5h1.6Z"/>
      </g>
    </g>
    <g class="st19">
      <g>
        <rect class="st28" x="67" y="192.1" width="169" height="39" rx="18" ry="18"/>
        <path class="st29" d="M107.4,205.3v12.8h-1.7v-12.8h1.7ZM112.8,211.1v1.4h-5.7v-1.4h5.7ZM113.7,205.3v1.4h-6.6v-1.4h6.6ZM117.2,208.6v9.5h-1.6v-9.5h1.6ZM115.5,206.1c0-.3,0-.5.2-.7.2-.2.4-.3.7-.3s.5,0,.7.3c.2.2.3.4.3.7s0,.5-.3.6c-.2.2-.4.3-.7.3s-.6,0-.7-.3c-.2-.2-.2-.4-.2-.6ZM121.6,204.6v13.5h-1.6v-13.5h1.6ZM126,204.6v13.5h-1.6v-13.5h1.6ZM132.5,218.3c-.7,0-1.3-.1-1.8-.3-.5-.2-1-.5-1.4-1-.4-.4-.7-.9-.9-1.5-.2-.6-.3-1.2-.3-1.8v-.4c0-.8.1-1.5.3-2.1.2-.6.5-1.1.9-1.5.4-.4.8-.7,1.3-1,.5-.2,1-.3,1.5-.3s1.3.1,1.8.4c.5.2.9.6,1.2,1,.3.4.6.9.7,1.5.2.6.2,1.2.2,1.8v.7h-7.1v-1.3h5.5c0-.5-.1-1-.3-1.4-.1-.4-.4-.7-.7-1-.3-.3-.8-.4-1.3-.4s-.7,0-1,.2c-.3.2-.6.4-.8.7-.2.3-.4.7-.5,1.1-.1.4-.2.9-.2,1.5v.4c0,.5,0,.9.2,1.3.1.4.3.7.6,1,.2.3.5.5.9.7.4.2.8.3,1.2.3s1.1-.1,1.5-.4c.4-.2.7-.5,1-.9l1,.8c-.2.3-.5.6-.8.9-.3.3-.7.5-1.2.7-.5.2-1,.3-1.6.3ZM144.1,216.3v-11.7h1.6v13.5h-1.5v-1.8ZM137.7,213.4v-.2c0-.7,0-1.4.3-2,.2-.6.4-1.1.8-1.5.3-.4.7-.8,1.2-1,.5-.2,1-.4,1.5-.4s1.1.1,1.6.3c.5.2.8.5,1.1.9.3.4.6.9.7,1.4.2.6.3,1.2.4,1.9v.8c0,.7-.2,1.3-.4,1.9-.2.6-.4,1-.7,1.4-.3.4-.7.7-1.1.9-.5.2-1,.3-1.6.3s-1.1-.1-1.5-.4c-.5-.2-.9-.6-1.2-1-.3-.4-.6-.9-.8-1.5-.2-.6-.3-1.2-.3-1.9ZM139.4,213.3v.2c0,.5,0,.9.1,1.3,0,.4.3.8.5,1.1.2.3.5.6.8.7.3.2.7.3,1.1.3s1-.1,1.3-.3c.4-.2.6-.5.8-.9s.4-.8.5-1.2v-2.1c0-.3-.2-.6-.3-.9-.1-.3-.3-.6-.5-.8-.2-.2-.5-.4-.8-.6-.3-.1-.7-.2-1.1-.2s-.8,0-1.2.3c-.3.2-.6.4-.8.8-.2.3-.4.7-.5,1.1,0,.4-.1.9-.1,1.3ZM161.4,210.8v1.4h-6.9v-1.4h6.9ZM154.7,205.3v12.8h-1.7v-12.8h1.7ZM162.8,205.3v12.8h-1.7v-12.8h1.7ZM165.2,213.4v-.2c0-.7,0-1.3.3-1.9.2-.6.5-1.1.9-1.5.4-.4.8-.8,1.4-1,.5-.2,1.1-.4,1.8-.4s1.3.1,1.8.4c.5.2,1,.6,1.4,1,.4.4.7.9.9,1.5.2.6.3,1.2.3,1.9v.2c0,.7,0,1.3-.3,1.9-.2.6-.5,1.1-.9,1.5-.4.4-.8.8-1.4,1-.5.2-1.1.4-1.8.4s-1.3-.1-1.8-.4c-.5-.2-1-.6-1.4-1-.4-.4-.7-1-.9-1.5-.2-.6-.3-1.2-.3-1.9ZM166.8,213.2v.2c0,.5,0,.9.2,1.3.1.4.3.8.5,1.1.2.3.5.6.9.8.3.2.7.3,1.2.3s.8,0,1.2-.3c.3-.2.6-.4.8-.8.2-.3.4-.7.5-1.1.1-.4.2-.9.2-1.3v-.2c0-.5,0-.9-.2-1.3-.1-.4-.3-.8-.5-1.1-.2-.3-.5-.6-.8-.8-.3-.2-.7-.3-1.2-.3s-.8,0-1.2.3c-.3.2-.6.4-.8.8-.2.3-.4.7-.5,1.1-.1.4-.2.9-.2,1.3ZM178.6,216.6l2.6-8h1.7l-3.4,9.5h-1.1l.2-1.5ZM176.5,208.6l2.7,8.1.2,1.4h-1.1l-3.4-9.5h1.7ZM188.3,218.3c-.7,0-1.3-.1-1.8-.3-.5-.2-1-.5-1.4-1-.4-.4-.7-.9-.9-1.5-.2-.6-.3-1.2-.3-1.8v-.4c0-.8.1-1.5.3-2.1.2-.6.5-1.1.9-1.5.4-.4.8-.7,1.3-1,.5-.2,1-.3,1.5-.3s1.3.1,1.8.4c.5.2.9.6,1.2,1,.3.4.6.9.7,1.5.2.6.2,1.2.2,1.8v.7h-7.1v-1.3h5.5c0-.5-.1-1-.3-1.4-.1-.4-.4-.7-.7-1-.3-.3-.8-.4-1.3-.4s-.7,0-1,.2c-.3.2-.6.4-.8.7-.2.3-.4.7-.5,1.1-.1.4-.2.9-.2,1.5v.4c0,.5,0,.9.2,1.3.1.4.3.7.6,1,.2.3.5.5.9.7.4.2.8.3,1.2.3s1.1-.1,1.5-.4c.4-.2.7-.5,1-.9l1,.8c-.2.3-.5.6-.8.9-.3.3-.7.5-1.2.7-.5.2-1,.3-1.6.3ZM195.5,210.1v8h-1.6v-9.5h1.6v1.5ZM198.5,208.5v1.5c-.1,0-.3,0-.4,0-.1,0-.3,0-.4,0-.4,0-.7,0-1,.2-.3.1-.5.3-.7.5-.2.2-.4.5-.5.8-.1.3-.2.6-.2.9l-.5.3c0-.6,0-1.1.2-1.6.1-.5.3-.9.5-1.3.2-.4.5-.7.9-.9.4-.2.8-.3,1.3-.3s.3,0,.4,0c.2,0,.3,0,.3,0Z"/>
      </g>
    </g>
    <g class="st22">
      <g>
        <rect class="st9" x="67" y="269.1" width="169" height="38" rx="18" ry="18"/>
        <path class="st29" d="M106.3,281.8v12.8h-1.7v-12.8h1.7ZM111.6,287.6v1.4h-5.7v-1.4h5.7ZM112.5,281.8v1.4h-6.6v-1.4h6.6ZM116,285.1v9.5h-1.6v-9.5h1.6ZM114.3,282.6c0-.3,0-.5.2-.7.2-.2.4-.3.7-.3s.5,0,.7.3c.2.2.3.4.3.7s0,.5-.3.6c-.2.2-.4.3-.7.3s-.6,0-.7-.3c-.2-.2-.2-.4-.2-.6ZM120.4,281.1v13.5h-1.6v-13.5h1.6ZM124.8,281.1v13.5h-1.6v-13.5h1.6ZM131.4,294.8c-.7,0-1.3-.1-1.8-.3-.5-.2-1-.5-1.4-1-.4-.4-.7-.9-.9-1.5-.2-.6-.3-1.2-.3-1.8v-.4c0-.8.1-1.5.3-2.1.2-.6.5-1.1.9-1.5.4-.4.8-.7,1.3-1,.5-.2,1-.3,1.5-.3s1.3.1,1.8.4c.5.2.9.6,1.2,1,.3.4.6.9.7,1.5.2.6.2,1.2.2,1.8v.7h-7.1v-1.3h5.5c0-.5-.1-1-.3-1.4-.1-.4-.4-.7-.7-1-.3-.3-.8-.4-1.3-.4s-.7,0-1,.2c-.3.2-.6.4-.8.7-.2.3-.4.7-.5,1.1-.1.4-.2.9-.2,1.5v.4c0,.5,0,.9.2,1.3.1.4.3.7.6,1,.2.3.5.5.9.7.4.2.8.3,1.2.3s1.1-.1,1.5-.4c.4-.2.7-.5,1-.9l1,.8c-.2.3-.5.6-.8.9-.3.3-.7.5-1.2.7-.5.2-1,.3-1.6.3ZM142.9,292.8v-11.7h1.6v13.5h-1.5v-1.8ZM136.6,289.9v-.2c0-.7,0-1.4.3-2,.2-.6.4-1.1.8-1.5.3-.4.7-.8,1.2-1,.5-.2,1-.4,1.5-.4s1.1.1,1.6.3c.5.2.8.5,1.1.9.3.4.6.9.7,1.4.2.6.3,1.2.4,1.9v.8c0,.7-.2,1.3-.4,1.9-.2.6-.4,1-.7,1.4-.3.4-.7.7-1.1.9-.5.2-1,.3-1.6.3s-1.1-.1-1.5-.4c-.5-.2-.9-.6-1.2-1-.3-.4-.6-.9-.8-1.5-.2-.6-.3-1.2-.3-1.9ZM138.2,289.8v.2c0,.5,0,.9.1,1.3.1.4.3.8.5,1.1.2.3.5.6.8.7.3.2.7.3,1.1.3s1-.1,1.3-.3c.4-.2.6-.5.8-.9s.4-.8.5-1.2v-2.1c0-.3-.2-.6-.3-.9-.1-.3-.3-.6-.5-.8-.2-.2-.5-.4-.8-.6-.3-.1-.7-.2-1.1-.2s-.8,0-1.2.3c-.3.2-.6.4-.8.8-.2.3-.4.7-.5,1.1,0,.4-.1.9-.1,1.3ZM156.6,282.9l-4.2,11.7h-1.7l4.9-12.8h1.1v1.1ZM160.1,294.6l-4.2-11.7v-1.1s1.1,0,1.1,0l4.9,12.8h-1.7ZM159.9,289.9v1.4h-7.2v-1.4h7.2ZM167.1,293.4c.4,0,.7,0,1.1-.2.3-.2.6-.4.8-.7.2-.3.3-.6.4-1h1.5c0,.6-.2,1.1-.6,1.6-.3.5-.8.9-1.4,1.2-.6.3-1.2.4-1.9.4s-1.3-.1-1.9-.4c-.5-.3-1-.6-1.3-1-.3-.4-.6-.9-.8-1.5-.2-.6-.3-1.2-.3-1.8v-.4c0-.6,0-1.2.3-1.8.2-.6.4-1.1.8-1.5.4-.4.8-.8,1.3-1,.5-.3,1.2-.4,1.9-.4s1.4.2,2,.5c.6.3,1,.7,1.3,1.2.3.5.5,1.1.5,1.8h-1.5c0-.4-.1-.7-.3-1.1-.2-.3-.4-.6-.8-.8-.3-.2-.7-.3-1.1-.3s-.9.1-1.3.3c-.3.2-.6.5-.8.8-.2.3-.3.7-.4,1.1,0,.4-.1.8-.1,1.2v.4c0,.4,0,.8.1,1.2,0,.4.2.8.4,1.1.2.3.5.6.8.8.3.2.8.3,1.3.3ZM176.7,285.1v1.2h-5.1v-1.2h5.1ZM173.3,282.8h1.6v9.5c0,.3,0,.6.1.7,0,.2.2.3.4.3.2,0,.3,0,.5,0s.3,0,.4,0c.2,0,.3,0,.3,0v1.3c-.1,0-.3,0-.5.1-.2,0-.5,0-.7,0s-.8,0-1.1-.2c-.3-.2-.6-.4-.8-.8-.2-.4-.3-.9-.3-1.5v-9.5ZM180.4,285.1v9.5h-1.6v-9.5h1.6ZM178.6,282.6c0-.3,0-.5.2-.7.2-.2.4-.3.7-.3s.5,0,.7.3c.2.2.3.4.3.7s0,.5-.3.6c-.2.2-.4.3-.7.3s-.6,0-.7-.3c-.2-.2-.2-.4-.2-.6ZM185.9,293.1l2.6-8h1.7l-3.4,9.5h-1.1l.2-1.5ZM183.7,285.1l2.7,8.1.2,1.4h-1.1l-3.4-9.5h1.7ZM195.6,294.8c-.7,0-1.3-.1-1.8-.3-.5-.2-1-.5-1.4-1-.4-.4-.7-.9-.9-1.5-.2-.6-.3-1.2-.3-1.8v-.4c0-.8.1-1.5.3-2.1.2-.6.5-1.1.9-1.5.4-.4.8-.7,1.3-1,.5-.2,1-.3,1.5-.3s1.3.1,1.8.4c.5.2.9.6,1.2,1,.3.4.6.9.7,1.5.2.6.2,1.2.2,1.8v.7h-7.1v-1.3h5.5c0-.5-.1-1-.3-1.4-.1-.4-.4-.7-.7-1-.3-.3-.8-.4-1.3-.4s-.7,0-1,.2c-.3.2-.6.4-.8.7-.2.3-.4.7-.5,1.1-.1.4-.2.9-.2,1.5v.4c0,.5,0,.9.2,1.3.1.4.3.7.6,1,.2.3.5.5.9.7.4.2.8.3,1.2.3s1.1-.1,1.5-.4c.4-.2.7-.5,1-.9l1,.8c-.2.3-.5.6-.8.9-.3.3-.7.5-1.2.7-.5.2-1,.3-1.6.3Z"/>
      </g>
    </g>
    <g class="st20">
      <g>
        <rect class="st11" x="264" y="116.1" width="169" height="38" rx="18" ry="18"/>
        <path class="st31" d="M300.8,128.8v12.8h-1.7v-12.8h1.7ZM304.9,128.8v1.4h-9.9v-1.4h9.9ZM305.2,136.9v-.2c0-.7.1-1.3.3-1.9.2-.6.5-1.1.9-1.5.4-.4.8-.8,1.4-1,.5-.2,1.1-.4,1.8-.4s1.3.1,1.8.4c.5.2,1,.6,1.4,1,.4.4.7.9.9,1.5.2.6.3,1.2.3,1.9v.2c0,.7-.1,1.3-.3,1.9-.2.6-.5,1.1-.9,1.5-.4.4-.8.8-1.4,1-.5.2-1.1.4-1.8.4s-1.3-.1-1.8-.4c-.5-.2-1-.6-1.4-1-.4-.4-.7-1-.9-1.5-.2-.6-.3-1.2-.3-1.9ZM306.9,136.7v.2c0,.5,0,.9.2,1.3.1.4.3.8.5,1.1.2.3.5.6.9.8.3.2.7.3,1.2.3s.8,0,1.2-.3c.3-.2.6-.4.8-.8.2-.3.4-.7.5-1.1.1-.4.2-.9.2-1.3v-.2c0-.5,0-.9-.2-1.3-.1-.4-.3-.8-.5-1.1-.2-.3-.5-.6-.8-.8-.3-.2-.7-.3-1.2-.3s-.8,0-1.2.3c-.3.2-.6.4-.8.8-.2.3-.4.7-.5,1.1-.1.4-.2.9-.2,1.3ZM317.6,134.1v7.5h-1.6v-9.5h1.5v2ZM317.2,136.5h-.7c0-.7.1-1.3.3-1.8.2-.6.5-1,.8-1.5.3-.4.7-.7,1.2-.9.5-.2,1-.3,1.6-.3s.9,0,1.3.2c.4.1.7.3,1,.6.3.3.5.6.6,1.1.1.4.2,1,.2,1.6v6.2h-1.6v-6.2c0-.5,0-.9-.2-1.2-.1-.3-.4-.5-.6-.7-.3-.1-.6-.2-1-.2s-.8,0-1.1.3c-.3.2-.6.4-.9.7-.2.3-.4.6-.6,1-.1.4-.2.8-.2,1.2ZM331.5,140v-4.9c0-.4,0-.7-.2-1-.1-.3-.4-.5-.7-.7-.3-.2-.7-.2-1.1-.2s-.8,0-1.1.2c-.3.1-.5.3-.7.6-.2.2-.3.5-.3.7h-1.6c0-.3,0-.7.3-1,.2-.3.4-.6.8-.9.3-.3.7-.5,1.2-.7.5-.2,1-.2,1.6-.2s1.3.1,1.8.4c.5.2.9.6,1.2,1.1.3.5.5,1.1.5,1.8v4.4c0,.3,0,.7,0,1,0,.4.1.7.3.9h0c0,.1-1.7.1-1.7.1,0-.2-.1-.4-.2-.7,0-.3,0-.6,0-.9ZM331.8,135.8v1.1s-1.6,0-1.6,0c-.5,0-.9,0-1.2.1-.4,0-.7.2-.9.3s-.4.3-.6.6c-.1.2-.2.5-.2.8s0,.6.2.8c.1.2.3.4.6.6.3.1.6.2,1,.2s.9-.1,1.3-.3c.4-.2.7-.5.9-.8.2-.3.4-.6.4-.9l.7.8c0,.2-.2.5-.3.8-.2.3-.4.6-.7.9-.3.3-.7.5-1.1.7-.4.2-.9.3-1.4.3s-1.2-.1-1.7-.4c-.5-.3-.9-.6-1.1-1-.3-.4-.4-.9-.4-1.4s0-1,.3-1.3c.2-.4.5-.7.9-1,.4-.3.8-.5,1.4-.6.5-.1,1.1-.2,1.8-.2h1.9ZM337.4,128.1v13.5h-1.6v-13.5h1.6ZM354.6,128.8v12.8h-1.7l-6.4-9.9v9.9h-1.7v-12.8h1.7l6.5,9.9v-9.9h1.7ZM356.9,136.9v-.2c0-.7,0-1.3.3-1.9.2-.6.5-1.1.9-1.5.4-.4.8-.8,1.4-1,.5-.2,1.1-.4,1.8-.4s1.3.1,1.8.4c.5.2,1,.6,1.4,1,.4.4.7.9.9,1.5.2.6.3,1.2.3,1.9v.2c0,.7-.1,1.3-.3,1.9-.2.6-.5,1.1-.9,1.5-.4.4-.8.8-1.4,1-.5.2-1.1.4-1.8.4s-1.3-.1-1.8-.4c-.5-.2-1-.6-1.4-1-.4-.4-.7-1-.9-1.5-.2-.6-.3-1.2-.3-1.9ZM358.6,136.7v.2c0,.5,0,.9.2,1.3.1.4.3.8.5,1.1.2.3.5.6.9.8.3.2.7.3,1.2.3s.8,0,1.2-.3c.3-.2.6-.4.8-.8.2-.3.4-.7.5-1.1.1-.4.2-.9.2-1.3v-.2c0-.5,0-.9-.2-1.3-.1-.4-.3-.8-.5-1.1-.2-.3-.5-.6-.8-.8-.3-.2-.7-.3-1.2-.3s-.8,0-1.2.3c-.3.2-.6.4-.8.8-.2.3-.4.7-.5,1.1-.1.4-.2.9-.2,1.3ZM369.3,133.6v8h-1.6v-9.5h1.6v1.5ZM372.2,132v1.5c-.1,0-.3,0-.4,0-.1,0-.3,0-.4,0-.4,0-.7,0-1,.2-.3.1-.5.3-.7.5-.2.2-.4.5-.5.8-.1.3-.2.6-.2.9l-.5.3c0-.6,0-1.1.2-1.6.1-.5.3-.9.5-1.3.2-.4.5-.7.9-.9.4-.2.8-.3,1.3-.3s.3,0,.4,0c.2,0,.3,0,.3,0ZM375.3,134v7.6h-1.6v-9.5h1.5v1.9ZM375,136.5h-.8c0-.7,0-1.3.3-1.8.2-.6.4-1,.7-1.5.3-.4.7-.7,1.2-.9.5-.2,1-.3,1.7-.3s.9,0,1.2.2c.4.1.7.3,1,.6.3.3.5.6.6,1,.2.4.2.9.2,1.5v6.3h-1.6v-6.3c0-.5,0-.9-.3-1.2-.2-.3-.4-.5-.7-.7-.3-.1-.7-.2-1.1-.2s-.9,0-1.2.3c-.3.2-.6.4-.8.7-.2.3-.3.6-.4,1,0,.4-.1.8-.1,1.2ZM381.2,135.6l-1.1.3c0-.5,0-1,.3-1.5.2-.5.4-.9.7-1.3.3-.4.7-.7,1.2-.9.5-.2,1-.3,1.6-.3s1,0,1.4.2c.4.1.7.3,1,.6.3.3.5.6.6,1.1.1.4.2.9.2,1.5v6.2h-1.6v-6.3c0-.5,0-.9-.3-1.2-.2-.3-.4-.5-.7-.6-.3-.1-.7-.2-1.1-.2s-.7,0-.9.2c-.3.1-.5.3-.7.5-.2.2-.3.5-.4.7,0,.3-.1.6-.1.9ZM395.1,140v-4.9c0-.4,0-.7-.2-1-.1-.3-.4-.5-.7-.7-.3-.2-.7-.2-1.1-.2s-.8,0-1.1.2c-.3.1-.5.3-.7.6-.2.2-.3.5-.3.7h-1.6c0-.3,0-.7.3-1,.2-.3.4-.6.8-.9.3-.3.7-.5,1.2-.7.5-.2,1-.2,1.6-.2s1.3.1,1.8.4c.5.2.9.6,1.2,1.1.3.5.5,1.1.5,1.8v4.4c0,.3,0,.7,0,1,0,.4.1.7.3.9h0c0,.1-1.7.1-1.7.1,0-.2-.1-.4-.2-.7,0-.3,0-.6,0-.9ZM395.4,135.8v1.1s-1.6,0-1.6,0c-.5,0-.9,0-1.2.1-.4,0-.7.2-.9.3s-.4.3-.6.6c-.1.2-.2.5-.2.8s0,.6.2.8c.1.2.3.4.6.6.3.1.6.2,1,.2s.9-.1,1.3-.3c.4-.2.7-.5.9-.8.2-.3.4-.6.4-.9l.7.8c0,.2-.2.5-.3.8-.2.3-.4.6-.7.9-.3.3-.7.5-1.1.7-.4.2-.9.3-1.4.3s-1.2-.1-1.7-.4c-.5-.3-.9-.6-1.1-1-.3-.4-.4-.9-.4-1.4s0-1,.3-1.3c.2-.4.5-.7.9-1,.4-.3.8-.5,1.4-.6.5-.1,1.1-.2,1.8-.2h1.9ZM401.1,128.1v13.5h-1.6v-13.5h1.6Z"/>
      </g>
    </g>
    <g class="st21">
      <g>
        <rect class="st12" x="264" y="192.1" width="169" height="39" rx="18" ry="18"/>
        <path class="st31" d="M306.8,205.3v12.8h-1.7v-12.8h1.7ZM310.9,205.3v1.4h-9.9v-1.4h9.9ZM311.2,213.4v-.2c0-.7.1-1.3.3-1.9.2-.6.5-1.1.9-1.5.4-.4.8-.8,1.4-1,.5-.2,1.1-.4,1.8-.4s1.3.1,1.8.4c.5.2,1,.6,1.4,1,.4.4.7.9.9,1.5.2.6.3,1.2.3,1.9v.2c0,.7,0,1.3-.3,1.9-.2.6-.5,1.1-.9,1.5-.4.4-.8.8-1.4,1-.5.2-1.1.4-1.8.4s-1.3-.1-1.8-.4c-.5-.2-1-.6-1.4-1-.4-.4-.7-1-.9-1.5-.2-.6-.3-1.2-.3-1.9ZM312.8,213.2v.2c0,.5,0,.9.2,1.3.1.4.3.8.5,1.1.2.3.5.6.9.8.3.2.7.3,1.2.3s.8,0,1.2-.3c.3-.2.6-.4.8-.8.2-.3.4-.7.5-1.1.1-.4.2-.9.2-1.3v-.2c0-.5,0-.9-.2-1.3-.1-.4-.3-.8-.5-1.1-.2-.3-.5-.6-.8-.8-.3-.2-.7-.3-1.2-.3s-.8,0-1.2.3c-.3.2-.6.4-.8.8-.2.3-.4.7-.5,1.1-.1.4-.2.9-.2,1.3ZM323.5,210.6v7.5h-1.6v-9.5h1.5v2ZM323.1,213h-.7c0-.7.1-1.3.3-1.8.2-.6.5-1,.8-1.5.3-.4.7-.7,1.2-.9.5-.2,1-.3,1.6-.3s.9,0,1.3.2c.4.1.7.3,1,.6.3.3.5.6.6,1.1.1.4.2,1,.2,1.6v6.2h-1.6v-6.2c0-.5,0-.9-.2-1.2-.1-.3-.4-.5-.6-.7-.3-.1-.6-.2-1-.2s-.8,0-1.1.3c-.3.2-.6.4-.9.7-.2.3-.4.6-.6,1-.1.4-.2.8-.2,1.2ZM337.5,216.5v-4.9c0-.4,0-.7-.2-1-.1-.3-.4-.5-.7-.7-.3-.2-.7-.2-1.1-.2s-.8,0-1.1.2c-.3.1-.5.3-.7.6-.2.2-.3.5-.3.7h-1.6c0-.3,0-.7.3-1s.4-.6.8-.9c.3-.3.7-.5,1.2-.6.5-.2,1-.2,1.6-.2s1.3.1,1.8.4c.5.2.9.6,1.2,1.1.3.5.5,1.1.5,1.8v4.4c0,.3,0,.7,0,1,0,.4.1.7.3.9h0c0,.1-1.7.1-1.7.1,0-.2-.1-.4-.2-.7,0-.3,0-.6,0-.9ZM337.7,212.3v1.1s-1.6,0-1.6,0c-.5,0-.9,0-1.2.1-.4,0-.7.2-.9.3-.2.1-.4.3-.6.6-.1.2-.2.5-.2.8s0,.6.2.8.3.4.6.6c.3.1.6.2,1,.2s.9-.1,1.3-.3c.4-.2.7-.5.9-.8.2-.3.4-.6.4-.9l.7.8c0,.2-.2.5-.3.8-.2.3-.4.6-.7.9-.3.3-.7.5-1.1.7-.4.2-.9.3-1.4.3s-1.2-.1-1.7-.4c-.5-.3-.9-.6-1.1-1-.3-.4-.4-.9-.4-1.4s.1-1,.3-1.3c.2-.4.5-.7.9-1,.4-.3.8-.5,1.4-.6.5-.1,1.1-.2,1.8-.2h1.9ZM343.4,204.6v13.5h-1.6v-13.5h1.6ZM359.1,210.8v1.4h-6.9v-1.4h6.9ZM352.4,205.3v12.8h-1.7v-12.8h1.7ZM360.6,205.3v12.8h-1.7v-12.8h1.7ZM362.9,213.4v-.2c0-.7.1-1.3.3-1.9.2-.6.5-1.1.9-1.5.4-.4.8-.8,1.4-1,.5-.2,1.1-.4,1.8-.4s1.3.1,1.8.4c.5.2,1,.6,1.4,1,.4.4.7.9.9,1.5.2.6.3,1.2.3,1.9v.2c0,.7,0,1.3-.3,1.9-.2.6-.5,1.1-.9,1.5-.4.4-.8.8-1.4,1-.5.2-1.1.4-1.8.4s-1.3-.1-1.8-.4c-.5-.2-1-.6-1.4-1-.4-.4-.7-1-.9-1.5s-.3-1.2-.3-1.9ZM364.5,213.2v.2c0,.5,0,.9.2,1.3.1.4.3.8.5,1.1.2.3.5.6.9.8.3.2.7.3,1.2.3s.8,0,1.2-.3c.3-.2.6-.4.8-.8.2-.3.4-.7.5-1.1.1-.4.2-.9.2-1.3v-.2c0-.5,0-.9-.2-1.3-.1-.4-.3-.8-.5-1.1-.2-.3-.5-.6-.8-.8-.3-.2-.7-.3-1.2-.3s-.8,0-1.2.3c-.3.2-.6.4-.8.8-.2.3-.4.7-.5,1.1-.1.4-.2.9-.2,1.3ZM376.4,216.6l2.6-8h1.7l-3.4,9.5h-1.1l.2-1.5ZM374.2,208.6l2.7,8.1.2,1.4h-1.1l-3.4-9.5h1.7ZM386,218.3c-.7,0-1.3-.1-1.8-.3-.5-.2-1-.5-1.4-1-.4-.4-.7-.9-.9-1.5-.2-.6-.3-1.2-.3-1.8v-.4c0-.8.1-1.5.3-2.1.2-.6.5-1.1.9-1.5.4-.4.8-.7,1.3-1,.5-.2,1-.3,1.5-.3s1.3.1,1.8.4c.5.2.9.6,1.2,1,.3.4.6.9.7,1.5.2.6.2,1.2.2,1.8v.7h-7.1v-1.3h5.5c0-.5-.1-1-.3-1.4-.1-.4-.4-.7-.7-1-.3-.3-.8-.4-1.3-.4s-.7,0-1,.2c-.3.2-.6.4-.8.7-.2.3-.4.7-.5,1.1-.1.4-.2.9-.2,1.5v.4c0,.5,0,.9.2,1.3.1.4.3.7.6,1,.2.3.5.5.9.7.4.2.8.3,1.2.3s1.1-.1,1.5-.4c.4-.2.7-.5,1-.9l1,.8c-.2.3-.5.6-.8.9-.3.3-.7.5-1.2.7-.5.2-1,.3-1.6.3ZM393.2,210.1v8h-1.6v-9.5h1.6v1.5ZM396.2,208.5v1.5c-.1,0-.3,0-.4,0-.1,0-.3,0-.4,0-.4,0-.7,0-1,.2-.3.1-.5.3-.7.5s-.4.5-.5.8c-.1.3-.2.6-.2.9l-.5.3c0-.6,0-1.1.2-1.6.1-.5.3-.9.5-1.3.2-.4.5-.7.9-.9.4-.2.8-.3,1.3-.3s.3,0,.4,0c.2,0,.3,0,.3,0Z"/>
      </g>
    </g>
    <g class="st26">
      <g>
        <rect class="st14" x="264" y="269.1" width="169" height="38" rx="18" ry="18"/>
        <path class="st31" d="M305.6,281.8v12.8h-1.7v-12.8h1.7ZM309.7,281.8v1.4h-9.9v-1.4h9.9ZM310,289.9v-.2c0-.7.1-1.3.3-1.9.2-.6.5-1.1.9-1.5.4-.4.8-.8,1.4-1,.5-.2,1.1-.4,1.8-.4s1.3.1,1.8.4c.5.2,1,.6,1.4,1,.4.4.7.9.9,1.5.2.6.3,1.2.3,1.9v.2c0,.7,0,1.3-.3,1.9-.2.6-.5,1.1-.9,1.5-.4.4-.8.8-1.4,1-.5.2-1.1.4-1.8.4s-1.3-.1-1.8-.4c-.5-.2-1-.6-1.4-1-.4-.4-.7-1-.9-1.5s-.3-1.2-.3-1.9ZM311.7,289.7v.2c0,.5,0,.9.2,1.3.1.4.3.8.5,1.1.2.3.5.6.9.8.3.2.7.3,1.2.3s.8,0,1.2-.3c.3-.2.6-.4.8-.8.2-.3.4-.7.5-1.1.1-.4.2-.9.2-1.3v-.2c0-.5,0-.9-.2-1.3-.1-.4-.3-.8-.5-1.1-.2-.3-.5-.6-.8-.8-.3-.2-.7-.3-1.2-.3s-.8,0-1.2.3c-.3.2-.6.4-.8.8-.2.3-.4.7-.5,1.1-.1.4-.2.9-.2,1.3ZM322.4,287.1v7.5h-1.6v-9.5h1.5v2ZM322,289.5h-.7c0-.7.1-1.3.3-1.8.2-.6.5-1,.8-1.5.3-.4.7-.7,1.2-.9.5-.2,1-.3,1.6-.3s.9,0,1.3.2c.4.1.7.3,1,.6.3.3.5.6.6,1.1.1.4.2,1,.2,1.6v6.2h-1.6v-6.2c0-.5,0-.9-.2-1.2-.1-.3-.4-.5-.6-.7-.3-.1-.6-.2-1-.2s-.8,0-1.1.3c-.3.2-.6.4-.9.7-.2.3-.4.6-.6,1-.1.4-.2.8-.2,1.2ZM336.3,293v-4.9c0-.4,0-.7-.2-1-.1-.3-.4-.5-.7-.7-.3-.2-.7-.2-1.1-.2s-.8,0-1.1.2c-.3.1-.5.3-.7.6-.2.2-.3.5-.3.7h-1.6c0-.3,0-.7.3-1,.2-.3.4-.6.8-.9.3-.3.7-.5,1.2-.6.5-.2,1-.2,1.6-.2s1.3.1,1.8.4c.5.2.9.6,1.2,1.1.3.5.5,1.1.5,1.8v4.4c0,.3,0,.7,0,1,0,.4.1.7.3.9h0c0,.1-1.7.1-1.7.1,0-.2-.1-.4-.2-.7,0-.3,0-.6,0-.9ZM336.6,288.8v1.1s-1.6,0-1.6,0c-.5,0-.9,0-1.2.1-.4,0-.7.2-.9.3-.2.1-.4.3-.6.6-.1.2-.2.5-.2.8s0,.6.2.8c.1.2.3.4.6.6.3.1.6.2,1,.2s.9-.1,1.3-.3c.4-.2.7-.5.9-.8.2-.3.4-.6.4-.9l.7.8c0,.2-.2.5-.3.8-.2.3-.4.6-.7.9-.3.3-.7.5-1.1.7-.4.2-.9.3-1.4.3s-1.2-.1-1.7-.4c-.5-.3-.9-.6-1.1-1-.3-.4-.4-.9-.4-1.4s0-1,.3-1.3c.2-.4.5-.7.9-1,.4-.3.8-.5,1.4-.6.5-.1,1.1-.2,1.8-.2h1.9ZM342.2,281.1v13.5h-1.6v-13.5h1.6ZM354.3,282.9l-4.2,11.7h-1.7l4.9-12.8h1.1v1.1ZM357.8,294.6l-4.2-11.7v-1.1s1.1,0,1.1,0l4.9,12.8h-1.7ZM357.6,289.9v1.4h-7.2v-1.4h7.2ZM364.9,293.4c.4,0,.7,0,1.1-.2.3-.2.6-.4.8-.7.2-.3.3-.6.4-1h1.5c0,.6-.2,1.1-.6,1.6-.3.5-.8.9-1.4,1.2-.6.3-1.2.4-1.9.4s-1.3-.1-1.9-.4c-.5-.3-1-.6-1.3-1-.3-.4-.6-.9-.8-1.5-.2-.6-.3-1.2-.3-1.8v-.4c0-.6,0-1.2.3-1.8.2-.6.4-1.1.8-1.5.4-.4.8-.8,1.3-1,.5-.3,1.2-.4,1.9-.4s1.4.2,2,.5c.6.3,1,.7,1.3,1.2.3.5.5,1.1.5,1.8h-1.5c0-.4-.1-.7-.3-1.1-.2-.3-.4-.6-.8-.8-.3-.2-.7-.3-1.1-.3s-.9.1-1.3.3c-.3.2-.6.5-.8.8-.2.3-.3.7-.4,1.1,0,.4-.1.8-.1,1.2v.4c0,.4,0,.8.1,1.2,0,.4.2.8.4,1.1.2.3.5.6.8.8.3.2.8.3,1.3.3ZM374.5,285.1v1.2h-5.1v-1.2h5.1ZM371.1,282.8h1.6v9.5c0,.3,0,.6.1.7.1.2.2.3.4.3.2,0,.3,0,.5,0s.3,0,.4,0c.2,0,.3,0,.3,0v1.3c-.1,0-.3,0-.5.1-.2,0-.5,0-.7,0s-.8,0-1.1-.2c-.3-.2-.6-.4-.8-.8-.2-.4-.3-.9-.3-1.5v-9.5ZM378.1,285.1v9.5h-1.6v-9.5h1.6ZM376.4,282.6c0-.3,0-.5.2-.7.2-.2.4-.3.7-.3s.5,0,.7.3c.2.2.3.4.3.7s0,.5-.3.6c-.2.2-.4.3-.7.3s-.6,0-.7-.3c-.2-.2-.2-.4-.2-.6ZM383.6,293.1l2.6-8h1.7l-3.4,9.5h-1.1l.2-1.5ZM381.5,285.1l2.7,8.1.2,1.4h-1.1l-3.4-9.5h1.7ZM393.3,294.8c-.7,0-1.3-.1-1.8-.3-.5-.2-1-.5-1.4-1-.4-.4-.7-.9-.9-1.5-.2-.6-.3-1.2-.3-1.8v-.4c0-.8.1-1.5.3-2.1.2-.6.5-1.1.9-1.5.4-.4.8-.7,1.3-1,.5-.2,1-.3,1.5-.3s1.3.1,1.8.4c.5.2.9.6,1.2,1,.3.4.6.9.7,1.5.2.6.2,1.2.2,1.8v.7h-7.1v-1.3h5.5c0-.5-.1-1-.3-1.4-.1-.4-.4-.7-.7-1-.3-.3-.8-.4-1.3-.4s-.7,0-1,.2c-.3.2-.6.4-.8.7-.2.3-.4.7-.5,1.1-.1.4-.2.9-.2,1.5v.4c0,.5,0,.9.2,1.3.1.4.3.7.6,1,.2.3.5.5.9.7.4.2.8.3,1.2.3s1.1-.1,1.5-.4c.4-.2.7-.5,1-.9l1,.8c-.2.3-.5.6-.8.9-.3.3-.7.5-1.2.7-.5.2-1,.3-1.6.3Z"/>
      </g>
    </g>
    <rect class="st1" x="150.5" y="377.6" width="144" height="36" rx="17.5" ry="17.5"/>
    <path class="st31" d="M174.7,395v.7c0,.9-.1,1.6-.3,2.3-.2.7-.5,1.3-.9,1.7-.4.5-.9.8-1.4,1.1-.6.2-1.2.4-1.9.4s-1.3-.1-1.9-.4c-.6-.2-1-.6-1.5-1.1-.4-.5-.7-1-.9-1.7s-.3-1.4-.3-2.3v-.7c0-.9.1-1.6.3-2.3.2-.7.5-1.3.9-1.7.4-.5.9-.8,1.4-1.1.6-.2,1.2-.4,1.9-.4s1.3.1,1.9.4c.6.2,1,.6,1.4,1.1.4.5.7,1,.9,1.7.2.7.3,1.4.3,2.3ZM173.2,395.8v-.7c0-.7,0-1.3-.2-1.8-.1-.5-.3-1-.6-1.3-.3-.4-.6-.6-1-.8-.4-.2-.8-.3-1.3-.3s-.9,0-1.3.3c-.4.2-.7.5-1,.8-.3.4-.5.8-.6,1.3-.1.5-.2,1.1-.2,1.8v.7c0,.7,0,1.3.2,1.8.1.5.4,1,.6,1.3.3.4.6.6,1,.8.4.2.8.3,1.3.3s.9,0,1.3-.3c.4-.2.7-.5,1-.8.3-.4.5-.8.6-1.3.1-.5.2-1.1.2-1.8ZM181.9,399.1v-6.5h1.5v8.5h-1.4v-2ZM182.2,397.4h.6c0,.5,0,1.1-.2,1.5-.1.5-.3.9-.6,1.2-.3.3-.6.6-1,.8-.4.2-.9.3-1.5.3s-.8,0-1.1-.2c-.3-.1-.6-.3-.9-.6s-.4-.6-.6-1c-.1-.4-.2-.9-.2-1.4v-5.5h1.4v5.5c0,.4,0,.7.1.9,0,.2.2.4.4.6.2.1.3.2.5.3.2,0,.4,0,.6,0,.6,0,1.1-.1,1.5-.4.4-.2.6-.6.8-1,.2-.4.2-.9.2-1.4ZM189.1,392.6v1.1h-4.6v-1.1h4.6ZM186.1,390.6h1.4v8.4c0,.3,0,.5.1.6,0,.1.2.2.3.3.1,0,.3,0,.5,0s.2,0,.4,0c.1,0,.2,0,.3,0v1.2c-.1,0-.3,0-.4.1-.2,0-.4,0-.7,0s-.7,0-1-.2c-.3-.1-.5-.4-.7-.7-.2-.3-.3-.8-.3-1.3v-8.4ZM192.4,389.1v12h-1.5v-12h1.5ZM196.2,392.6v8.5h-1.5v-8.5h1.5ZM194.7,390.4c0-.2,0-.4.2-.6.1-.2.4-.2.6-.2s.5,0,.6.2c.2.2.2.4.2.6s0,.4-.2.6c-.1.2-.4.2-.6.2s-.5,0-.6-.2c-.1-.2-.2-.4-.2-.6ZM200,394.4v6.6h-1.4v-8.5h1.4v1.8ZM199.7,396.5h-.6c0-.6,0-1.1.3-1.6.2-.5.4-.9.7-1.3.3-.4.7-.6,1.1-.8.4-.2.9-.3,1.4-.3s.8,0,1.1.2c.3.1.6.3.9.5.2.2.4.6.5,1,.1.4.2.9.2,1.4v5.5h-1.5v-5.6c0-.4,0-.8-.2-1.1-.1-.3-.3-.5-.6-.6-.2-.1-.6-.2-.9-.2s-.7,0-1,.2c-.3.2-.5.4-.8.6-.2.3-.4.6-.5.9-.1.3-.2.7-.2,1.1ZM210.9,401.3c-.6,0-1.1,0-1.6-.3-.5-.2-.9-.5-1.2-.9-.3-.4-.6-.8-.8-1.3-.2-.5-.3-1-.3-1.6v-.3c0-.7.1-1.3.3-1.8.2-.5.5-1,.8-1.4s.7-.7,1.2-.9c.4-.2.9-.3,1.4-.3s1.1.1,1.6.3c.4.2.8.5,1.1.9.3.4.5.8.6,1.3.1.5.2,1,.2,1.6v.6h-6.3v-1.2h4.9c0-.5,0-.8-.2-1.2-.1-.4-.3-.6-.6-.9-.3-.2-.7-.3-1.2-.3s-.6,0-.9.2c-.3.1-.5.3-.7.6-.2.3-.4.6-.5,1-.1.4-.2.8-.2,1.4v.3c0,.4,0,.8.2,1.1.1.3.3.7.5.9.2.3.5.5.8.6.3.2.7.2,1.1.2s.9-.1,1.3-.3.7-.5.9-.8l.9.7c-.2.3-.4.5-.7.8-.3.2-.6.5-1,.6-.4.2-.9.2-1.4.2ZM221.2,399.5v-10.4h1.5v12h-1.3v-1.6ZM215.5,397v-.2c0-.6,0-1.2.2-1.8.2-.5.4-1,.7-1.4.3-.4.6-.7,1.1-.9.4-.2.9-.3,1.4-.3s1,0,1.4.3c.4.2.7.5,1,.8.3.3.5.8.7,1.3.2.5.3,1.1.3,1.7v.7c0,.6-.2,1.2-.3,1.7-.2.5-.4.9-.7,1.3-.3.3-.6.6-1,.8-.4.2-.9.3-1.4.3s-.9-.1-1.4-.3c-.4-.2-.8-.5-1.1-.9-.3-.4-.5-.8-.7-1.4-.2-.5-.2-1.1-.2-1.7ZM217,396.8v.2c0,.4,0,.8.1,1.2,0,.4.2.7.4,1,.2.3.4.5.7.7.3.2.6.2,1,.2s.9-.1,1.2-.3c.3-.2.6-.5.8-.8.2-.3.3-.7.4-1.1v-1.9c0-.3-.2-.6-.3-.8-.1-.3-.3-.5-.5-.7-.2-.2-.4-.4-.7-.5-.3-.1-.6-.2-.9-.2s-.7,0-1,.2c-.3.2-.5.4-.7.7-.2.3-.3.6-.4,1,0,.4-.1.8-.1,1.2ZM237.9,389.7v11.4h-1.5l-5.7-8.8v8.8h-1.5v-11.4h1.5l5.8,8.8v-8.8h1.5ZM239.9,397v-.2c0-.6,0-1.2.3-1.7.2-.5.4-1,.8-1.4.3-.4.7-.7,1.2-.9.5-.2,1-.3,1.6-.3s1.1.1,1.6.3c.5.2.9.5,1.2.9.3.4.6.8.8,1.4.2.5.3,1.1.3,1.7v.2c0,.6,0,1.2-.3,1.7-.2.5-.4,1-.8,1.4-.3.4-.7.7-1.2.9-.5.2-1,.3-1.6.3s-1.1-.1-1.6-.3c-.5-.2-.9-.5-1.2-.9-.3-.4-.6-.8-.8-1.4-.2-.5-.3-1.1-.3-1.7ZM241.4,396.8v.2c0,.4,0,.8.1,1.2,0,.4.2.7.4,1,.2.3.5.5.8.7.3.2.7.2,1.1.2s.7,0,1-.2c.3-.2.6-.4.8-.7.2-.3.3-.6.4-1,.1-.4.2-.8.2-1.2v-.2c0-.4,0-.8-.2-1.2,0-.4-.2-.7-.5-1-.2-.3-.4-.5-.8-.7-.3-.2-.6-.2-1-.2s-.7,0-1,.2c-.3.2-.5.4-.8.7-.2.3-.3.6-.4,1,0,.4-.1.8-.1,1.2ZM250.9,394v7.1h-1.4v-8.5h1.4v1.3ZM253.5,392.6v1.3c-.1,0-.2,0-.4,0-.1,0-.2,0-.4,0-.3,0-.6,0-.9.2-.3.1-.5.2-.6.4s-.3.4-.4.7c0,.3-.2.5-.2.8l-.4.2c0-.5,0-1,.1-1.4.1-.4.3-.8.5-1.2.2-.3.5-.6.8-.8.3-.2.7-.3,1.2-.3s.2,0,.4,0c.1,0,.2,0,.3,0ZM256.3,394.3v6.8h-1.5v-8.5h1.4v1.7ZM256,396.5h-.7c0-.6,0-1.1.2-1.6.1-.5.4-.9.6-1.3.3-.4.6-.6,1.1-.8.4-.2.9-.3,1.5-.3s.8,0,1.1.2c.3.1.6.3.9.5.2.2.4.5.6.9.1.4.2.8.2,1.4v5.6h-1.4v-5.6c0-.4,0-.8-.2-1.1-.1-.3-.4-.5-.6-.6-.3-.1-.6-.2-1-.2s-.8,0-1.1.2c-.3.2-.5.4-.7.6s-.3.6-.4.9c0,.3-.1.7-.1,1.1ZM261.5,395.8l-1,.3c0-.5,0-.9.2-1.3.2-.4.4-.8.6-1.1.3-.3.6-.6,1.1-.8.4-.2.9-.3,1.4-.3s.9,0,1.2.2c.4.1.7.3.9.6.2.2.4.6.6.9.1.4.2.8.2,1.4v5.6h-1.5v-5.6c0-.5,0-.8-.2-1.1-.1-.3-.4-.5-.6-.6-.3-.1-.6-.2-1-.2s-.6,0-.8.2c-.2.1-.5.3-.6.5-.2.2-.3.4-.4.6,0,.2-.1.5-.1.8ZM273.9,399.7v-4.4c0-.3,0-.6-.2-.9-.1-.2-.3-.4-.6-.6-.3-.1-.6-.2-1-.2s-.7,0-1,.2c-.3.1-.5.3-.6.5-.2.2-.2.4-.2.7h-1.4c0-.3,0-.6.2-.9.2-.3.4-.6.7-.8.3-.2.7-.4,1.1-.6.4-.1.9-.2,1.4-.2s1.2.1,1.6.3c.5.2.8.5,1.1.9.3.4.4.9.4,1.6v3.9c0,.3,0,.6,0,.9,0,.3.1.6.2.8h0c0,.1-1.5.1-1.5.1,0-.2-.1-.4-.2-.7,0-.3,0-.5,0-.8ZM274.1,396v1s-1.4,0-1.4,0c-.4,0-.8,0-1.1.1-.3,0-.6.2-.8.3-.2.1-.4.3-.5.5-.1.2-.2.4-.2.7s0,.5.2.7c.1.2.3.4.5.5.2.1.5.2.9.2s.8,0,1.2-.3c.3-.2.6-.4.8-.7.2-.3.3-.5.3-.8l.6.7c0,.2-.1.5-.3.7-.2.3-.4.5-.6.8-.3.2-.6.4-1,.6-.4.2-.8.2-1.2.2s-1.1-.1-1.5-.3c-.4-.2-.8-.5-1-.9-.2-.4-.4-.8-.4-1.3s0-.9.3-1.2c.2-.3.4-.6.8-.9.3-.2.7-.4,1.2-.5.5-.1,1-.2,1.6-.2h1.7ZM279.2,389.1v12h-1.5v-12h1.5Z"/>
    <rect class="st12" x="150.5" y="435.6" width="144" height="36" rx="17.5" ry="17.5"/>
    <rect class="st1" x="150.5" y="435.6" width="144" height="36" rx="17.5" ry="17.5"/>
    <path class="st31" d="M179,453v.7c0,.9-.1,1.6-.3,2.3-.2.7-.5,1.3-.9,1.7s-.9.8-1.4,1.1c-.6.2-1.2.4-1.9.4s-1.3-.1-1.9-.4c-.6-.2-1-.6-1.5-1.1-.4-.5-.7-1-.9-1.7s-.3-1.4-.3-2.3v-.7c0-.9.1-1.6.3-2.3.2-.7.5-1.3.9-1.7.4-.5.9-.8,1.4-1.1.6-.2,1.2-.4,1.9-.4s1.3.1,1.9.4c.6.2,1,.6,1.4,1.1.4.5.7,1,.9,1.7.2.7.3,1.4.3,2.3ZM177.5,453.8v-.7c0-.7,0-1.3-.2-1.8-.1-.5-.3-1-.6-1.3-.3-.4-.6-.6-1-.8-.4-.2-.8-.3-1.3-.3s-.9,0-1.3.3c-.4.2-.7.5-1,.8-.3.4-.5.8-.6,1.3-.1.5-.2,1.1-.2,1.8v.7c0,.7,0,1.3.2,1.8.1.5.4,1,.6,1.3.3.4.6.6,1,.8.4.2.8.3,1.3.3s.9,0,1.3-.3c.4-.2.7-.5,1-.8.3-.4.5-.8.6-1.3.1-.5.2-1.1.2-1.8ZM186.2,457.1v-6.5h1.5v8.5h-1.4v-2ZM186.4,455.4h.6c0,.5,0,1.1-.2,1.5-.1.5-.3.9-.6,1.2-.3.3-.6.6-1,.8-.4.2-.9.3-1.5.3s-.8,0-1.1-.2c-.3-.1-.6-.3-.9-.6-.2-.2-.4-.6-.6-1-.1-.4-.2-.9-.2-1.4v-5.5h1.4v5.5c0,.4,0,.7.1.9,0,.2.2.4.4.6.2.1.3.2.5.3.2,0,.4,0,.6,0,.6,0,1.1-.1,1.5-.4.4-.2.6-.6.8-1,.2-.4.2-.9.2-1.4ZM193.4,450.6v1.1h-4.6v-1.1h4.6ZM190.3,448.6h1.4v8.4c0,.3,0,.5.1.6,0,.1.2.2.3.3.1,0,.3,0,.5,0s.2,0,.4,0c.1,0,.2,0,.3,0v1.2c-.1,0-.3,0-.4.1-.2,0-.4,0-.7,0s-.7,0-1-.2c-.3-.1-.5-.4-.7-.7-.2-.3-.3-.8-.3-1.3v-8.4ZM196.6,447.1v12h-1.5v-12h1.5ZM200.5,450.6v8.5h-1.5v-8.5h1.5ZM199,448.4c0-.2,0-.4.2-.6.1-.2.4-.2.6-.2s.5,0,.6.2c.2.2.2.4.2.6s0,.4-.2.6c-.1.2-.4.2-.6.2s-.5,0-.6-.2c-.1-.2-.2-.4-.2-.6ZM204.3,452.4v6.6h-1.4v-8.5h1.4v1.8ZM203.9,454.5h-.6c0-.6,0-1.1.3-1.6.2-.5.4-.9.7-1.3s.7-.6,1.1-.8c.4-.2.9-.3,1.4-.3s.8,0,1.1.2c.3.1.6.3.9.5.2.2.4.6.5,1,.1.4.2.9.2,1.4v5.5h-1.5v-5.6c0-.4,0-.8-.2-1.1-.1-.3-.3-.5-.6-.6-.2-.1-.6-.2-.9-.2s-.7,0-1,.2c-.3.2-.5.4-.8.6-.2.3-.4.6-.5.9-.1.3-.2.7-.2,1.1ZM215.2,459.3c-.6,0-1.1,0-1.6-.3-.5-.2-.9-.5-1.2-.9-.3-.4-.6-.8-.8-1.3-.2-.5-.3-1-.3-1.6v-.3c0-.7.1-1.3.3-1.8.2-.5.5-1,.8-1.4.3-.4.7-.7,1.2-.9.4-.2.9-.3,1.4-.3s1.1.1,1.6.3c.4.2.8.5,1.1.9.3.4.5.8.6,1.3.1.5.2,1,.2,1.6v.6h-6.3v-1.2h4.9c0-.5,0-.8-.2-1.2-.1-.4-.3-.6-.6-.9-.3-.2-.7-.3-1.2-.3s-.6,0-.9.2c-.3.1-.5.3-.7.6-.2.3-.4.6-.5,1-.1.4-.2.8-.2,1.4v.3c0,.4,0,.8.2,1.1.1.3.3.7.5.9.2.3.5.5.8.6.3.2.7.2,1.1.2s.9-.1,1.3-.3c.4-.2.7-.5.9-.8l.9.7c-.2.3-.4.5-.7.8-.3.2-.6.5-1,.6-.4.2-.9.2-1.4.2ZM225.5,457.5v-10.4h1.5v12h-1.3v-1.6ZM219.8,455v-.2c0-.6,0-1.2.2-1.8.2-.5.4-1,.7-1.4.3-.4.6-.7,1.1-.9.4-.2.9-.3,1.4-.3s1,0,1.4.3c.4.2.7.5,1,.8.3.3.5.8.7,1.3.2.5.3,1.1.3,1.7v.7c0,.6-.2,1.2-.3,1.7-.2.5-.4.9-.7,1.3-.3.3-.6.6-1,.8-.4.2-.9.3-1.4.3s-.9-.1-1.4-.3c-.4-.2-.8-.5-1.1-.9-.3-.4-.5-.8-.7-1.4-.2-.5-.2-1.1-.2-1.7ZM221.3,454.8v.2c0,.4,0,.8.1,1.2,0,.4.2.7.4,1,.2.3.4.5.7.7.3.2.6.2,1,.2s.9-.1,1.2-.3c.3-.2.6-.5.8-.8.2-.3.3-.7.4-1.1v-1.9c0-.3-.2-.6-.3-.8-.1-.3-.3-.5-.5-.7-.2-.2-.4-.4-.7-.5-.3-.1-.6-.2-.9-.2s-.7,0-1,.2c-.3.2-.5.4-.7.7-.2.3-.3.6-.4,1,0,.4-.1.8-.1,1.2ZM237.6,448.7l-3.8,10.4h-1.5l4.3-11.4h1v1ZM240.8,459.1l-3.8-10.4v-1s1,0,1,0l4.4,11.4h-1.5ZM240.6,454.9v1.2h-6.4v-1.2h6.4ZM247,458.1c.3,0,.7,0,1-.2.3-.1.5-.3.7-.6.2-.2.3-.5.3-.9h1.4c0,.5-.2,1-.5,1.4-.3.4-.7.8-1.2,1-.5.3-1.1.4-1.6.4s-1.2-.1-1.7-.3c-.5-.2-.9-.5-1.2-.9-.3-.4-.5-.8-.7-1.3-.2-.5-.2-1-.2-1.6v-.3c0-.6,0-1.1.2-1.6.2-.5.4-1,.7-1.4.3-.4.7-.7,1.2-.9.5-.2,1-.3,1.7-.3s1.2.1,1.7.4c.5.3.9.6,1.2,1.1.3.5.4,1,.5,1.6h-1.4c0-.3-.1-.7-.3-.9-.2-.3-.4-.5-.7-.7-.3-.2-.6-.3-1-.3s-.8,0-1.1.3c-.3.2-.5.4-.7.7-.2.3-.3.6-.4,1,0,.4-.1.7-.1,1.1v.3c0,.4,0,.7.1,1.1,0,.4.2.7.4,1,.2.3.4.5.7.7.3.2.7.3,1.1.3ZM255.5,450.6v1.1h-4.6v-1.1h4.6ZM252.5,448.6h1.4v8.4c0,.3,0,.5.1.6,0,.1.2.2.3.3.1,0,.3,0,.5,0s.2,0,.4,0c.1,0,.2,0,.3,0v1.2c-.1,0-.3,0-.4.1-.2,0-.4,0-.7,0s-.7,0-1-.2c-.3-.1-.5-.4-.7-.7-.2-.3-.3-.8-.3-1.3v-8.4ZM258.8,450.6v8.5h-1.5v-8.5h1.5ZM257.2,448.4c0-.2,0-.4.2-.6.1-.2.4-.2.6-.2s.5,0,.6.2c.2.2.2.4.2.6s0,.4-.2.6c-.1.2-.4.2-.6.2s-.5,0-.6-.2c-.1-.2-.2-.4-.2-.6ZM263.7,457.8l2.3-7.1h1.5l-3,8.5h-1l.2-1.3ZM261.7,450.6l2.4,7.2.2,1.3h-1l-3.1-8.5h1.5ZM272.2,459.3c-.6,0-1.1,0-1.6-.3-.5-.2-.9-.5-1.2-.9-.3-.4-.6-.8-.8-1.3-.2-.5-.3-1-.3-1.6v-.3c0-.7.1-1.3.3-1.8.2-.5.5-1,.8-1.4s.7-.7,1.2-.9c.4-.2.9-.3,1.4-.3s1.1.1,1.6.3c.4.2.8.5,1.1.9.3.4.5.8.6,1.3.1.5.2,1,.2,1.6v.6h-6.3v-1.2h4.9c0-.5,0-.8-.2-1.2-.1-.4-.3-.6-.6-.9-.3-.2-.7-.3-1.2-.3s-.6,0-.9.2c-.3.1-.5.3-.7.6-.2.3-.4.6-.5,1-.1.4-.2.8-.2,1.4v.3c0,.4,0,.8.2,1.1.1.3.3.7.5.9.2.3.5.5.8.6.3.2.7.2,1.1.2s.9-.1,1.3-.3.7-.5.9-.8l.9.7c-.2.3-.4.5-.7.8-.3.2-.6.5-1,.6-.4.2-.9.2-1.4.2Z"/>
    <path class="st3" d="M613.7,462.3l-7.5-7.8,7.5-7.8"/>
    <circle class="st17" cx="689.5" cy="394.6" r="25.5"/>
    <g class="st24">
      <path class="st5" d="M679.3,394.3h20.4M699.7,394.3l-9.2-9.2M699.7,394.3l-9.2,9.2"/>
    </g>
    <ellipse class="st29" cx="610" cy="394.6" rx="25" ry="25.5"/>
    <path class="st7" d="M620,394.1h-20M600,394.1l9-9M600,394.1l9,9"/>
    <g class="st8">
      <path class="st17" d="M687.7,460.8h2.7v-5.3h5.3v-2.7h-5.3v-5.3h-2.7v5.3h-5.3v2.7h5.3v5.3ZM689,467.4c-1.8,0-3.6-.4-5.2-1.1-1.6-.7-3-1.6-4.2-2.8-1.2-1.2-2.2-2.6-2.9-4.2-.7-1.6-1-3.4-1-5.2s.4-3.6,1-5.2c.7-1.6,1.7-3,2.9-4.2,1.2-1.2,2.6-2.1,4.2-2.8,1.6-.7,3.4-1.1,5.2-1.1s3.6.4,5.2,1.1c1.6.7,3,1.6,4.2,2.8,1.2,1.2,2.2,2.6,2.9,4.2.7,1.6,1,3.4,1,5.2s-.4,3.6-1,5.2c-.7,1.6-1.7,3-2.9,4.2-1.2,1.2-2.6,2.1-4.2,2.8-1.6.7-3.4,1.1-5.2,1.1Z"/>
    </g>
    <g class="st23">
      <path class="st17" d="M395.5,465.6c-1.4,0-2.7-.3-3.9-.8-1.2-.5-2.3-1.2-3.2-2.1-.9-.9-1.6-2-2.1-3.2-.5-1.2-.8-2.5-.8-3.9s.3-2.7.8-3.9c.5-1.2,1.2-2.3,2.1-3.2.9-.9,2-1.6,3.2-2.1,1.2-.5,2.5-.8,3.9-.8s2.7.3,3.9.8c1.2.5,2.3,1.2,3.2,2.1.9.9,1.6,2,2.1,3.2.5,1.2.8,2.5.8,3.9s-.3,2.7-.8,3.9c-.5,1.2-1.2,2.3-2.1,3.2-.9.9-2,1.6-3.2,2.1-1.2.5-2.5.8-3.9.8ZM395.5,463.6c2.2,0,4.1-.8,5.7-2.3,1.6-1.5,2.3-3.4,2.3-5.7s-.8-4.1-2.3-5.7c-1.5-1.6-3.4-2.3-5.7-2.3s-4.1.8-5.7,2.3c-1.6,1.5-2.3,3.4-2.3,5.7s.8,4.1,2.3,5.7c1.5,1.6,3.4,2.3,5.7,2.3Z"/>
    </g>
    <g class="st25">
      <path class="st17" d="M395.5,396.6c1.4,0,2.6-.5,3.5-1.5s1.5-2.2,1.5-3.5-.5-2.6-1.5-3.5c-1-1-2.2-1.5-3.5-1.5s-2.6.5-3.5,1.5c-1,1-1.5,2.2-1.5,3.5s.5,2.6,1.5,3.5c1,1,2.2,1.5,3.5,1.5ZM395.5,401.6c-1.4,0-2.7-.3-3.9-.8-1.2-.5-2.3-1.2-3.2-2.1-.9-.9-1.6-2-2.1-3.2-.5-1.2-.8-2.5-.8-3.9s.3-2.7.8-3.9c.5-1.2,1.2-2.3,2.1-3.2.9-.9,2-1.6,3.2-2.1,1.2-.5,2.5-.8,3.9-.8s2.7.3,3.9.8c1.2.5,2.3,1.2,3.2,2.1.9.9,1.6,2,2.1,3.2.5,1.2.8,2.5.8,3.9s-.3,2.7-.8,3.9c-.5,1.2-1.2,2.3-2.1,3.2-.9.9-2,1.6-3.2,2.1-1.2.5-2.5.8-3.9.8ZM395.5,399.6c2.2,0,4.1-.8,5.7-2.3,1.6-1.5,2.3-3.4,2.3-5.7s-.8-4.1-2.3-5.7c-1.5-1.6-3.4-2.3-5.7-2.3s-4.1.8-5.7,2.3c-1.6,1.5-2.3,3.4-2.3,5.7s.8,4.1,2.3,5.7c1.5,1.6,3.4,2.3,5.7,2.3Z"/>
    </g>
    <path class="st13" d="M481,402.8l-1.6-1.4c-1.8-1.6-3.3-3.1-4.5-4.3-1.2-1.2-2.1-2.3-2.8-3.2-.7-.9-1.2-1.8-1.5-2.6-.3-.8-.4-1.6-.4-2.4,0-1.7.6-3.1,1.7-4.3,1.1-1.1,2.6-1.7,4.3-1.7s1.8.2,2.7.6c.8.4,1.6,1,2.2,1.7.6-.7,1.3-1.3,2.2-1.7.8-.4,1.7-.6,2.7-.6,1.7,0,3.1.6,4.3,1.7,1.1,1.1,1.7,2.6,1.7,4.3s-.1,1.6-.4,2.4c-.3.8-.8,1.7-1.5,2.6-.7.9-1.7,2-2.8,3.2-1.2,1.2-2.7,2.6-4.5,4.3l-1.6,1.4ZM481,399.9c1.7-1.6,3.2-2.9,4.3-4,1.1-1.1,2-2.1,2.7-2.9.6-.8,1.1-1.6,1.4-2.2.3-.6.4-1.3.4-1.9,0-1.1-.4-2-1.1-2.7s-1.6-1.1-2.7-1.1-1.6.2-2.4.7c-.7.5-1.2,1.1-1.5,1.8h-2.1c-.3-.7-.8-1.3-1.5-1.8-.7-.5-1.5-.7-2.4-.7s-2,.4-2.7,1.1c-.7.7-1.1,1.6-1.1,2.7s.1,1.3.4,1.9c.3.6.7,1.4,1.4,2.2.7.8,1.5,1.8,2.7,2.9,1.1,1.1,2.5,2.4,4.3,4Z"/>
    <path class="st13" d="M481,465.8l-1.6-1.4c-1.8-1.6-3.3-3.1-4.5-4.3-1.2-1.2-2.1-2.3-2.8-3.2-.7-.9-1.2-1.8-1.5-2.6-.3-.8-.4-1.6-.4-2.4,0-1.7.6-3.1,1.7-4.3,1.1-1.1,2.6-1.7,4.3-1.7s1.8.2,2.7.6c.8.4,1.6,1,2.2,1.7.6-.7,1.3-1.3,2.2-1.7.8-.4,1.7-.6,2.7-.6,1.7,0,3.1.6,4.3,1.7,1.1,1.1,1.7,2.6,1.7,4.3s-.1,1.6-.4,2.4c-.3.8-.8,1.7-1.5,2.6-.7.9-1.7,2-2.8,3.2-1.2,1.2-2.7,2.6-4.5,4.3l-1.6,1.4Z"/>
    <line class="st2" x1="497" y1="141.8" x2="755" y2="141.8"/>
    <line class="st4" x1="497" y1="141.8" x2="496.4" y2="141.8"/>
    <ellipse class="st17" cx="502.6" cy="143.6" rx="9.6" ry="9.5"/>
    <line class="st2" x1="497" y1="243.8" x2="755" y2="243.8"/>
    <path class="st4" d="M495.9,244.9h196"/>
    <ellipse class="st17" cx="691.9" cy="244.9" rx="9.6" ry="9.5"/>
    <line class="st2" x1="497" y1="276.8" x2="755" y2="276.8"/>
    <line class="st4" x1="497" y1="276.8" x2="755" y2="276.8"/>
    <ellipse class="st17" cx="749.4" cy="278.6" rx="9.6" ry="9.5"/>
    <line class="st2" x1="497" y1="175.8" x2="755" y2="175.8"/>
    <line class="st4" x1="497" y1="175.8" x2="556.1" y2="175.8"/>
    <ellipse class="st17" cx="560.1" cy="177.6" rx="9.6" ry="9.5"/>
    <line class="st2" x1="497" y1="209.4" x2="755" y2="209.4"/>
    <line class="st4" x1="497" y1="209.4" x2="622.4" y2="209.4"/>
    <ellipse class="st17" cx="626.4" cy="211.1" rx="9.6" ry="10"/>
  </g>
  <g id="Layer_2">
    <g>
      <line class="st6" x1="229.1" y1="101.4" x2="229.1" y2="51.3"/>
      <polygon class="st17" points="232.8 98.6 229.1 100.2 225.4 98.6 229.1 107.4 232.8 98.6"/>
    </g>
    <text class="st18" transform="translate(177 25)"><tspan class="st16"><tspan x="0" y="0">Border Radius</tspan></tspan><tspan class="st27"><tspan x="43.3" y="16">18</tspan></tspan></text>
    <g>
      <line class="st6" x1="386.2" y1="101.4" x2="386.2" y2="51.3"/>
      <polygon class="st17" points="389.9 98.6 386.2 100.2 382.4 98.6 386.2 107.4 389.9 98.6"/>
    </g>
    <text class="st15" transform="translate(349.6 39.8)"><tspan x="0" y="0">#B2CEC9</tspan></text>
    <g>
      <line class="st6" x1="98.8" y1="101.4" x2="98.8" y2="51.3"/>
      <polygon class="st17" points="102.5 98.6 98.8 100.2 95.1 98.6 98.8 107.4 102.5 98.6"/>
    </g>
    <text class="st15" transform="translate(66.7 39.8)"><tspan x="0" y="0">#066051</tspan></text>
  </g>
</svg>