<?xml version="1.0" encoding="UTF-8"?>
<svg id="Layer_1" xmlns="http://www.w3.org/2000/svg" version="1.1" viewBox="0 0 1602 686.2">
  <!-- Generator: Adobe Illustrator 29.3.0, SVG Export Plug-In . SVG Version: 2.1.0 Build 146)  -->
  <defs>
    <style>
      .st0 {
        font-size: 19px;
      }

      .st0, .st1 {
        font-family: Helvetica, Helvetica;
      }

      .st2, .st3, .st4, .st5, .st6, .st7, .st8, .st9, .st10, .st11, .st12, .st13, .st14 {
        fill: none;
      }

      .st2, .st3, .st4, .st6, .st12, .st14 {
        stroke-width: 1.8px;
      }

      .st2, .st3, .st5, .st6 {
        stroke: #787878;
      }

      .st2, .st5, .st6, .st12, .st13, .st14 {
        stroke-linejoin: round;
      }

      .st4, .st9, .st10, .st12, .st13, .st14 {
        stroke: #05574a;
      }

      .st15 {
        fill: #05574a;
      }

      .st5, .st6, .st10, .st13, .st14 {
        stroke-linecap: round;
      }

      .st5, .st13 {
        stroke-width: 1.7px;
      }

      .st16, .st1 {
        isolation: isolate;
      }

      .st7 {
        stroke-width: 4px;
      }

      .st7, .st8, .st11 {
        stroke: #066051;
        stroke-miterlimit: 10;
      }

      .st8 {
        stroke-width: 3px;
      }

      .st17 {
        fill: #fff;
      }

      .st18, .st1 {
        fill: #066051;
      }

      .st9, .st10 {
        stroke-width: 3.2px;
      }

      .st1 {
        font-size: 26px;
      }

      .st11 {
        stroke-width: 2.2px;
      }

      .st19 {
        fill: #787878;
      }

      .st20 {
        font-family: Helvetica-Bold, Helvetica;
        font-size: 25px;
        font-weight: 700;
      }
    </style>
  </defs>
  <g id="Layer_11" data-name="Layer_1">
    <rect class="st17" x="20" y="224.8" width="464.3" height="94.5" rx="15" ry="15"/>
    <path class="st9" d="M251.6,276.1c3.5,0,6.4-2.8,6.4-6.4s-2.8-6.4-6.4-6.4-6.4,2.8-6.4,6.4,2.8,6.4,6.4,6.4Z"/>
    <path class="st9" d="M246.9,286.7h9.5c6.6,0,9.9,0,12.3-1.5,1.1-.7,1.9-1.5,2.6-2.6,1.5-2.4,1.5-5.6,1.5-12.2s0-9.8-1.5-12.2c-.7-1.1-1.5-1.9-2.6-2.6-1.5-1.1-3.4-1.4-6.4-1.5-1.4,0-2.6-1.1-2.8-2.4-.2-.9-.7-1.9-1.5-2.5s-1.8-.9-2.8-.9h-7c-2.1,0-3.9,1.4-4.4,3.4-.2,1.3-1.5,2.4-2.8,2.4-3,.1-4.8.5-6.4,1.5-1.1.7-1.9,1.5-2.6,2.6-1.7,2.4-1.7,5.6-1.7,12.2s0,9.8,1.5,12.2c.7,1.1,1.5,1.9,2.6,2.6,2.4,1.5,5.7,1.5,12.3,1.5h.2,0Z"/>
    <path class="st10" d="M266.5,263.3h-2.1"/>
    <path class="st19" d="M420,287.1h-2.7v-1.1h2.7c.5,0,.9,0,1.3-.2.4-.1.6-.4.7-.7.1-.2.2-.6.2-1.1s0-.7-.2-.9c-.1-.4-.4-.6-.7-.7-.4-.2-.7-.2-1.3-.2h-2.4v9h-1.3v-10h3.7c.7,0,1.4.1,1.9.4s.9.6,1.2,1.1.4.9.4,1.5-.1,1.2-.4,1.7c-.2.5-.7.8-1.2,1.1s-1.2.4-1.9.4v-.3ZM426.2,284.7v6.3h-1.3v-7.4h1.3v1.2h0ZM428.6,283.4v1.2h-.7c-.2,0-.6,0-.8.1-.2,0-.5.2-.6.4s-.2.4-.4.6c0,.2-.1.5-.1.7l-.4.2c0-.5,0-.8.1-1.3,0-.4.2-.7.5-1.1.2-.4.5-.6.7-.7s.6-.2,1.1-.2.2,0,.4,0h.2,0ZM429.3,287.3h0c0-.7,0-1.2.2-1.7.1-.5.4-.8.7-1.2.2-.4.7-.6,1.1-.8.5-.2.9-.2,1.4-.2s.9,0,1.4.2.8.5,1.1.8c.4.4.5.7.7,1.2.1.5.2.9.2,1.5h0c0,.7,0,1.2-.2,1.7-.1.5-.4.8-.7,1.2-.2.4-.7.6-1.1.8-.5.2-.9.2-1.4.2s-.9,0-1.4-.2-.8-.5-1.1-.8c-.2-.4-.5-.7-.7-1.2-.1-.5-.2-.9-.2-1.5ZM430.6,287.2h0c0,.6,0,.9.1,1.2,0,.4.2.6.4.8s.4.5.7.6c.2.1.6.2.9.2s.7,0,.9-.2c.2-.1.5-.4.7-.6.1-.2.4-.6.4-.8,0-.4.1-.7.1-1.1h0c0-.5,0-.8-.1-1.2,0-.4-.2-.6-.4-.8-.1-.2-.4-.5-.7-.6-.2-.1-.6-.2-.9-.2s-.7,0-.9.2c-.2.1-.5.4-.7.6-.1.2-.4.6-.4.8,0,.4-.1.7-.1,1.1ZM439.5,291h-1.3v-8.2c0-.6,0-1.1.4-1.4.2-.4.6-.7.9-.9s.9-.4,1.4-.4.7,0,.9.1c.4,0,.6.2.9.4l-.2,1.1c-.2,0-.5-.1-.7-.2h-.9c-.6,0-.9.1-1.2.4s-.4.6-.4,1.1v8.2h.1v-.2ZM441,283.5v.9h-4v-.9h4ZM443.5,283.5v7.4h-1.3v-7.4h1.3ZM447,280.4v10.6h-1.3v-10.6h1.3ZM452.1,291.1c-.5,0-.9,0-1.4-.2s-.8-.5-1.1-.7c-.4-.4-.5-.7-.7-1.2-.1-.5-.2-.9-.2-1.4v-.2c0-.6,0-1.2.2-1.7s.5-.9.7-1.2c.4-.4.7-.6,1.1-.7s.8-.2,1.2-.2.9,0,1.4.2c.4.2.7.5.9.8.2.4.5.7.6,1.2s.2.9.2,1.4v.6h-5.6v-1.1h4.4c0-.5,0-.7-.2-1.1,0-.4-.4-.6-.6-.8s-.6-.4-1.1-.4-.6,0-.8.2c-.2.1-.5.4-.6.6s-.4.6-.4.8-.1.7-.1,1.2v.2c0,.4,0,.7.1.9,0,.4.2.6.5.8.2.2.5.5.7.6s.6.2.9.2.8,0,1.2-.2.6-.5.8-.7l.8.6c-.1.2-.4.5-.6.7s-.6.4-.9.6c-.4.1-.8.2-1.3.2l-.2-.2v.2Z"/>
    <path class="st2" d="M425.3,270.8c0-1.3.5-2.6,1.4-3.5s2.2-1.4,3.5-1.4h10c1.3,0,2.6.5,3.5,1.4s1.4,2.2,1.4,3.5-.2,1.3-.7,1.8-1.1.7-1.8.7h-15.1c-.7,0-1.3-.2-1.8-.7s-.7-1.1-.7-1.8h.3Z"/>
    <path class="st3" d="M435.3,260.7c2.1,0,3.8-1.7,3.8-3.8s-1.7-3.8-3.8-3.8-3.8,1.7-3.8,3.8,1.7,3.8,3.8,3.8Z"/>
    <path class="st19" d="M315.9,287.9l2-7.1h.9l-.6,2.7-2.1,7.3h-.9l.7-3.1h0v.2ZM313.9,280.9l1.5,6.9.5,3.2h-.9l-2.5-10h1.4ZM321.4,287.8l1.5-6.9h1.3l-2.5,10h-.9l.5-3.2h.1ZM319.1,280.9l1.9,7.1.7,3.1h-.9l-2.1-7.3-.6-2.7h1.1v-.2ZM329.8,289.7v-3.9c0-.2,0-.6-.2-.7,0-.2-.2-.4-.5-.5s-.5-.2-.8-.2-.6,0-.8.1c-.2,0-.5.2-.6.5s-.2.4-.2.6h-1.3c0-.2,0-.6.2-.8.1-.2.4-.5.6-.7s.6-.4.9-.5c.4-.1.8-.2,1.2-.2s1.1,0,1.4.2c.5.2.7.5.9.8.2.4.4.8.4,1.4v4.4c0,.2,0,.5.2.7h-1.3c0-.1,0-.4-.1-.6v-.7h0ZM330.1,286.5v.9h-2.2c-.2,0-.5.1-.7.2-.2,0-.4.2-.5.5,0,.1-.1.4-.1.6s0,.5.1.6c0,.2.2.4.5.5.2,0,.5.1.8.1s.7,0,1.1-.2.6-.4.7-.6c.2-.2.2-.5.2-.7l.6.6c0,.2-.1.4-.2.6s-.4.5-.6.7-.5.4-.8.6c-.4.1-.7.2-1.1.2s-.9,0-1.3-.4c-.4-.2-.7-.5-.9-.8-.2-.4-.4-.7-.4-1.2s0-.7.2-1.1c.1-.4.4-.6.7-.8.2-.2.7-.4,1.1-.5.5,0,.8-.1,1.4-.1h1.5v.2h-.1ZM334.4,284.7v6.3h-1.3v-7.4h1.3v1.2h0ZM336.8,283.4v1.2h-.7c-.2,0-.6,0-.8.1-.2,0-.5.2-.6.4s-.2.4-.4.6c0,.2-.1.5-.1.7l-.4.2c0-.5,0-.8.1-1.3,0-.4.2-.7.5-1.1.2-.4.5-.6.7-.7s.6-.2,1.1-.2.2,0,.4,0h.2,0ZM342.6,289.6v-9.2h1.3v10.6h-1.2v-1.4h-.1,0ZM337.5,287.3h0c0-.7,0-1.2.2-1.7.1-.5.4-.8.6-1.2s.6-.6.9-.8.8-.2,1.2-.2.8,0,1.2.2c.4.1.7.4.9.7.2.4.5.7.6,1.2s.2.9.4,1.5v.6c0,.6-.1,1.1-.4,1.5-.1.5-.4.8-.6,1.2s-.6.6-.9.7-.8.2-1.3.2-.8,0-1.2-.2-.7-.5-.9-.8c-.2-.4-.5-.7-.6-1.2s-.2-.9-.2-1.5v-.2h0ZM338.8,287.2h0v1.2c0,.4.2.6.4.8.1.2.4.5.6.6s.6.2.9.2.8,0,1.1-.2l.7-.7c.1-.2.2-.6.4-.9v-1.7c0-.2-.1-.5-.2-.7,0-.2-.2-.5-.4-.6-.1-.2-.4-.4-.6-.5-.2,0-.5-.1-.8-.1s-.7,0-.9.2c-.2.1-.5.4-.6.6s-.2.6-.4.8v1.1h-.2ZM347.1,284.7v6.3h-1.3v-7.4h1.3v1.2h0ZM349.4,283.4v1.2h-.7c-.2,0-.6,0-.8.1-.2,0-.5.2-.6.4s-.2.4-.4.6c0,.2-.1.5-.1.7l-.4.2c0-.5,0-.8.1-1.3,0-.4.2-.7.5-1.1.2-.4.5-.6.7-.7s.6-.2,1.1-.2.2,0,.4,0h.2,0ZM350.1,287.3h0c0-.7,0-1.2.2-1.7.1-.5.4-.8.7-1.2.2-.4.7-.6,1.1-.8.5-.2.9-.2,1.4-.2s.9,0,1.4.2.8.5,1.1.8c.4.4.5.7.7,1.2.1.5.2.9.2,1.5h0c0,.7,0,1.2-.2,1.7-.1.5-.4.8-.7,1.2-.2.4-.7.6-1.1.8-.5.2-.9.2-1.4.2s-.9,0-1.4-.2-.8-.5-1.1-.8c-.2-.4-.5-.7-.7-1.2-.1-.5-.2-.9-.2-1.5ZM351.4,287.2h0c0,.6,0,.9.1,1.2,0,.4.2.6.4.8s.4.5.7.6c.2.1.6.2.9.2s.7,0,.9-.2c.2-.1.5-.4.7-.6.1-.2.4-.6.4-.8,0-.4.1-.7.1-1.1h0c0-.5,0-.8-.1-1.2,0-.4-.2-.6-.4-.8-.1-.2-.4-.5-.7-.6-.2-.1-.6-.2-.9-.2s-.7,0-.9.2c-.2.1-.5.4-.7.6-.1.2-.4.6-.4.8,0,.4-.1.7-.1,1.1ZM358.5,280.4h1.3v10.6h-1.3v-10.6ZM364.9,287.2h0c0,.7,0,1.2-.2,1.7-.1.5-.4.8-.6,1.2s-.6.6-.9.8-.8.2-1.2.2-.9,0-1.3-.2c-.4-.1-.7-.4-.9-.7-.2-.4-.5-.7-.6-1.2s-.2-.9-.4-1.5v-.6c0-.6.1-1.1.4-1.5.1-.5.4-.8.6-1.2s.6-.6.9-.7.8-.2,1.2-.2.9,0,1.3.2.7.5.9.8c.2.4.5.7.6,1.2s.2.9.2,1.5v.2h0ZM363.6,287.3h0v-1.2c0-.4-.2-.6-.4-.8-.1-.2-.4-.5-.6-.6s-.6-.2-.9-.2-.6,0-.8.1c-.2,0-.5.2-.6.5s-.4.4-.4.6-.1.5-.2.7v1.7c0,.4.2.6.4.9.1.2.4.6.7.7.2.2.6.2,1.1.2s.6,0,.9-.2c.2-.1.5-.4.6-.6s.2-.6.4-.8v-1.1h-.2ZM369.6,291.1c-.5,0-.9,0-1.4-.2s-.8-.5-1.1-.7c-.4-.4-.5-.7-.7-1.2-.1-.5-.2-.9-.2-1.4v-.2c0-.6,0-1.2.2-1.7s.5-.9.7-1.2c.4-.4.7-.6,1.1-.7s.8-.2,1.2-.2.9,0,1.4.2c.4.2.7.5.9.8.2.4.5.7.6,1.2s.2.9.2,1.4v.6h-5.6v-1.1h4.3c0-.5,0-.7-.2-1.1,0-.4-.4-.6-.6-.8s-.6-.4-1.1-.4-.6,0-.8.2c-.2.1-.5.4-.6.6s-.4.6-.4.8-.1.7-.1,1.2v.2c0,.4,0,.7.1.9,0,.4.2.6.5.8.2.2.5.5.7.6s.6.2.9.2.8,0,1.2-.2.6-.5.8-.7l.8.6c-.1.2-.4.5-.6.7s-.6.4-.9.6c-.4.1-.8.2-1.3.2v-.2.2Z"/>
    <path class="st5" d="M336.6,272.2v2.2M349.9,272.2v2.2M343.2,272.2v-20.2M339.9,261v1.1M346.6,261v1.1M333.1,265.5v-6.7c0-3.2,0-4.7,1.1-5.8,1.1-.9,2.7-.9,6.1-.9h5.9c3.3,0,5.1,0,6.1.9,1.1.9,1.1,2.6,1.1,5.8v6.7c0,3.2,0,4.7-1.1,5.8-1.1.9-2.7.9-6.1.9h-5.9c-3.3,0-5.1,0-6.1-.9-1.1-.9-1.1-2.6-1.1-5.8Z"/>
    <path class="st19" d="M142.5,288.4v-.6c0-.2-.2-.4-.4-.5-.1-.1-.5-.2-.7-.5-.4-.1-.7-.2-1.2-.4s-.9-.4-1.3-.5c-.4-.2-.7-.4-1.1-.6-.2-.2-.5-.5-.7-.8-.1-.4-.2-.7-.2-1.1s0-.7.2-1.1c.1-.4.4-.6.7-.8s.7-.5,1.1-.6c.5-.1.9-.2,1.4-.2s1.4.1,1.9.5c.5.2.9.7,1.2,1.2s.5.9.5,1.5h-1.3c0-.4,0-.7-.2-.9-.1-.2-.4-.5-.7-.7-.4-.1-.7-.2-1.3-.2s-.8,0-1.2.2-.6.4-.7.6-.2.5-.2.8,0,.4.1.6c0,.1.2.4.5.5.2.1.5.2.7.4.4.1.7.2,1.1.4.6.1,1.1.4,1.5.6.5.2.7.5,1.1.7.2.2.5.5.6.8s.2.7.2,1.1,0,.8-.2,1.1c-.1.4-.4.6-.7.8s-.7.5-1.1.6c-.5.1-.9.2-1.4.2s-.9,0-1.4-.2c-.5-.1-.8-.4-1.2-.6s-.7-.6-.8-.9c-.2-.4-.4-.8-.4-1.3h1.3c0,.4,0,.6.2.9.1.2.4.5.6.6s.5.2.8.4h.9c.5,0,.8,0,1.2-.2.4-.1.6-.4.7-.6s.2-.5.2-.8l-.4-.2v-.2ZM150,289.2v-5.8h1.3v7.4h-1.2v-1.8h-.1v.2ZM150.2,287.7h.6c0,.5,0,.9-.1,1.4,0,.5-.2.8-.5,1.1-.2.4-.6.6-.9.7s-.8.2-1.4.2-.7,0-.9-.1c-.4,0-.6-.2-.8-.5s-.4-.5-.5-.8c0-.4-.1-.8-.1-1.3v-4.8h1.3v5.7c0,.2.2.4.4.5.1.1.2.2.5.2h.5c.6,0,.9,0,1.3-.4.4-.2.6-.5.7-.8s.2-.7.2-1.2h-.3ZM158,283.5h1.2v7.3c0,.7-.1,1.2-.4,1.7-.2.5-.6.8-1.1,1.1s-1.1.4-1.7.4-.6,0-.9-.1c-.4,0-.7-.2-1.1-.4-.4-.2-.6-.5-.8-.8l.7-.7c.4.4.6.6.9.8.4.1.7.2,1.1.2s.7,0,1.1-.2c.2-.1.5-.4.7-.7.1-.2.2-.7.2-1.1v-7.4h.1ZM152.9,287.3h0c0-.7,0-1.2.2-1.7.1-.5.4-.8.6-1.2s.6-.6.9-.8.8-.2,1.2-.2.8,0,1.2.2c.4.1.7.4.9.7.2.4.5.7.6,1.2s.2.9.4,1.5v.6c0,.6-.1,1.1-.4,1.5-.1.5-.4.8-.6,1.2s-.6.6-.9.7-.8.2-1.3.2-.8,0-1.2-.2-.7-.5-.9-.8-.5-.7-.6-1.2-.2-.9-.2-1.5v-.2h.1ZM154.1,287.2h0v1.2c0,.4.2.6.4.8s.4.5.6.6.6.2.9.2.8,0,1.1-.2c.2-.2.5-.5.7-.7.1-.2.2-.6.4-.9v-1.7c0-.2-.1-.5-.2-.7,0-.2-.2-.5-.4-.6-.1-.2-.4-.4-.6-.5-.2,0-.5-.1-.8-.1s-.7,0-.9.2c-.2.1-.5.4-.6.6s-.2.6-.4.8v1.1h-.2ZM166.1,283.5h1.2v7.3c0,.7-.1,1.2-.4,1.7-.2.5-.6.8-1.1,1.1s-1.1.4-1.7.4-.6,0-.9-.1c-.4,0-.7-.2-1.1-.4-.4-.2-.6-.5-.8-.8l.7-.7c.4.4.6.6.9.8.4.1.7.2,1.1.2s.7,0,1.1-.2.5-.4.7-.7c.1-.2.2-.7.2-1.1v-7.4h.1ZM160.9,287.3h0c0-.7,0-1.2.2-1.7.1-.5.4-.8.6-1.2s.6-.6.9-.8.8-.2,1.2-.2.8,0,1.2.2c.4.1.7.4.9.7.2.4.5.7.6,1.2s.2.9.4,1.5v.6c0,.6-.1,1.1-.4,1.5-.1.5-.4.8-.6,1.2s-.6.6-.9.7-.8.2-1.3.2-.8,0-1.2-.2-.7-.5-.9-.8-.5-.7-.6-1.2-.2-.9-.2-1.5v-.2h.1ZM162.2,287.2h0v1.2c0,.4.2.6.4.8.1.2.4.5.6.6s.6.2.9.2.8,0,1.1-.2c.2-.2.5-.5.7-.7.1-.2.2-.6.4-.9v-1.7c0-.2-.1-.5-.2-.7,0-.2-.2-.5-.4-.6-.1-.2-.4-.4-.6-.5-.2,0-.5-.1-.8-.1s-.7,0-.9.2c-.2.1-.5.4-.6.6s-.2.6-.4.8v1.1h-.2ZM172.2,291.1c-.5,0-.9,0-1.4-.2s-.8-.5-1.1-.7c-.4-.4-.5-.7-.7-1.2s-.2-.9-.2-1.4v-.2c0-.6,0-1.2.2-1.7s.5-.9.7-1.2c.4-.4.7-.6,1.1-.7s.8-.2,1.2-.2.9,0,1.4.2c.4.2.7.5.9.8.2.4.5.7.6,1.2s.2.9.2,1.4v.6h-5.6v-1.1h4.3c0-.5,0-.7-.2-1.1,0-.4-.4-.6-.6-.8s-.6-.4-1.1-.4-.6,0-.8.2c-.2.1-.5.4-.6.6s-.4.6-.4.8-.1.7-.1,1.2v.2c0,.4,0,.7.1.9,0,.4.2.6.5.8.2.2.5.5.7.6s.6.2.9.2.8,0,1.2-.2.6-.5.8-.7l.8.6c-.1.2-.4.5-.6.7-.2.2-.6.4-.9.6-.4.1-.8.2-1.3.2v-.2.2ZM180.9,289c0-.2,0-.4-.1-.5,0-.1-.2-.4-.5-.5s-.6-.2-1.1-.4c-.5,0-.8-.2-1.2-.4s-.6-.2-.8-.5c-.2-.1-.4-.4-.6-.6-.1-.2-.2-.5-.2-.8s0-.6.2-.8c.1-.2.4-.5.6-.7.2-.2.6-.4.8-.5.4,0,.7-.1,1.2-.1s1.1,0,1.5.4c.5.2.7.5.9.8.2.4.4.7.4,1.2h-1.3c0-.2,0-.4-.2-.6-.1-.2-.4-.4-.6-.5-.2-.1-.5-.2-.8-.2s-.6,0-.8.1c-.2,0-.4.2-.5.4,0,.1-.1.4-.1.5v.4l.2.4c.1,0,.4.1.5.2.2,0,.5.1.8.2.6.1,1.1.4,1.5.5.4.2.7.5.9.7s.2.6.2,1.1,0,.6-.2.9c-.1.2-.4.5-.6.7-.2.2-.6.4-.9.5-.4,0-.7.1-1.2.1s-1.2,0-1.7-.4c-.5-.2-.8-.6-1.1-.9s-.4-.7-.4-1.2h1.3c0,.4.1.6.4.8.2.2.4.4.7.5.2,0,.6.1.8.1s.6,0,.8-.1c.2,0,.5-.2.6-.4s.2-.4.2-.6h.1l.3.2ZM187.1,283.5v.9h-4v-.9h4ZM184.4,281.7h1.3v8c0,.1.2.2.4.2h.9v1.1h-.9c-.2,0-.6,0-.8-.2-.2-.1-.5-.4-.6-.6s-.2-.7-.2-1.2v-7.4h0Z"/>
    <path class="st3" d="M153.5,255c0-.1,0-.4.1-.5,0,0,.2-.1.5-.1h16.5c.1,0,.4,0,.5.1,0,0,.1.2.1.5v13.8s0,.1-.1.2c0,0-.1,0-.2.1h-4.6s-.1,0-.2.1l-3.3,3.5s-.1,0-.2.1h-.5s-.1,0-.2-.1l-3.3-3.5s-.1,0-.2-.1h-4.4c-.1,0-.4,0-.5-.1,0,0-.1-.2-.1-.5v-13.6h.2-.1Z"/>
    <path class="st6" d="M162.4,258.3l1.4,2.5,2.5,1.4-2.5,1.4-1.4,2.5-1.4-2.5-2.5-1.4,2.5-1.4,1.4-2.5Z"/>
    <path class="st15" d="M56.5,285.2v1.1h-5.4v-1.1h5.4ZM51.3,280.9v10h-1.3v-10h1.3ZM57.7,280.9v10h-1.3v-10h1.3ZM59.6,287.3h0c0-.7,0-1.2.2-1.7,0-.5.4-.8.7-1.2.2-.4.7-.6,1.1-.8.5-.2.9-.2,1.4-.2s.9,0,1.4.2.8.5,1.1.8c.4.4.5.7.7,1.2,0,.5.2.9.2,1.5h0c0,.7,0,1.2-.2,1.7,0,.5-.4.8-.7,1.2-.2.4-.7.6-1.1.8-.5.2-.9.2-1.4.2s-.9,0-1.4-.2-.8-.5-1.1-.8-.5-.7-.7-1.2c0-.5-.2-.9-.2-1.5ZM60.8,287.2h0c0,.6,0,.9,0,1.2,0,.4.2.6.4.8.2.2.4.5.7.6.2.1.6.2.9.2s.7,0,.9-.2c.2-.1.5-.4.7-.6,0-.2.4-.6.4-.8,0-.4,0-.7,0-1.1h0c0-.5,0-.8,0-1.2,0-.4-.2-.6-.4-.8s-.4-.5-.7-.6c-.2-.1-.6-.2-.9-.2s-.7,0-.9.2c-.2.1-.5.4-.7.6,0,.2-.4.6-.4.8,0,.4,0,.7,0,1.1ZM69.3,285v6h-1.3v-7.4h1.2v1.5h.1ZM68.9,287h-.6c0-.6,0-1.1.2-1.4,0-.5.4-.8.6-1.2s.6-.6.9-.7c.4-.2.8-.2,1.3-.2s.7,0,.9.1c.2,0,.6.2.7.5.2.2.4.5.5.8,0,.4.2.7.2,1.2v5h-1.3v-5c0-.4,0-.7-.2-.9,0-.2-.4-.4-.6-.5-.2,0-.5-.1-.8-.1s-.7,0-.9.2c-.2.1-.5.4-.6.6s-.2.5-.4.8v.9h.1ZM73.9,286.3l-.8.2c0-.4,0-.8.2-1.2,0-.4.4-.7.6-1.1.2-.2.6-.5.9-.7.4-.1.8-.2,1.3-.2s.7,0,1.1.1c.4,0,.6.2.8.5s.4.5.5.8c0,.4,0,.7,0,1.2v5h-1.3v-5c0-.5,0-.7-.2-.9,0-.2-.4-.4-.6-.5-.2,0-.5-.1-.8-.1s-.5,0-.7.1c-.2,0-.4.2-.6.4,0,.1-.2.4-.4.6v.7h0ZM83.5,291.1c-.5,0-.9,0-1.4-.2s-.8-.5-1.1-.7c-.4-.4-.5-.7-.7-1.2,0-.5-.2-.9-.2-1.4v-.2c0-.6,0-1.2.2-1.7s.5-.9.7-1.2c.4-.4.7-.6,1.1-.7s.8-.2,1.2-.2.9,0,1.4.2c.4.2.7.5.9.8s.5.7.6,1.2.2.9.2,1.4v.6h-5.6v-1.1h4.3c0-.5,0-.7-.2-1.1,0-.4-.4-.6-.6-.8s-.6-.4-1.1-.4-.6,0-.8.2c-.2.1-.5.4-.6.6s-.4.6-.4.8,0,.7,0,1.2v.2c0,.4,0,.7,0,.9,0,.4.2.6.5.8s.5.5.7.6.6.2.9.2.8,0,1.2-.2.6-.5.8-.7l.8.6c0,.2-.4.5-.6.7s-.6.4-.9.6c-.4.1-.8.2-1.3.2v-.2.2Z"/>
    <path class="st13" d="M61.4,273.3c-1.3,0-2.4-1.1-2.4-2.5v-9.8c0-.7.4-1.4.9-1.9l6.5-5.4c.5-.4.9-.6,1.5-.6s1.1.2,1.5.6l6.5,5.4c.6.5.9,1.2.9,1.9v9.8c0,1.3-1.1,2.5-2.4,2.5h-13.2.2Z"/>
    <path class="st13" d="M65.2,273.3v-6.1c0-.6.2-1.2.7-1.5.5-.5.9-.7,1.5-.7h1.1c.6,0,1.2.2,1.5.7.5.5.7.9.7,1.5v6.1"/>
    <rect class="st17" x="578.9" y="224.8" width="464.3" height="94.5" rx="15" ry="15"/>
    <path class="st19" d="M978.8,287.1h-2.7v-1.1h2.7c.5,0,.9,0,1.3-.2.4-.1.6-.4.7-.7,0-.2.2-.6.2-1.1s0-.7-.2-.9c0-.4-.4-.6-.7-.7-.4-.2-.7-.2-1.3-.2h-2.4v9h-1.3v-10h3.7c.7,0,1.4.1,1.9.4.5.2.9.6,1.2,1.1s.4.9.4,1.5,0,1.2-.4,1.7-.7.8-1.2,1.1-1.2.4-1.9.4v-.3ZM985.1,284.7v6.3h-1.3v-7.4h1.3v1.2h0ZM987.4,283.4v1.2h-.7c-.2,0-.6,0-.8.1-.2,0-.5.2-.6.4s-.2.4-.4.6c0,.2,0,.5,0,.7l-.4.2c0-.5,0-.8,0-1.3,0-.4.2-.7.5-1.1.2-.4.5-.6.7-.7s.6-.2,1.1-.2.2,0,.4,0h.2ZM988.2,287.3h0c0-.7,0-1.2.2-1.7,0-.5.4-.8.7-1.2.2-.4.7-.6,1.1-.8.5-.2.9-.2,1.4-.2s.9,0,1.4.2.8.5,1.1.8c.4.4.5.7.7,1.2,0,.5.2.9.2,1.5h0c0,.7,0,1.2-.2,1.7,0,.5-.4.8-.7,1.2-.2.4-.7.6-1.1.8-.5.2-.9.2-1.4.2s-.9,0-1.4-.2-.8-.5-1.1-.8-.5-.7-.7-1.2c0-.5-.2-.9-.2-1.5ZM989.4,287.2h0c0,.6,0,.9,0,1.2,0,.4.2.6.4.8.2.2.4.5.7.6.2.1.6.2.9.2s.7,0,.9-.2c.2-.1.5-.4.7-.6,0-.2.4-.6.4-.8,0-.4,0-.7,0-1.1h0c0-.5,0-.8,0-1.2,0-.4-.2-.6-.4-.8s-.4-.5-.7-.6c-.2-.1-.6-.2-.9-.2s-.7,0-.9.2c-.2.1-.5.4-.7.6,0,.2-.4.6-.4.8,0,.4,0,.7,0,1.1ZM998.3,291h-1.3v-8.2c0-.6,0-1.1.4-1.4.2-.4.6-.7.9-.9s.9-.4,1.4-.4.7,0,.9.1c.4,0,.6.2.9.4l-.2,1.1c-.2,0-.5-.1-.7-.2h-.9c-.6,0-.9.1-1.2.4s-.4.6-.4,1.1v8.2h0v-.2ZM999.8,283.5v.9h-4v-.9h4ZM1002.3,283.5v7.4h-1.3v-7.4h1.3ZM1005.9,280.4v10.6h-1.3v-10.6h1.3ZM1011,291.1c-.5,0-.9,0-1.4-.2s-.8-.5-1.1-.7c-.4-.4-.5-.7-.7-1.2,0-.5-.2-.9-.2-1.4v-.2c0-.6,0-1.2.2-1.7s.5-.9.7-1.2c.4-.4.7-.6,1.1-.7.4-.1.8-.2,1.2-.2s.9,0,1.4.2c.4.2.7.5.9.8s.5.7.6,1.2.2.9.2,1.4v.6h-5.6v-1.1h4.4c0-.5,0-.7-.2-1.1,0-.4-.4-.6-.6-.8s-.6-.4-1.1-.4-.6,0-.8.2c-.2.1-.5.4-.6.6s-.4.6-.4.8c0,.4,0,.7,0,1.2v.2c0,.4,0,.7,0,.9,0,.4.2.6.5.8s.5.5.7.6.6.2.9.2.8,0,1.2-.2.6-.5.8-.7l.8.6c0,.2-.4.5-.6.7-.2.2-.6.4-.9.6-.4.1-.8.2-1.3.2l-.2-.2v.2Z"/>
    <path class="st2" d="M984.1,270.8c0-1.3.5-2.6,1.4-3.5s2.2-1.4,3.5-1.4h10c1.3,0,2.6.5,3.5,1.4s1.4,2.2,1.4,3.5-.2,1.3-.7,1.8-1.1.7-1.8.7h-15.1c-.7,0-1.3-.2-1.8-.7s-.7-1.1-.7-1.8h.3Z"/>
    <path class="st3" d="M994.2,260.7c2.1,0,3.8-1.7,3.8-3.8s-1.7-3.8-3.8-3.8-3.8,1.7-3.8,3.8,1.7,3.8,3.8,3.8Z"/>
    <path class="st19" d="M874.7,287.9l2-7.1h.9l-.6,2.7-2.1,7.3h-.9l.7-3.1h0v.2ZM872.7,280.9l1.5,6.9.5,3.2h-.9l-2.5-10h1.4ZM880.3,287.8l1.5-6.9h1.3l-2.5,10h-.9l.5-3.2h.1ZM877.9,280.9l1.9,7.1.7,3.1h-.9l-2.1-7.3-.6-2.7h1.1v-.2ZM888.7,289.7v-3.9c0-.2,0-.6-.2-.7,0-.2-.2-.4-.5-.5-.2-.1-.5-.2-.8-.2s-.6,0-.8.1c-.2,0-.5.2-.6.5s-.2.4-.2.6h-1.3c0-.2,0-.6.2-.8,0-.2.4-.5.6-.7.2-.2.6-.4.9-.5.4-.1.8-.2,1.2-.2s1.1,0,1.4.2c.5.2.7.5.9.8s.4.8.4,1.4v4.4c0,.2,0,.5.2.7h-1.3c0-.1,0-.4,0-.6v-.7h0ZM888.9,286.5v.9h-2.2c-.2,0-.5.1-.7.2-.2,0-.4.2-.5.5,0,.1,0,.4,0,.6s0,.5,0,.6c0,.2.2.4.5.5.2,0,.5.1.8.1s.7,0,1.1-.2c.4-.1.6-.4.7-.6.2-.2.2-.5.2-.7l.6.6c0,.2,0,.4-.2.6,0,.2-.4.5-.6.7-.2.2-.5.4-.8.6-.4.1-.7.2-1.1.2s-.9,0-1.3-.4c-.4-.2-.7-.5-.9-.8s-.4-.7-.4-1.2,0-.7.2-1.1c0-.4.4-.6.7-.8.2-.2.7-.4,1.1-.5.5,0,.8-.1,1.4-.1h1.5v.2h0ZM893.3,284.7v6.3h-1.3v-7.4h1.3v1.2h0ZM895.6,283.4v1.2h-.7c-.2,0-.6,0-.8.1-.2,0-.5.2-.6.4s-.2.4-.4.6c0,.2,0,.5,0,.7l-.4.2c0-.5,0-.8,0-1.3,0-.4.2-.7.5-1.1.2-.4.5-.6.7-.7s.6-.2,1.1-.2.2,0,.4,0h.2ZM901.4,289.6v-9.2h1.3v10.6h-1.2v-1.4h0ZM896.3,287.3h0c0-.7,0-1.2.2-1.7,0-.5.4-.8.6-1.2s.6-.6.9-.8.8-.2,1.2-.2.8,0,1.2.2c.4.1.7.4.9.7s.5.7.6,1.2.2.9.4,1.5v.6c0,.6,0,1.1-.4,1.5,0,.5-.4.8-.6,1.2s-.6.6-.9.7-.8.2-1.3.2-.8,0-1.2-.2-.7-.5-.9-.8-.5-.7-.6-1.2-.2-.9-.2-1.5v-.2h0ZM897.6,287.2h0v1.2c0,.4.2.6.4.8s.4.5.6.6.6.2.9.2.8,0,1.1-.2.5-.5.7-.7c0-.2.2-.6.4-.9v-1.7c0-.2,0-.5-.2-.7,0-.2-.2-.5-.4-.6,0-.2-.4-.4-.6-.5-.2,0-.5-.1-.8-.1s-.7,0-.9.2c-.2.1-.5.4-.6.6s-.2.6-.4.8v1.1h-.2ZM905.9,284.7v6.3h-1.3v-7.4h1.3v1.2h0ZM908.3,283.4v1.2h-.7c-.2,0-.6,0-.8.1-.2,0-.5.2-.6.4s-.2.4-.4.6c0,.2,0,.5,0,.7l-.4.2c0-.5,0-.8,0-1.3,0-.4.2-.7.5-1.1.2-.4.5-.6.7-.7s.6-.2,1.1-.2.2,0,.4,0h.2ZM909,287.3h0c0-.7,0-1.2.2-1.7,0-.5.4-.8.7-1.2.2-.4.7-.6,1.1-.8.5-.2.9-.2,1.4-.2s.9,0,1.4.2.8.5,1.1.8c.4.4.5.7.7,1.2,0,.5.2.9.2,1.5h0c0,.7,0,1.2-.2,1.7,0,.5-.4.8-.7,1.2-.2.4-.7.6-1.1.8-.5.2-.9.2-1.4.2s-.9,0-1.4-.2-.8-.5-1.1-.8-.5-.7-.7-1.2c0-.5-.2-.9-.2-1.5ZM910.3,287.2h0c0,.6,0,.9,0,1.2,0,.4.2.6.4.8.2.2.4.5.7.6.2.1.6.2.9.2s.7,0,.9-.2c.2-.1.5-.4.7-.6s.4-.6.4-.8c0-.4,0-.7,0-1.1h0c0-.5,0-.8,0-1.2,0-.4-.2-.6-.4-.8s-.4-.5-.7-.6c-.2-.1-.6-.2-.9-.2s-.7,0-.9.2c-.2.1-.5.4-.7.6,0,.2-.4.6-.4.8,0,.4,0,.7,0,1.1ZM917.4,280.4h1.3v10.6h-1.3v-10.6ZM923.8,287.2h0c0,.7,0,1.2-.2,1.7,0,.5-.4.8-.6,1.2s-.6.6-.9.8-.8.2-1.2.2-.9,0-1.3-.2c-.4-.1-.7-.4-.9-.7s-.5-.7-.6-1.2-.2-.9-.4-1.5v-.6c0-.6,0-1.1.4-1.5,0-.5.4-.8.6-1.2s.6-.6.9-.7.8-.2,1.2-.2.9,0,1.3.2.7.5.9.8.5.7.6,1.2.2.9.2,1.5v.2h0ZM922.5,287.3h0v-1.2c0-.4-.2-.6-.4-.8s-.4-.5-.6-.6-.6-.2-.9-.2-.6,0-.8.1c-.2,0-.5.2-.6.5s-.4.4-.4.6-.2.5-.2.7v1.7c0,.4.2.6.4.9,0,.2.4.6.7.7.2.2.6.2,1.1.2s.6,0,.9-.2c.2-.1.5-.4.6-.6s.2-.6.4-.8v-1.1h-.2ZM928.5,291.1c-.5,0-.9,0-1.4-.2s-.8-.5-1.1-.7c-.4-.4-.5-.7-.7-1.2,0-.5-.2-.9-.2-1.4v-.2c0-.6,0-1.2.2-1.7s.5-.9.7-1.2c.4-.4.7-.6,1.1-.7.4-.1.8-.2,1.2-.2s.9,0,1.4.2c.4.2.7.5.9.8s.5.7.6,1.2.2.9.2,1.4v.6h-5.6v-1.1h4.4c0-.5,0-.7-.2-1.1,0-.4-.4-.6-.6-.8s-.6-.4-1.1-.4-.6,0-.8.2c-.2.1-.5.4-.6.6s-.4.6-.4.8c0,.4,0,.7,0,1.2v.2c0,.4,0,.7,0,.9,0,.4.2.6.5.8s.5.5.7.6.6.2.9.2.8,0,1.2-.2.6-.5.8-.7l.8.6c0,.2-.4.5-.6.7-.2.2-.6.4-.9.6-.4.1-.8.2-1.3.2l-.2-.2v.2Z"/>
    <path class="st5" d="M895.3,272.2v2.2M908.8,272.2v2.2M902,272.2v-20.2M898.7,261v1.1M905.4,261v1.1M892,265.5v-6.7c0-3.2,0-4.7,1.1-5.8,1.1-.9,2.7-.9,6.1-.9h5.9c3.3,0,5.1,0,6.1.9s1.1,2.6,1.1,5.8v6.7c0,3.2,0,4.7-1.1,5.8-1.1.9-2.7.9-6.1.9h-5.9c-3.3,0-5.1,0-6.1-.9s-1.1-2.6-1.1-5.8Z"/>
    <path class="st15" d="M701.4,288.4v-.6c0-.2-.2-.4-.4-.5,0-.1-.5-.2-.7-.5-.4-.1-.7-.2-1.2-.4s-.9-.4-1.3-.5c-.4-.2-.7-.4-1.1-.6-.2-.2-.5-.5-.7-.8,0-.4-.2-.7-.2-1.1s0-.7.2-1.1c0-.4.4-.6.7-.8s.7-.5,1.1-.6c.5-.1.9-.2,1.4-.2s1.4.1,1.9.5c.5.2.9.7,1.2,1.2s.5.9.5,1.5h-1.3c0-.4,0-.7-.2-.9,0-.2-.4-.5-.7-.7-.4-.1-.7-.2-1.3-.2s-.8,0-1.2.2c-.4.1-.6.4-.7.6s-.2.5-.2.8,0,.4,0,.6c0,.1.2.4.5.5.2.1.5.2.7.4.4.1.7.2,1.1.4.6.1,1.1.4,1.5.6.5.2.7.5,1.1.7.2.2.5.5.6.8s.2.7.2,1.1,0,.8-.2,1.1c0,.4-.4.6-.7.8s-.7.5-1.1.6c-.5.1-.9.2-1.4.2s-.9,0-1.4-.2c-.5-.1-.8-.4-1.2-.6s-.7-.6-.8-.9c-.2-.4-.4-.8-.4-1.3h1.3c0,.4,0,.6.2.9,0,.2.4.5.6.6s.5.2.8.4h.9c.5,0,.8,0,1.2-.2.4-.1.6-.4.7-.6s.2-.5.2-.8l-.4-.2v-.2ZM708.8,289.2v-5.8h1.3v7.4h-1.2v-1.8h0v.2ZM709.1,287.7h.6c0,.5,0,.9,0,1.4,0,.5-.2.8-.5,1.1-.2.4-.6.6-.9.7s-.8.2-1.4.2-.7,0-.9-.1c-.4,0-.6-.2-.8-.5s-.4-.5-.5-.8c0-.4,0-.8,0-1.3v-4.8h1.3v5.7c0,.2.2.4.4.5,0,.1.2.2.5.2h.5c.6,0,.9,0,1.3-.4.4-.2.6-.5.7-.8s.2-.7.2-1.2h-.3ZM716.9,283.5h1.2v7.3c0,.7,0,1.2-.4,1.7s-.6.8-1.1,1.1-1.1.4-1.7.4-.6,0-.9-.1c-.4,0-.7-.2-1.1-.4s-.6-.5-.8-.8l.7-.7c.4.4.6.6.9.8.4.1.7.2,1.1.2s.7,0,1.1-.2.5-.4.7-.7c0-.2.2-.7.2-1.1v-7.4h0ZM711.8,287.3h0c0-.7,0-1.2.2-1.7,0-.5.4-.8.6-1.2s.6-.6.9-.8.8-.2,1.2-.2.8,0,1.2.2c.4.1.7.4.9.7s.5.7.6,1.2.2.9.4,1.5v.6c0,.6,0,1.1-.4,1.5,0,.5-.4.8-.6,1.2s-.6.6-.9.7-.8.2-1.3.2-.8,0-1.2-.2-.7-.5-.9-.8-.5-.7-.6-1.2-.2-.9-.2-1.5v-.2h0ZM713,287.2h0v1.2c0,.4.2.6.4.8s.4.5.6.6.6.2.9.2.8,0,1.1-.2.5-.5.7-.7c0-.2.2-.6.4-.9v-1.7c0-.2,0-.5-.2-.7,0-.2-.2-.5-.4-.6,0-.2-.4-.4-.6-.5-.2,0-.5-.1-.8-.1s-.7,0-.9.2c-.2.1-.5.4-.6.6s-.2.6-.4.8v1.1h-.2ZM724.9,283.5h1.2v7.3c0,.7,0,1.2-.4,1.7s-.6.8-1.1,1.1-1.1.4-1.7.4-.6,0-.9-.1c-.4,0-.7-.2-1.1-.4s-.6-.5-.8-.8l.7-.7c.4.4.6.6.9.8.4.1.7.2,1.1.2s.7,0,1.1-.2.5-.4.7-.7c0-.2.2-.7.2-1.1v-7.4h0ZM719.7,287.3h0c0-.7,0-1.2.2-1.7,0-.5.4-.8.6-1.2s.6-.6.9-.8.8-.2,1.2-.2.8,0,1.2.2c.4.1.7.4.9.7s.5.7.6,1.2.2.9.4,1.5v.6c0,.6,0,1.1-.4,1.5,0,.5-.4.8-.6,1.2s-.6.6-.9.7-.8.2-1.3.2-.8,0-1.2-.2-.7-.5-.9-.8-.5-.7-.6-1.2-.2-.9-.2-1.5v-.2h0ZM721,287.2h0v1.2c0,.4.2.6.4.8s.4.5.6.6.6.2.9.2.8,0,1.1-.2.5-.5.7-.7c0-.2.2-.6.4-.9v-1.7c0-.2,0-.5-.2-.7,0-.2-.2-.5-.4-.6,0-.2-.4-.4-.6-.5-.2,0-.5-.1-.8-.1s-.7,0-.9.2c-.2.1-.5.4-.6.6s-.2.6-.4.8v1.1h-.2ZM731.1,291.1c-.5,0-.9,0-1.4-.2s-.8-.5-1.1-.7c-.4-.4-.5-.7-.7-1.2s-.2-.9-.2-1.4v-.2c0-.6,0-1.2.2-1.7s.5-.9.7-1.2c.4-.4.7-.6,1.1-.7.4-.1.8-.2,1.2-.2s.9,0,1.4.2c.4.2.7.5.9.8s.5.7.6,1.2.2.9.2,1.4v.6h-5.6v-1.1h4.3c0-.5,0-.7-.2-1.1,0-.4-.4-.6-.6-.8s-.6-.4-1.1-.4-.6,0-.8.2c-.2.1-.5.4-.6.6s-.4.6-.4.8,0,.7,0,1.2v.2c0,.4,0,.7,0,.9,0,.4.2.6.5.8s.5.5.7.6.6.2.9.2.8,0,1.2-.2.6-.5.8-.7l.8.6c0,.2-.4.5-.6.7-.2.2-.6.4-.9.6-.4.1-.8.2-1.3.2v-.2.2ZM739.8,289c0-.2,0-.4,0-.5,0-.1-.2-.4-.5-.5-.2-.1-.6-.2-1.1-.4-.5,0-.8-.2-1.2-.4s-.6-.2-.8-.5c-.2-.1-.4-.4-.6-.6,0-.2-.2-.5-.2-.8s0-.6.2-.8c0-.2.4-.5.6-.7.2-.2.6-.4.8-.5.4,0,.7-.1,1.2-.1s1.1,0,1.5.4c.5.2.7.5.9.8s.4.7.4,1.2h-1.3c0-.2,0-.4-.2-.6,0-.2-.4-.4-.6-.5-.2-.1-.5-.2-.8-.2s-.6,0-.8.1c-.2,0-.4.2-.5.4,0,.1,0,.4,0,.5v.4s0,.2.2.4c0,0,.4.1.5.2.2,0,.5.1.8.2.6.1,1.1.4,1.5.5.4.2.7.5.9.7s.2.6.2,1.1,0,.6-.2.9c0,.2-.4.5-.6.7-.2.2-.6.4-.9.5-.4,0-.7.1-1.2.1s-1.2,0-1.7-.4c-.5-.2-.8-.6-1.1-.9s-.4-.7-.4-1.2h1.3c0,.4,0,.6.4.8s.4.4.7.5c.2,0,.6.1.8.1s.6,0,.8-.1c.2,0,.5-.2.6-.4s.2-.4.2-.6h0l.3.2ZM745.9,283.5v.9h-4v-.9h4ZM743.2,281.7h1.3v8c0,.1.2.2.4.2h.9v1.1h-.9c-.2,0-.6,0-.8-.2-.2-.1-.5-.4-.6-.6s-.2-.7-.2-1.2v-7.4h-.1Z"/>
    <path class="st4" d="M712.4,255c0-.1,0-.4,0-.5,0,0,.2-.1.5-.1h16.5c0,0,.4,0,.5.1,0,0,0,.2,0,.5v13.8s0,.1,0,.2c0,0,0,0-.2.1h-4.6c0,0-.1,0-.2.1l-3.3,3.5s0,0-.2.1h-.5s0,0-.2-.1l-3.3-3.5s0,0-.2-.1,0,0-.2,0h-4.1c0,0-.4,0-.5-.1,0,0,0-.2,0-.5v-13.6h.2-.2Z"/>
    <path class="st14" d="M721.2,258.3l1.4,2.5,2.5,1.4-2.5,1.4-1.4,2.5-1.4-2.5-2.5-1.4,2.5-1.4,1.4-2.5Z"/>
    <path class="st19" d="M615.4,285.2v1.1h-5.4v-1.1h5.4ZM610.2,280.9v10h-1.3v-10h1.3ZM616.6,280.9v10h-1.3v-10h1.3ZM618.5,287.3h0c0-.7,0-1.2.2-1.7,0-.5.4-.8.7-1.2.2-.4.7-.6,1.1-.8.5-.2.9-.2,1.4-.2s.9,0,1.4.2.8.5,1.1.8c.4.4.5.7.7,1.2,0,.5.2.9.2,1.5h0c0,.7,0,1.2-.2,1.7,0,.5-.4.8-.7,1.2-.2.4-.7.6-1.1.8-.5.2-.9.2-1.4.2s-.9,0-1.4-.2-.8-.5-1.1-.8-.5-.7-.7-1.2c0-.5-.2-.9-.2-1.5ZM619.6,287.2h0c0,.6,0,.9,0,1.2,0,.4.2.6.4.8.2.2.4.5.7.6.2.1.6.2.9.2s.7,0,.9-.2c.2-.1.5-.4.7-.6,0-.2.4-.6.4-.8,0-.4,0-.7,0-1.1h0c0-.5,0-.8,0-1.2,0-.4-.2-.6-.4-.8s-.4-.5-.7-.6c-.2-.1-.6-.2-.9-.2s-.7,0-.9.2c-.2.1-.5.4-.7.6,0,.2-.4.6-.4.8,0,.4,0,.7,0,1.1ZM628.1,285v6h-1.3v-7.4h1.2v1.5h0ZM627.8,287h-.6c0-.6,0-1.1.2-1.4,0-.5.4-.8.6-1.2s.6-.6.9-.7c.4-.2.8-.2,1.3-.2s.7,0,.9.1c.2,0,.6.2.8.5s.4.5.5.8c0,.4.2.7.2,1.2v5h-1.3v-5c0-.4,0-.7-.2-.9,0-.2-.4-.4-.6-.5-.2,0-.5-.1-.8-.1s-.7,0-.9.2c-.2.1-.5.4-.6.6s-.2.5-.4.8v.9h0,0ZM632.8,286.3l-.8.2c0-.4,0-.8.2-1.2,0-.4.4-.7.6-1.1.2-.2.6-.5.9-.7.4-.1.8-.2,1.3-.2s.7,0,1.1.1c.4,0,.6.2.8.5s.4.5.5.8c0,.4,0,.7,0,1.2v5h-1.3v-5c0-.5,0-.7-.2-.9,0-.2-.4-.4-.6-.5-.2,0-.5-.1-.8-.1s-.5,0-.7.1c-.2,0-.4.2-.6.4,0,.1-.2.4-.4.6v.7h0ZM642.3,291.1c-.5,0-.9,0-1.4-.2s-.8-.5-1.1-.7c-.4-.4-.5-.7-.7-1.2,0-.5-.2-.9-.2-1.4v-.2c0-.6,0-1.2.2-1.7s.5-.9.7-1.2c.4-.4.7-.6,1.1-.7.4-.1.8-.2,1.2-.2s.9,0,1.4.2c.4.2.7.5.9.8s.5.7.6,1.2.2.9.2,1.4v.6h-5.6v-1.1h4.4c0-.5,0-.7-.2-1.1,0-.4-.4-.6-.6-.8s-.6-.4-1.1-.4-.6,0-.8.2c-.2.1-.5.4-.6.6s-.4.6-.4.8c0,.4,0,.7,0,1.2v.2c0,.4,0,.7,0,.9,0,.4.2.6.5.8s.5.5.7.6.6.2.9.2.8,0,1.2-.2.6-.5.8-.7l.8.6c0,.2-.4.5-.6.7-.2.2-.6.4-.9.6-.4.1-.8.2-1.3.2l-.2-.2v.2Z"/>
    <path class="st5" d="M620.2,273.3c-1.3,0-2.4-1.1-2.4-2.5v-9.8c0-.7.4-1.4.9-1.9l6.5-5.4c.5-.4.9-.6,1.5-.6s1.1.2,1.5.6l6.5,5.4c.6.5.9,1.2.9,1.9v9.8c0,1.3-1.1,2.5-2.4,2.5h-13.2.2Z"/>
    <path class="st5" d="M624,273.3v-6.1c0-.6.2-1.2.7-1.5.5-.5.9-.7,1.5-.7h1.1c.6,0,1.2.2,1.5.7s.7.9.7,1.5v6.1"/>
    <path class="st9" d="M810.5,276.1c3.5,0,6.4-2.8,6.4-6.4s-2.8-6.4-6.4-6.4-6.4,2.8-6.4,6.4,2.8,6.4,6.4,6.4Z"/>
    <path class="st9" d="M805.7,286.7h9.5c6.6,0,9.9,0,12.3-1.5,1.1-.7,1.9-1.5,2.6-2.6,1.5-2.4,1.5-5.6,1.5-12.2s0-9.8-1.5-12.2c-.7-1.1-1.5-1.9-2.6-2.6-1.5-1.1-3.4-1.4-6.4-1.5-1.4,0-2.6-1.1-2.8-2.4-.2-.9-.7-1.9-1.5-2.5s-1.8-.9-2.8-.9h-7c-2.1,0-3.9,1.4-4.4,3.4-.2,1.3-1.5,2.4-2.8,2.4-3,.1-4.8.5-6.4,1.5-1.1.7-1.9,1.5-2.6,2.6-1.5,2.4-1.5,5.6-1.5,12.2s0,9.8,1.5,12.2c.7,1.1,1.5,1.9,2.6,2.6,2.4,1.5,5.7,1.5,12.3,1.5h0,0Z"/>
    <path class="st10" d="M825.3,263.3h-2.1"/>
    <rect class="st17" x="1117.6" y="224.8" width="464.3" height="94.5" rx="15" ry="15"/>
    <path class="st19" d="M1517.6,287.1h-2.7v-1.1h2.7c.5,0,.9,0,1.3-.2.4-.1.6-.4.7-.7s.2-.6.2-1.1,0-.7-.2-.9c0-.4-.4-.6-.7-.7-.4-.2-.7-.2-1.3-.2h-2.4v9h-1.3v-10h3.8c.7,0,1.4.1,1.9.4s.9.6,1.2,1.1.4.9.4,1.5,0,1.2-.4,1.7c-.2.5-.7.8-1.2,1.1s-1.2.4-1.9.4h0v-.3ZM1523.8,284.7v6.3h-1.3v-7.4h1.3v1.2h0ZM1526.2,283.4v1.2h-.7c-.2,0-.6,0-.8.1-.2,0-.5.2-.6.4s-.2.4-.4.6c0,.2,0,.5,0,.7l-.4.2c0-.5,0-.8,0-1.3,0-.4.2-.7.5-1.1.2-.4.5-.6.7-.7s.7-.2,1.1-.2h.6ZM1526.9,287.3h0c0-.7,0-1.2.2-1.7,0-.5.4-.8.7-1.2.2-.4.6-.6,1.1-.8s.9-.2,1.4-.2.9,0,1.4.2.8.5,1.1.8c.2.4.5.7.7,1.2,0,.5.2.9.2,1.5h0c0,.7,0,1.2-.2,1.7,0,.5-.4.8-.7,1.2-.2.4-.7.6-1.1.8s-.9.2-1.4.2-1.1,0-1.4-.2c-.5-.2-.8-.5-1.1-.8-.2-.4-.5-.7-.7-1.2,0-.5-.2-.9-.2-1.5ZM1528.2,287.2h0c0,.6,0,.9,0,1.2,0,.4.2.6.4.8.2.2.4.5.7.6.2.1.6.2.9.2s.6,0,.9-.2c.2-.1.5-.4.7-.6s.4-.6.4-.8c0-.4,0-.7,0-1.1h0c0-.5,0-.8,0-1.2,0-.4-.2-.6-.4-.8-.2-.2-.4-.5-.7-.6-.2-.1-.6-.2-.9-.2s-.7,0-.9.2c-.2.1-.5.4-.7.6,0,.2-.4.6-.4.8,0,.4,0,.7,0,1.1ZM1537.1,291h-1.3v-8.2c0-.6,0-1.1.4-1.4.2-.4.6-.7.9-.9s.9-.4,1.4-.4.7,0,.9.1c.4,0,.6.2.9.4l-.2,1.1c-.2,0-.5-.1-.7-.2h-.9c-.6,0-.9.1-1.2.4s-.4.6-.4,1.1v8.2h0v-.2ZM1538.6,283.5v.9h-4v-.9h4ZM1541.1,283.5v7.4h-1.3v-7.4h1.3ZM1544.6,280.4v10.6h-1.3v-10.6h1.3ZM1549.7,291.1c-.5,0-.9,0-1.4-.2s-.8-.5-1.1-.7c-.2-.4-.5-.7-.7-1.2,0-.5-.2-.9-.2-1.4v-.2c0-.6,0-1.2.2-1.7,0-.5.5-.9.7-1.2.4-.4.7-.6,1.1-.7s.8-.2,1.2-.2.9,0,1.4.2c.4.2.7.5.9.8.2.4.5.7.6,1.2,0,.5,0,.9,0,1.4v.6h-5.6v-1.1h4.4c0-.5,0-.7-.2-1.1,0-.4-.2-.6-.6-.8-.2-.2-.6-.4-1.1-.4s-.6,0-.8.2c-.2.1-.5.4-.6.6s-.4.6-.4.8c0,.4,0,.7,0,1.2v.2c0,.4,0,.7,0,.9,0,.4.2.6.5.8.2.2.5.5.7.6s.6.2.9.2.8,0,1.2-.2.6-.5.8-.7l.8.6c0,.2-.4.5-.6.7s-.6.4-.9.6c-.4.1-.8.2-1.3.2v-.2.2Z"/>
    <path class="st2" d="M1522.9,270.8c0-1.3.5-2.6,1.4-3.5s2.2-1.4,3.5-1.4h10c1.3,0,2.6.5,3.5,1.4s1.4,2.2,1.4,3.5-.2,1.3-.7,1.8-1.1.7-1.8.7h-15.1c-.7,0-1.3-.2-1.8-.7s-.7-1.1-.7-1.8h.3Z"/>
    <path class="st3" d="M1532.9,260.7c2.1,0,3.8-1.7,3.8-3.8s-1.7-3.8-3.8-3.8-3.8,1.7-3.8,3.8,1.7,3.8,3.8,3.8Z"/>
    <path class="st19" d="M1413.5,287.9l2-7.1h.9l-.6,2.7-2.1,7.3h-.9l.7-3.1h0v.2ZM1411.5,280.9l1.5,6.9.5,3.2h-.9l-2.5-10h1.4ZM1419,287.8l1.5-6.9h1.3l-2.5,10h-.9l.5-3.2h0ZM1416.7,280.9l2,7.1.7,3.1h-.9l-2.1-7.3-.6-2.7h.9v-.2ZM1427.4,289.7v-3.9c0-.2,0-.6-.2-.7,0-.2-.2-.4-.5-.5-.2-.1-.5-.2-.8-.2s-.6,0-.8.1c-.2,0-.5.2-.6.5s-.2.4-.2.6h-1.3c0-.2,0-.6.2-.8,0-.2.4-.5.6-.7s.6-.4.9-.5c.4-.1.8-.2,1.2-.2s1.1,0,1.4.2c.4.2.7.5.9.8.2.4.4.8.4,1.4v4.4c0,.2,0,.5.2.7h-1.3c0-.1,0-.4,0-.6v-.7h0ZM1427.7,286.5v.9h-2.2c-.2,0-.5.1-.7.2-.2,0-.4.2-.5.5,0,.1,0,.4,0,.6s0,.5,0,.6.2.4.5.5c.2,0,.5.1.8.1s.7,0,1.1-.2c.4-.1.6-.4.7-.6.2-.2.2-.5.2-.7l.6.6c0,.2,0,.4-.2.6s-.4.5-.6.7-.5.4-.8.6c-.4.1-.7.2-1.1.2s-.9,0-1.3-.4c-.4-.2-.7-.5-.9-.8-.2-.4-.4-.7-.4-1.2s0-.7.2-1.1c0-.4.4-.6.7-.8.2-.2.7-.4,1.1-.5s.8-.1,1.4-.1h1.5v.2h0ZM1432,284.7v6.3h-1.3v-7.4h1.3v1.2h0ZM1434.4,283.4v1.2h-.7c-.2,0-.6,0-.8.1-.2,0-.5.2-.6.4s-.2.4-.4.6c0,.2,0,.5,0,.7l-.4.2c0-.5,0-.8,0-1.3,0-.4.2-.7.5-1.1.2-.4.5-.6.7-.7s.7-.2,1.1-.2h.6ZM1440.1,289.6v-9.2h1.3v10.6h-1.2v-1.4h-.1ZM1435.1,287.3h0c0-.7,0-1.2.2-1.7,0-.5.4-.8.6-1.2s.6-.6.9-.8.8-.2,1.2-.2.8,0,1.2.2c.4.1.7.4.9.7.2.4.5.7.6,1.2s.2.9.2,1.5v.6c0,.6,0,1.1-.2,1.5,0,.5-.4.8-.6,1.2s-.6.6-.9.7-.8.2-1.3.2-.8,0-1.2-.2-.7-.5-.9-.8c-.2-.4-.5-.7-.6-1.2s-.2-.9-.2-1.5v-.2h.1ZM1436.4,287.2h0v1.2c0,.4.2.6.4.8,0,.2.4.5.6.6s.6.2.9.2.8,0,1.1-.2c.2-.2.5-.5.7-.7s.2-.6.4-.9v-1.7c0-.2,0-.5-.2-.7,0-.2-.2-.5-.4-.6,0-.2-.4-.4-.6-.5-.2,0-.5-.1-.8-.1s-.6,0-.9.2c-.2.1-.5.4-.6.6s-.2.6-.4.8v1.1h-.2ZM1444.7,284.7v6.3h-1.3v-7.4h1.3v1.2h0ZM1447,283.4v1.2h-.7c-.2,0-.6,0-.8.1-.2,0-.4.2-.6.4,0,.1-.2.4-.4.6,0,.2,0,.5-.2.7l-.4.2c0-.5,0-.8,0-1.3,0-.4.2-.7.5-1.1.2-.4.5-.6.7-.7s.6-.2,1.1-.2.2,0,.4,0h.4,0ZM1447.8,287.3h0c0-.7,0-1.2.2-1.7,0-.5.4-.8.7-1.2.2-.4.6-.6,1.1-.8s.9-.2,1.4-.2.9,0,1.4.2.8.5,1.1.8c.4.4.5.7.7,1.2,0,.5.2.9.2,1.5h0c0,.7,0,1.2-.2,1.7,0,.5-.4.8-.7,1.2-.2.4-.7.6-1.1.8-.5.2-.9.2-1.4.2s-.9,0-1.4-.2-.8-.5-1.1-.8c-.2-.4-.6-.7-.7-1.2s-.2-.9-.2-1.5ZM1449.1,287.2h0c0,.6,0,.9,0,1.2,0,.4.2.6.4.8,0,.2.4.5.7.6.2.1.6.2.9.2s.7,0,.9-.2c.2-.1.5-.4.7-.6s.4-.6.4-.8c0-.4,0-.7,0-1.1h0c0-.5,0-.8,0-1.2,0-.4-.2-.6-.4-.8-.2-.2-.4-.5-.7-.6-.2-.1-.6-.2-.9-.2s-.7,0-.9.2c-.2.1-.5.4-.7.6s-.4.6-.4.8c0,.4,0,.7,0,1.1ZM1456.1,280.4h1.3v10.6h-1.3v-10.6ZM1462.5,287.2h0c0,.7,0,1.2-.2,1.7,0,.5-.4.8-.6,1.2s-.6.6-.9.8-.8.2-1.2.2-.9,0-1.3-.2c-.4-.1-.6-.4-.9-.7-.2-.4-.5-.7-.6-1.2s-.2-.9-.2-1.5v-.6c0-.6,0-1.1.2-1.5,0-.5.4-.8.6-1.2s.6-.6.9-.7.8-.2,1.3-.2.9,0,1.3.2.7.5.9.8c.2.4.5.7.6,1.2s.2.9.2,1.5v.2h-.1ZM1461.2,287.3h0v-1.2c0-.4,0-.6-.4-.8,0-.2-.4-.5-.6-.6s-.6-.2-.9-.2-.6,0-.8.1c-.2,0-.5.2-.6.5s-.4.4-.5.6c0,.2,0,.5-.2.7v1.7c0,.4.2.6.4.9,0,.2.4.6.7.7s.6.2,1.1.2.6,0,.9-.2c.2-.1.5-.4.6-.6s.2-.6.4-.8v-1.1h0ZM1467.2,291.1c-.5,0-.9,0-1.4-.2-.4-.2-.8-.5-1.1-.7-.2-.4-.6-.7-.7-1.2s-.2-.9-.2-1.4v-.2c0-.6,0-1.2.2-1.7s.5-.9.7-1.2c.4-.4.7-.6,1.1-.7s.8-.2,1.2-.2.9,0,1.4.2c.4.2.7.5.9.8.2.4.5.7.6,1.2s.2.9.2,1.4v.6h-5.6v-1.1h4.4c0-.5,0-.7-.2-1.1,0-.4-.2-.6-.6-.8-.2-.2-.6-.4-1.1-.4s-.6,0-.8.2c-.2.1-.5.4-.6.6-.2.2-.4.6-.5.8,0,.4,0,.7,0,1.2v.2c0,.4,0,.7,0,.9,0,.4.2.6.5.8.2.2.5.5.7.6s.6.2.9.2.8,0,1.2-.2.6-.5.8-.7l.8.6c0,.2-.4.5-.6.7s-.6.4-.9.6c-.4.1-.8.2-1.3.2v-.2.2Z"/>
    <path class="st5" d="M1434,272.2v2.2M1447.5,272.2v2.2M1440.9,272.2v-20.2M1437.5,261v1.1M1444.2,261v1.1M1430.7,265.5v-6.7c0-3.2,0-4.7,1.1-5.8,1.1-.9,2.7-.9,6.1-.9h5.9c3.3,0,5.1,0,6.1.9,1.1.9,1.1,2.6,1.1,5.8v6.7c0,3.2,0,4.7-1.1,5.8-1.1.9-2.7.9-6.1.9h-5.9c-3.4,0-5.1,0-6.1-.9-1.1-.9-1.1-2.6-1.1-5.8Z"/>
    <path class="st19" d="M1240.2,288.4v-.6c0-.2-.2-.4-.4-.5s-.4-.2-.7-.5c-.4-.1-.7-.2-1.2-.4s-.9-.4-1.3-.5c-.4-.2-.7-.4-1.1-.6-.2-.2-.5-.5-.7-.8,0-.4-.2-.7-.2-1.1s0-.7.2-1.1c0-.4.4-.6.7-.8.4-.2.7-.5,1.1-.6.5-.1.9-.2,1.4-.2s1.4.1,1.9.5c.5.2.9.7,1.2,1.2s.5.9.5,1.5h-1.3c0-.4,0-.7-.2-.9,0-.2-.4-.5-.7-.7-.4-.1-.7-.2-1.2-.2s-.8,0-1.2.2-.6.4-.7.6-.2.5-.2.8,0,.4,0,.6c0,.1.2.4.5.5s.5.2.7.4.7.2,1.1.4c.6.1,1.1.4,1.4.6s.7.5,1.1.7c.2.2.5.5.6.8s.2.7.2,1.1,0,.8-.2,1.1c0,.4-.4.6-.7.8-.4.2-.7.5-1.1.6-.5.1-.9.2-1.4.2s-.9,0-1.4-.2c-.5-.1-.8-.4-1.2-.6s-.7-.6-.9-.9c-.2-.4-.4-.8-.4-1.3h1.3c0,.4,0,.6.2.9,0,.2.4.5.6.6s.5.2.8.4h.9c.5,0,.8,0,1.2-.2.4-.1.6-.4.7-.6.2-.2.2-.5.2-.8l-.2-.2v-.2ZM1247.6,289.2v-5.8h1.3v7.4h-1.2v-1.8h0v.2ZM1247.8,287.7h.5c0,.5,0,.9,0,1.4,0,.5-.2.8-.5,1.1-.2.4-.5.6-.9.7s-.8.2-1.4.2-.7,0-.9-.1c-.2,0-.6-.2-.8-.5s-.4-.5-.5-.8-.2-.8-.2-1.3v-4.8h1.3v5.7c0,.2.2.4.4.5,0,.1.2.2.5.2h.5c.6,0,.9,0,1.3-.4.4-.2.6-.5.7-.8s.2-.7.2-1.2h0-.2ZM1255.6,283.5h1.2v7.3c0,.7,0,1.2-.4,1.7-.2.5-.6.8-1.1,1.1s-1.1.4-1.7.4-.6,0-.9-.1c-.4,0-.7-.2-1.1-.4-.4-.2-.6-.5-.8-.8l.7-.7c.4.4.7.6.9.8.4.1.7.2,1.1.2s.7,0,1.1-.2.5-.4.7-.7c0-.2.2-.7.2-1.1v-7.4h.1ZM1250.6,287.3h0c0-.7,0-1.2.2-1.7,0-.5.4-.8.6-1.2s.6-.6.9-.8.7-.2,1.2-.2.9,0,1.2.2c.4.1.7.4.9.7.2.4.5.7.6,1.2s.2.9.4,1.5v.6c0,.6,0,1.1-.4,1.5,0,.5-.4.8-.6,1.2s-.6.6-.9.7-.8.2-1.3.2-.8,0-1.2-.2-.7-.5-.9-.8-.5-.7-.6-1.2-.2-.9-.2-1.5v-.2h.1ZM1251.7,287.2h0v1.2c0,.4.2.6.4.8,0,.2.4.5.6.6s.6.2.9.2.8,0,1.1-.2c.2-.2.5-.5.7-.7s.2-.6.4-.9v-1.7c0-.2,0-.5-.2-.7,0-.2-.2-.5-.4-.6,0-.2-.4-.4-.6-.5-.2,0-.5-.1-.8-.1s-.6,0-.9.2c-.2.1-.5.4-.6.6s-.2.6-.4.8v1.1h-.2ZM1263.7,283.5h1.2v7.3c0,.7,0,1.2-.4,1.7-.2.5-.6.8-1.1,1.1s-1.1.4-1.7.4-.6,0-.9-.1c-.4,0-.7-.2-1.1-.4-.4-.2-.6-.5-.8-.8l.7-.7c.4.4.6.6.9.8.4.1.7.2,1.1.2s.7,0,1.1-.2.5-.4.7-.7c0-.2.2-.7.2-1.1v-7.4h.1ZM1258.5,287.3h0c0-.7,0-1.2.2-1.7,0-.5.4-.8.6-1.2s.6-.6.9-.8.8-.2,1.2-.2.9,0,1.2.2c.4.1.7.4.9.7.2.4.5.7.6,1.2s.2.9.2,1.5v.6c0,.6,0,1.1-.2,1.5,0,.5-.4.8-.6,1.2s-.6.6-.9.7-.8.2-1.3.2-.8,0-1.2-.2-.7-.5-.9-.8-.5-.7-.6-1.2-.2-.9-.2-1.5v-.2h.1ZM1259.8,287.2h0v1.2c0,.4.2.6.4.8,0,.2.4.5.6.6s.6.2.9.2.8,0,1.1-.2c.2-.2.5-.5.7-.7s.2-.6.4-.9v-1.7c0-.2,0-.5-.2-.7,0-.2-.2-.5-.4-.6,0-.2-.4-.4-.6-.5-.2,0-.5-.1-.8-.1s-.6,0-.9.2c-.2.1-.5.4-.6.6s-.2.6-.4.8v1.1h-.2ZM1269.8,291.1c-.5,0-.9,0-1.4-.2-.4-.2-.8-.5-1.1-.7-.2-.4-.5-.7-.7-1.2,0-.5-.2-.9-.2-1.4v-.2c0-.6,0-1.2.2-1.7s.5-.9.7-1.2c.4-.4.7-.6,1.1-.7s.8-.2,1.2-.2.9,0,1.4.2c.4.2.7.5.9.8.2.4.5.7.6,1.2,0,.5.2.9.2,1.4v.6h-5.6v-1.1h4.3c0-.5,0-.7-.2-1.1,0-.4-.2-.6-.6-.8-.2-.2-.6-.4-1.1-.4s-.6,0-.8.2c-.2.1-.5.4-.6.6s-.4.6-.4.8c0,.4,0,.7,0,1.2v.2c0,.4,0,.7,0,.9,0,.4.2.6.5.8.2.2.5.5.7.6s.6.2.9.2.8,0,1.2-.2.6-.5.8-.7l.8.6c0,.2-.4.5-.6.7s-.6.4-.9.6c-.4.1-.8.2-1.3.2v-.2.2ZM1278.6,289c0-.2,0-.4,0-.5,0-.1-.2-.4-.5-.5-.2-.1-.6-.2-1.1-.4-.5,0-.8-.2-1.2-.4s-.6-.2-.8-.5c-.2-.1-.4-.4-.5-.6,0-.2-.2-.5-.2-.8s0-.6.2-.8c0-.2.4-.5.6-.7s.6-.4.9-.5c.4,0,.7-.1,1.2-.1s1.1,0,1.5.4c.5.2.7.5.9.8.2.4.4.7.4,1.2h-1.3c0-.2,0-.4-.2-.6,0-.2-.4-.4-.6-.5s-.5-.2-.8-.2-.6,0-.8.1c-.2,0-.4.2-.5.4,0,.1,0,.4,0,.5v.4s0,.2.2.4c0,0,.2.1.5.2.2,0,.5.1.8.2.6.1,1.1.4,1.5.5.4.2.7.5.9.7.2.2.2.6.2,1.1s0,.6-.2.9c0,.2-.4.5-.6.7s-.6.4-.9.5c-.4,0-.7.1-1.2.1s-1.2,0-1.7-.4c-.5-.2-.8-.6-1.1-.9-.2-.4-.4-.7-.4-1.2h1.3c0,.4,0,.6.2.8s.4.4.7.5c.2,0,.6.1.8.1s.7,0,.9-.1c.2,0,.4-.2.6-.4,0-.1.2-.4.2-.6h0l.4.2ZM1284.7,283.5v.9h-4v-.9h4ZM1282,281.7h1.3v8c0,.1.2.2.2.2h.9v1.1h-.9c-.2,0-.6,0-.8-.2s-.5-.4-.6-.6-.2-.7-.2-1.2v-7.4h0Z"/>
    <path class="st3" d="M1251.2,255c0-.1,0-.4.2-.5,0,0,.2-.1.4-.1h16.5c0,0,.4,0,.4.1,0,0,.2.2.2.5v13.8s0,.1,0,.2h-.2c0,.1,0,.1-.2.1h-4.3s0,0-.2.1l-3.3,3.5h-.2c0,.1,0,.1-.2.1h-.2s0,0-.2-.1l-3.3-3.5s0,0-.2-.1h-4.3c0,0-.4,0-.4-.1,0,0-.2-.2-.2-.5v-13.6h-.2Z"/>
    <path class="st6" d="M1260,258.3l1.4,2.5,2.5,1.4-2.5,1.4-1.4,2.5-1.4-2.5-2.5-1.4,2.5-1.4,1.4-2.5Z"/>
    <path class="st19" d="M1154.2,285.2v1.1h-5.4v-1.1h5.4ZM1149,280.9v10h-1.3v-10h1.3ZM1155.3,280.9v10h-1.3v-10h1.3ZM1157.2,287.3h0c0-.7,0-1.2.2-1.7,0-.5.4-.8.7-1.2.2-.4.7-.6,1.1-.8s.9-.2,1.4-.2,1.1,0,1.4.2c.4.2.8.5,1.1.8.2.4.6.7.7,1.2s.2.9.2,1.5h0c0,.7,0,1.2-.2,1.7,0,.5-.4.8-.7,1.2-.2.4-.6.6-1.1.8s-.9.2-1.4.2-.9,0-1.4-.2c-.4-.2-.8-.5-1.1-.8-.2-.4-.5-.7-.7-1.2,0-.5-.2-.9-.2-1.5ZM1158.4,287.2h0c0,.6,0,.9,0,1.2,0,.4.2.6.4.8s.4.5.7.6c.2.1.6.2.9.2s.7,0,.9-.2c.2-.1.5-.4.7-.6s.4-.6.4-.8c0-.4,0-.7,0-1.1h0c0-.5,0-.8,0-1.2,0-.4-.2-.6-.4-.8-.2-.2-.4-.5-.7-.6-.2-.1-.6-.2-.9-.2s-.6,0-.9.2c-.2.1-.5.4-.7.6s-.4.6-.4.8c0,.4,0,.7,0,1.1ZM1166.9,285v6h-1.3v-7.4h1.2v1.5h.1ZM1166.6,287h-.6c0-.6,0-1.1.2-1.4,0-.5.4-.8.6-1.2s.6-.6.9-.7c.4-.2.8-.2,1.3-.2s.7,0,.9.1c.2,0,.6.2.8.5s.4.5.5.8c0,.4.2.7.2,1.2v5h-1.3v-5c0-.4,0-.7-.2-.9,0-.2-.4-.4-.6-.5-.2,0-.5-.1-.8-.1s-.7,0-.9.2c-.2.1-.5.4-.6.6s-.2.5-.4.8v.9h0,0ZM1171.5,286.3l-.8.2c0-.4,0-.8.2-1.2,0-.4.4-.7.6-1.1.2-.2.6-.5.9-.7.4-.1.8-.2,1.3-.2s.7,0,1.1.1c.4,0,.6.2.8.5s.4.5.5.8c0,.4,0,.7,0,1.2v5h-1.3v-5c0-.5,0-.7-.2-.9,0-.2-.4-.4-.6-.5-.2,0-.5-.1-.8-.1s-.6,0-.7.1c-.2,0-.4.2-.6.4,0,.1-.2.4-.4.6v.7h0ZM1181.1,291.1c-.5,0-.9,0-1.4-.2s-.8-.5-1.1-.7c-.2-.4-.5-.7-.7-1.2,0-.5-.2-.9-.2-1.4v-.2c0-.6,0-1.2.2-1.7,0-.5.5-.9.7-1.2.4-.4.7-.6,1.1-.7s.8-.2,1.2-.2.9,0,1.4.2c.4.2.7.5.9.8.2.4.5.7.6,1.2,0,.5,0,.9,0,1.4v.6h-5.6v-1.1h4.4c0-.5,0-.7-.2-1.1,0-.4-.2-.6-.6-.8-.2-.2-.6-.4-1.1-.4s-.6,0-.8.2c-.2.1-.5.4-.6.6s-.4.6-.4.8c0,.4,0,.7,0,1.2v.2c0,.4,0,.7,0,.9,0,.4.2.6.5.8.2.2.5.5.7.6s.6.2.9.2.8,0,1.2-.2.6-.5.8-.7l.8.6c0,.2-.4.5-.6.7s-.6.4-.9.6c-.4.1-.8.2-1.3.2v-.2.2Z"/>
    <path class="st5" d="M1159,273.3c-1.3,0-2.4-1.1-2.4-2.5v-9.8c0-.7.4-1.4.9-1.9l6.5-5.4c.4-.4.9-.6,1.5-.6s1.1.2,1.4.6l6.5,5.4c.6.5.9,1.2.9,1.9v9.8c0,1.3-1.1,2.5-2.4,2.5h-13.1.2Z"/>
    <path class="st5" d="M1162.8,273.3v-6.1c0-.6.2-1.2.7-1.5.4-.5.9-.7,1.5-.7h1.2c.6,0,1.2.2,1.5.7.5.5.7.9.7,1.5v6.1"/>
    <path class="st9" d="M1349.2,276.1c3.5,0,6.4-2.8,6.4-6.4s-2.8-6.4-6.4-6.4-6.4,2.8-6.4,6.4,2.8,6.4,6.4,6.4Z"/>
    <path class="st9" d="M1344.5,286.7h9.5c6.6,0,9.9,0,12.3-1.5,1.1-.7,1.9-1.5,2.6-2.6,1.5-2.4,1.5-5.6,1.5-12.2s0-9.8-1.5-12.2c-.7-1.1-1.5-1.9-2.6-2.6-1.5-1.1-3.4-1.4-6.4-1.5-1.4,0-2.6-1.1-2.8-2.4-.2-.9-.7-1.9-1.5-2.5s-1.8-.9-2.8-.9h-7c-2.1,0-3.9,1.4-4.4,3.4-.2,1.3-1.4,2.4-2.8,2.4-3,.1-4.8.5-6.4,1.5-1.1.7-1.9,1.5-2.6,2.6-1.5,2.4-1.5,5.6-1.5,12.2s0,9.8,1.5,12.2c.7,1.1,1.5,1.9,2.6,2.6,2.4,1.5,5.7,1.5,12.3,1.5h0,0Z"/>
    <path class="st10" d="M1364.1,263.3h-2.1"/>
    <rect class="st17" x="272.9" y="424.7" width="464.3" height="94.5" rx="15" ry="15"/>
    <path class="st19" d="M672.8,487h-2.7v-1.1h2.7c.5,0,.9,0,1.3-.2.4-.1.6-.4.7-.7,0-.2.2-.6.2-1.1s0-.7-.2-.9c0-.4-.4-.6-.7-.7-.4-.2-.7-.2-1.3-.2h-2.4v9h-1.3v-10h3.7c.7,0,1.4.1,1.9.4s.9.6,1.2,1.1.4.9.4,1.5,0,1.2-.4,1.7-.7.8-1.2,1.1c-.5.2-1.2.4-1.9.4h0v-.3ZM679.1,484.6v6.3h-1.3v-7.4h1.3v1.2h0ZM681.4,483.3v1.2h-.7c-.2,0-.6,0-.8.1-.2,0-.5.2-.6.4,0,.1-.2.4-.4.6,0,.2,0,.5,0,.7l-.4.2c0-.5,0-.8,0-1.3,0-.4.2-.7.5-1.1s.5-.6.7-.7.6-.2,1.1-.2.2,0,.4,0h.2ZM682.1,487.2h0c0-.7,0-1.2.2-1.7,0-.5.4-.8.7-1.2.2-.4.7-.6,1.1-.8.5-.2.9-.2,1.4-.2s.9,0,1.4.2.8.5,1.1.8c.4.4.5.7.7,1.2,0,.5.2.9.2,1.5h0c0,.7,0,1.2-.2,1.7,0,.5-.4.8-.7,1.2-.2.4-.7.6-1.1.8-.5.2-.9.2-1.4.2s-.9,0-1.4-.2-.8-.5-1.1-.8c-.2-.4-.5-.7-.7-1.2,0-.5-.2-.9-.2-1.5ZM683.4,487.1h0c0,.6,0,.9,0,1.2,0,.4.2.6.4.8.2.2.4.5.7.6.2.1.6.2.9.2s.7,0,.9-.2c.2-.1.5-.4.7-.6,0-.2.4-.6.4-.8,0-.4,0-.7,0-1.1h0c0-.5,0-.8,0-1.2,0-.4-.2-.6-.4-.8s-.4-.5-.7-.6c-.2-.1-.6-.2-.9-.2s-.7,0-.9.2c-.2.1-.5.4-.7.6,0,.2-.4.6-.4.8,0,.4,0,.7,0,1.1ZM692.3,490.9h-1.3v-8.2c0-.6,0-1.1.4-1.4.2-.4.6-.7.9-.9.4-.2.9-.4,1.4-.4s.7,0,.9.1c.4,0,.6.2.9.4l-.2,1.1c-.2,0-.5-.1-.7-.2h-.9c-.6,0-.9.1-1.2.4s-.4.6-.4,1.1v8.2h0v-.2ZM693.8,483.5v.9h-4v-.9h4ZM696.3,483.5v7.4h-1.3v-7.4h1.3ZM699.9,480.3v10.6h-1.3v-10.6h1.3ZM704.9,491c-.5,0-.9,0-1.4-.2s-.8-.5-1.1-.7c-.4-.4-.5-.7-.7-1.2,0-.5-.2-.9-.2-1.4v-.2c0-.6,0-1.2.2-1.7s.5-.9.7-1.2c.4-.4.7-.6,1.1-.7.4-.1.8-.2,1.2-.2s.9,0,1.4.2c.4.2.7.5.9.8.2.4.5.7.6,1.2s.2.9.2,1.4v.6h-5.6v-1.1h4.4c0-.5,0-.7-.2-1.1,0-.4-.4-.6-.6-.8s-.6-.4-1.1-.4-.6,0-.8.2c-.2.1-.5.4-.6.6s-.4.6-.4.8c0,.4,0,.7,0,1.2v.2c0,.4,0,.7,0,.9,0,.4.2.6.5.8s.5.5.7.6.6.2.9.2.8,0,1.2-.2.6-.5.8-.7l.8.6c0,.2-.4.5-.6.7s-.6.4-.9.6c-.4.1-.8.2-1.3.2l-.2-.2v.2Z"/>
    <path class="st2" d="M678.1,470.7c0-1.3.5-2.6,1.4-3.5s2.2-1.4,3.5-1.4h10c1.3,0,2.6.5,3.5,1.4s1.4,2.2,1.4,3.5-.2,1.3-.7,1.8-1.1.7-1.8.7h-15.1c-.7,0-1.3-.2-1.8-.7s-.7-1.1-.7-1.8h.3Z"/>
    <path class="st3" d="M688.2,460.7c2.1,0,3.8-1.7,3.8-3.8s-1.7-3.8-3.8-3.8-3.8,1.7-3.8,3.8,1.7,3.8,3.8,3.8Z"/>
    <path class="st15" d="M568.7,487.8l2-7.1h.9l-.6,2.7-2.1,7.3h-.9l.7-3.1h0v.2ZM566.7,480.9l1.5,6.9.5,3.2h-.9l-2.5-10h1.4ZM574.3,487.7l1.5-6.9h1.3l-2.5,10h-.9l.5-3.2h.1ZM571.9,480.9l1.9,7.1.7,3.1h-.9l-2.1-7.3-.6-2.7h1.1v-.2ZM582.7,489.6v-3.9c0-.2,0-.6-.2-.7,0-.2-.2-.4-.5-.5s-.5-.2-.8-.2-.6,0-.8.1c-.2,0-.5.2-.6.5,0,.2-.2.4-.2.6h-1.3c0-.2,0-.6.2-.8,0-.2.4-.5.6-.7s.6-.4.9-.5.8-.2,1.2-.2,1.1,0,1.4.2c.5.2.7.5.9.8.2.4.4.8.4,1.4v4.4c0,.2,0,.5.2.7h-1.3c0-.1,0-.4,0-.6v-.7h0ZM582.9,486.4v.9h-2.2c-.2,0-.5.1-.7.2s-.4.2-.5.5c0,.1,0,.4,0,.6s0,.5,0,.6c0,.2.2.4.5.5.2,0,.5.1.8.1s.7,0,1.1-.2c.4-.1.6-.4.7-.6.2-.2.2-.5.2-.7l.6.6c0,.2,0,.4-.2.6,0,.2-.4.5-.6.7s-.5.4-.8.6c-.4.1-.7.2-1.1.2s-.9,0-1.3-.4c-.4-.2-.7-.5-.9-.8-.2-.4-.4-.7-.4-1.2s0-.7.2-1.1c0-.4.4-.6.7-.8.2-.2.7-.4,1.1-.5.5,0,.8-.1,1.4-.1h1.5v.2h0ZM587.3,484.6v6.3h-1.3v-7.4h1.3v1.2h0ZM589.6,483.3v1.2h-.7c-.2,0-.6,0-.8.1-.2,0-.5.2-.6.4,0,.1-.2.4-.4.6,0,.2,0,.5,0,.7l-.4.2c0-.5,0-.8,0-1.3,0-.4.2-.7.5-1.1s.5-.6.7-.7.6-.2,1.1-.2.2,0,.4,0h.2ZM595.4,489.5v-9.2h1.3v10.6h-1.2v-1.4h0ZM590.3,487.2h0c0-.7,0-1.2.2-1.7,0-.5.4-.8.6-1.2s.6-.6.9-.8.8-.2,1.2-.2.8,0,1.2.2c.4.1.7.4.9.7.2.4.5.7.6,1.2s.2.9.4,1.5v.6c0,.6,0,1.1-.4,1.5,0,.5-.4.8-.6,1.1-.2.4-.6.6-.9.7s-.8.2-1.3.2-.8,0-1.2-.2-.7-.5-.9-.8c-.2-.4-.5-.7-.6-1.2s-.2-.9-.2-1.5h0ZM591.6,487.1h0v1.2c0,.4.2.6.4.8s.4.5.6.6.6.2.9.2.8,0,1.1-.2.5-.5.7-.7c0-.2.2-.6.4-.9v-1.7c0-.2,0-.5-.2-.7,0-.2-.2-.5-.4-.6,0-.2-.4-.4-.6-.5-.2,0-.5-.1-.8-.1s-.7,0-.9.2c-.2.1-.5.4-.6.6s-.2.6-.4.8v1.1h-.2ZM599.9,484.6v6.3h-1.3v-7.4h1.3v1.2h0ZM602.3,483.3v1.2h-.7c-.2,0-.6,0-.8.1-.2,0-.5.2-.6.4,0,.1-.2.4-.4.6,0,.2,0,.5,0,.7l-.4.2c0-.5,0-.8,0-1.3,0-.4.2-.7.5-1.1s.5-.6.7-.7.6-.2,1.1-.2.2,0,.4,0h.2ZM603,487.2h0c0-.7,0-1.2.2-1.7,0-.5.4-.8.7-1.2.2-.4.7-.6,1.1-.8.5-.2.9-.2,1.4-.2s.9,0,1.4.2.8.5,1.1.8c.4.4.5.7.7,1.2,0,.5.2.9.2,1.5h0c0,.7,0,1.2-.2,1.7,0,.5-.4.8-.7,1.2-.2.4-.7.6-1.1.8-.5.2-.9.2-1.4.2s-.9,0-1.4-.2-.8-.5-1.1-.8c-.2-.4-.5-.7-.7-1.2,0-.5-.2-.9-.2-1.5ZM604.3,487.1h0c0,.6,0,.9,0,1.2,0,.4.2.6.4.8.2.2.4.5.7.6.2.1.6.2.9.2s.7,0,.9-.2c.2-.1.5-.4.7-.6s.4-.6.4-.8c0-.4,0-.7,0-1.1h0c0-.5,0-.8,0-1.2,0-.4-.2-.6-.4-.8s-.4-.5-.7-.6c-.2-.1-.6-.2-.9-.2s-.7,0-.9.2c-.2.1-.5.4-.7.6,0,.2-.4.6-.4.8,0,.4,0,.7,0,1.1ZM611.4,480.3h1.3v10.6h-1.3v-10.6ZM617.7,487.1h0c0,.7,0,1.2-.2,1.7,0,.5-.4.8-.6,1.2s-.6.6-.9.8-.8.2-1.2.2-.9,0-1.3-.2c-.4-.1-.7-.4-.9-.7-.2-.4-.5-.7-.6-1.1,0-.5-.2-.9-.4-1.5v-.6c0-.6,0-1.1.4-1.5,0-.5.4-.8.6-1.2s.6-.6.9-.7.8-.2,1.2-.2.9,0,1.3.2.7.5.9.8c.2.4.5.7.6,1.2s.2.9.2,1.5h0ZM616.4,487.2h0v-1.2c0-.4-.2-.6-.4-.8s-.4-.5-.6-.6-.6-.2-.9-.2-.6,0-.8.1c-.2,0-.5.2-.6.5,0,.2-.4.4-.4.6s-.2.5-.2.7v1.7c0,.4.2.6.4.9,0,.2.4.6.7.7.2.2.6.2,1.1.2s.6,0,.9-.2c.2-.1.5-.4.6-.6s.2-.6.4-.8v-1.1h-.2ZM622.5,491c-.5,0-.9,0-1.4-.2s-.8-.5-1.1-.7c-.4-.4-.5-.7-.7-1.2,0-.5-.2-.9-.2-1.4v-.2c0-.6,0-1.2.2-1.7s.5-.9.7-1.2c.4-.4.7-.6,1.1-.7.4-.1.8-.2,1.2-.2s.9,0,1.4.2c.4.2.7.5.9.8.2.4.5.7.6,1.2s.2.9.2,1.4v.6h-5.6v-1.1h4.4c0-.5,0-.7-.2-1.1,0-.4-.4-.6-.6-.8s-.6-.4-1.1-.4-.6,0-.8.2c-.2.1-.5.4-.6.6s-.4.6-.4.8c0,.4,0,.7,0,1.2v.2c0,.4,0,.7,0,.9,0,.4.2.6.5.8s.5.5.7.6.6.2.9.2.8,0,1.2-.2.6-.5.8-.7l.8.6c0,.2-.4.5-.6.7s-.6.4-.9.6c-.4.1-.8.2-1.3.2l-.2-.2v.2Z"/>
    <path class="st13" d="M589.3,472.1v2.2M602.7,472.1v2.2M596,472.1v-20.2M592.7,460.9v1.1M599.4,460.9v1.1M586,465.4v-6.7c0-3.2,0-4.7,1.1-5.8,1.1-.9,2.7-.9,6.1-.9h5.9c3.3,0,5.1,0,6.1.9s1.1,2.6,1.1,5.8v6.7c0,3.2,0,4.7-1.1,5.8-1.1.9-2.7.9-6.1.9h-5.9c-3.3,0-5.1,0-6.1-.9s-1.1-2.6-1.1-5.8Z"/>
    <path class="st19" d="M395.4,488.3v-.6c0-.2-.2-.4-.4-.5-.1-.1-.5-.2-.7-.5-.4-.1-.7-.2-1.2-.4-.5-.1-.9-.4-1.3-.5-.4-.2-.7-.4-1.1-.6-.2-.2-.5-.5-.7-.8-.1-.4-.2-.7-.2-1.1s0-.7.2-1.1c.1-.4.4-.6.7-.8.4-.2.7-.5,1.1-.6.5-.1.9-.2,1.4-.2s1.4.1,1.9.5c.5.2.9.7,1.2,1.2s.5.9.5,1.5h-1.3c0-.4,0-.7-.2-1.1-.1-.2-.4-.5-.7-.7-.4-.1-.7-.2-1.3-.2s-.8,0-1.2.2c-.4.1-.6.4-.7.6s-.2.5-.2.8,0,.4.1.6c0,.1.2.4.5.5.2.1.5.2.7.4.4.1.7.2,1.1.4.6.1,1.1.4,1.5.6s.7.5,1.1.7c.2.2.5.5.6.8.1.4.2.7.2,1.1s0,.8-.2,1.1c-.1.4-.4.6-.7.8s-.7.5-1.1.6c-.5.1-.9.2-1.4.2s-.9,0-1.4-.2c-.5-.1-.8-.4-1.2-.6s-.7-.6-.8-.9c-.2-.4-.4-.8-.4-1.3h1.3c0,.4,0,.6.2.9.1.2.4.5.6.6s.5.2.8.4h.9c.5,0,.8,0,1.2-.2.4-.1.6-.4.7-.6s.2-.5.2-.8h-.4v-.2ZM402.8,489.1v-5.8h1.3v7.4h-1.2v-1.8h-.1v.2ZM403.1,487.6h.6c0,.5,0,.9-.1,1.4,0,.5-.2.8-.5,1.1-.2.4-.6.6-.9.7s-.8.2-1.4.2-.7,0-.9-.1c-.4,0-.6-.2-.8-.5-.2-.2-.4-.5-.5-.8,0-.4-.1-.8-.1-1.3v-4.8h1.3v5.7c0,.2.2.4.4.5.1.1.2.2.5.2h.5c.6,0,.9,0,1.3-.4.4-.2.6-.5.7-.8.1-.4.2-.7.2-1.2h-.3ZM410.9,483.5h1.2v7.3c0,.7-.1,1.2-.4,1.7-.2.5-.6.8-1.1,1.1-.5.2-1.1.4-1.7.4s-.6,0-.9-.1c-.4,0-.7-.2-1.1-.4-.4-.2-.6-.5-.8-.8l.7-.7c.4.4.6.6.9.8.4.1.7.2,1.1.2s.7,0,1.1-.2.5-.4.7-.7c.1-.2.2-.7.2-1.1v-7.4h0ZM405.8,487.2h0c0-.7,0-1.2.2-1.7.1-.5.4-.8.6-1.2s.6-.6.9-.8.8-.2,1.2-.2.8,0,1.2.2c.4.1.7.4.9.7.2.4.5.7.6,1.2s.2.9.4,1.5v.6c0,.6-.1,1.1-.4,1.5-.1.5-.4.8-.6,1.1-.2.4-.6.6-.9.7s-.8.2-1.3.2-.8,0-1.2-.2-.7-.5-.9-.8-.5-.7-.6-1.2-.2-.9-.2-1.5h.1,0ZM407,487.1h0v1.2c0,.4.2.6.4.8.1.2.4.5.6.6s.6.2.9.2.8,0,1.1-.2l.7-.7c.1-.2.2-.6.4-.9v-1.7c0-.2-.1-.5-.2-.7,0-.2-.2-.5-.4-.6-.1-.2-.4-.4-.6-.5-.2,0-.5-.1-.8-.1s-.7,0-.9.2c-.2.1-.5.4-.6.6s-.2.6-.4.8v1.1h-.2ZM418.9,483.5h1.2v7.3c0,.7-.1,1.2-.4,1.7-.2.5-.6.8-1.1,1.1-.5.2-1.1.4-1.7.4s-.6,0-.9-.1c-.4,0-.7-.2-1.1-.4-.4-.2-.6-.5-.8-.8l.7-.7c.4.4.6.6.9.8.4.1.7.2,1.1.2s.7,0,1.1-.2.5-.4.7-.7c.1-.2.2-.7.2-1.1v-7.4h0ZM413.7,487.2h0c0-.7,0-1.2.2-1.7.1-.5.4-.8.6-1.2s.6-.6.9-.8.8-.2,1.2-.2.8,0,1.2.2c.4.1.7.4.9.7.2.4.5.7.6,1.2s.2.9.4,1.5v.6c0,.6-.1,1.1-.4,1.5-.1.5-.4.8-.6,1.1-.2.4-.6.6-.9.7s-.8.2-1.3.2-.8,0-1.2-.2-.7-.5-.9-.8-.5-.7-.6-1.2-.2-.9-.2-1.5h.1,0ZM415,487.1h0v1.2c0,.4.2.6.4.8.1.2.4.5.6.6s.6.2.9.2.8,0,1.1-.2l.7-.7c.1-.2.2-.6.4-.9v-1.7c0-.2-.1-.5-.2-.7,0-.2-.2-.5-.4-.6-.1-.2-.4-.4-.6-.5-.2,0-.5-.1-.8-.1s-.7,0-.9.2c-.2.1-.5.4-.6.6s-.2.6-.4.8v1.1h-.2ZM425,491c-.5,0-.9,0-1.4-.2s-.8-.5-1.1-.7c-.4-.4-.5-.7-.7-1.2s-.2-.9-.2-1.4v-.2c0-.6,0-1.2.2-1.7s.5-.9.7-1.2c.4-.4.7-.6,1.1-.7s.8-.2,1.2-.2.9,0,1.4.2c.4.2.7.5.9.8.2.4.5.7.6,1.2s.2.9.2,1.4v.6h-5.6v-1.1h4.3c0-.5,0-.7-.2-1.1,0-.4-.4-.6-.6-.8s-.6-.4-1.1-.4-.6,0-.8.2c-.2.1-.5.4-.6.6s-.4.6-.4.8-.1.7-.1,1.2v.2c0,.4,0,.7.1.9,0,.4.2.6.5.8.2.2.5.5.7.6s.6.2.9.2.8,0,1.2-.2.6-.5.8-.7l.8.6c-.1.2-.4.5-.6.7s-.6.4-.9.6c-.4.1-.8.2-1.3.2v-.2.2ZM433.8,488.9c0-.2,0-.4-.1-.5,0-.1-.2-.4-.5-.5-.2-.1-.6-.2-1.1-.4-.5,0-.8-.2-1.2-.4-.4-.1-.6-.2-.8-.5-.2-.1-.4-.4-.6-.6-.1-.2-.2-.5-.2-.8s0-.6.2-.8c.1-.2.4-.5.6-.7s.6-.4.8-.5c.4,0,.7-.1,1.2-.1s1.1,0,1.5.4c.5.2.7.5.9.8.2.4.4.7.4,1.2h-1.3c0-.2,0-.4-.2-.6-.1-.2-.4-.4-.6-.5s-.5-.2-.8-.2-.6,0-.8.1c-.2,0-.4.2-.5.4,0,.1-.1.4-.1.5v.4s.1.2.2.4c.1,0,.4.1.5.2.2,0,.5.1.8.2.6.1,1.1.4,1.5.5s.7.5.9.7c.2.2.2.6.2,1.1s0,.6-.2.9c-.1.2-.4.5-.6.7s-.6.4-.9.5c-.4,0-.7.1-1.2.1s-1.2,0-1.7-.4c-.5-.2-.8-.6-1.1-.9-.2-.4-.4-.8-.4-1.2h1.3c0,.4.1.6.4.8.2.2.4.4.7.5.2,0,.6.1.8.1s.6,0,.8-.1c.2,0,.5-.2.6-.4.1-.1.2-.4.2-.6h.1l.3.2ZM439.9,483.5v.9h-4v-.9h4ZM437.2,481.6h1.3v8c0,.1.2.2.4.2h.9v1.1h-.9c-.2,0-.6,0-.8-.2-.2-.1-.5-.4-.6-.6s-.2-.7-.2-1.2v-7.4h0Z"/>
    <path class="st3" d="M406.4,454.9c0-.1,0-.4.1-.5,0,0,.2-.1.5-.1h16.5c.1,0,.4,0,.5.1,0,0,.1.2.1.5v13.8s0,.1-.1.2c0,0-.1,0-.2.1h-4.6s-.1,0-.2.1l-3.3,3.5s-.1,0-.2.1h-.5s-.1,0-.2-.1l-3.3-3.5s-.1,0-.2-.1h-4.4c-.1,0-.4,0-.5-.1,0,0-.1-.2-.1-.5v-13.6h.2,0Z"/>
    <path class="st6" d="M415.2,458.2l1.4,2.5,2.5,1.4-2.5,1.4-1.4,2.5-1.4-2.5-2.5-1.4,2.5-1.4,1.4-2.5Z"/>
    <path class="st19" d="M309.4,485.1v1.1h-5.4v-1.1h5.4ZM304.2,480.9v10h-1.3v-10h1.3ZM310.6,480.9v10h-1.3v-10h1.3ZM312.4,487.2h0c0-.7,0-1.2.2-1.7.1-.5.4-.8.7-1.2.2-.4.7-.6,1.1-.8.5-.2.9-.2,1.4-.2s.9,0,1.4.2.8.5,1.1.8c.4.4.5.7.7,1.2.1.5.2.9.2,1.5h0c0,.7,0,1.2-.2,1.7-.1.5-.4.8-.7,1.2-.2.4-.7.6-1.1.8-.5.2-.9.2-1.4.2s-.9,0-1.4-.2-.8-.5-1.1-.8c-.2-.4-.5-.7-.7-1.2-.1-.5-.2-.9-.2-1.5ZM313.6,487.1h0c0,.6,0,.9.1,1.2,0,.4.2.6.4.8s.4.5.7.6c.2.1.6.2.9.2s.7,0,.9-.2c.2-.1.5-.4.7-.6.1-.2.4-.6.4-.8,0-.4.1-.7.1-1.1h0c0-.5,0-.8-.1-1.2,0-.4-.2-.6-.4-.8-.1-.2-.4-.5-.7-.6-.2-.1-.6-.2-.9-.2s-.7,0-.9.2c-.2.1-.5.4-.7.6-.1.2-.4.6-.4.8,0,.4-.1.7-.1,1.1ZM322.1,484.9v6h-1.3v-7.4h1.2v1.5h.1,0ZM321.8,486.9h-.6c0-.6,0-1.1.2-1.4.1-.5.4-.8.6-1.2s.6-.6.9-.7c.4-.2.8-.2,1.3-.2s.7,0,.9.1c.2,0,.6.2.7.5.2.2.4.5.5.8.1.4.2.7.2,1.2v5h-1.3v-5c0-.4,0-.7-.2-.9-.1-.2-.4-.4-.6-.5-.2,0-.5-.1-.8-.1s-.7,0-.9.2c-.2.1-.5.4-.6.6s-.2.5-.4.8v.9h0ZM326.7,486.2l-.8.2c0-.4,0-.8.2-1.2.1-.4.4-.7.6-1.1.2-.2.6-.5.9-.7.4-.1.8-.2,1.3-.2s.7,0,1.1.1c.4,0,.6.2.8.5.2.2.4.5.5.8,0,.4.1.7.1,1.2v5h-1.3v-5c0-.5,0-.7-.2-.9-.1-.2-.4-.4-.6-.5-.2,0-.5-.1-.8-.1s-.5,0-.7.1c-.2,0-.4.2-.6.4-.1.1-.2.4-.4.6v.7h-.1ZM336.3,491c-.5,0-.9,0-1.4-.2s-.8-.5-1.1-.7c-.4-.4-.5-.7-.7-1.2s-.2-.9-.2-1.4v-.2c0-.6,0-1.2.2-1.7s.5-.9.7-1.2c.4-.4.7-.6,1.1-.7s.8-.2,1.2-.2.9,0,1.4.2c.4.2.7.5.9.8.2.4.5.7.6,1.2s.2.9.2,1.4v.6h-5.6v-1.1h4.3c0-.5,0-.7-.2-1.1,0-.4-.4-.6-.6-.8s-.6-.4-1.1-.4-.6,0-.8.2c-.2.1-.5.4-.6.6s-.4.6-.4.8-.1.7-.1,1.2v.2c0,.4,0,.7.1.9,0,.4.2.6.5.8.2.2.5.5.7.6s.6.2.9.2.8,0,1.2-.2.6-.5.8-.7l.8.6c-.1.2-.4.5-.6.7s-.6.4-.9.6c-.4.1-.8.2-1.3.2v-.2.2Z"/>
    <path class="st5" d="M314.2,473.2c-1.3,0-2.4-1.1-2.4-2.5v-9.8c0-.7.4-1.4.9-1.9l6.5-5.3c.5-.4.9-.6,1.5-.6s1.1.2,1.5.6l6.5,5.3c.6.5.9,1.2.9,1.9v9.8c0,1.3-1.1,2.5-2.4,2.5h-13.2.2Z"/>
    <path class="st5" d="M318,473.2v-6.1c0-.6.2-1.2.7-1.5.5-.5.9-.7,1.5-.7h1.1c.6,0,1.2.2,1.5.7s.7.9.7,1.5v6.1"/>
    <path class="st9" d="M504.4,476c3.5,0,6.4-2.8,6.4-6.4s-2.8-6.4-6.4-6.4-6.4,2.8-6.4,6.4,2.8,6.4,6.4,6.4Z"/>
    <path class="st9" d="M499.7,486.6h9.5c6.6,0,9.9,0,12.3-1.5,1.1-.7,1.9-1.5,2.6-2.6,1.5-2.4,1.5-5.6,1.5-12.2s0-9.8-1.5-12.2c-.7-1.1-1.5-1.9-2.6-2.6-1.5-1.1-3.4-1.4-6.4-1.5-1.4,0-2.6-1.1-2.8-2.4-.2-.9-.7-1.9-1.5-2.5s-1.8-.9-2.8-.9h-7c-2.1,0-3.9,1.4-4.4,3.4-.2,1.3-1.5,2.4-2.8,2.4-3,.1-4.8.5-6.4,1.5-1.1.7-1.9,1.5-2.6,2.6-1.5,2.4-1.5,5.6-1.5,12.2s0,9.8,1.5,12.2c.7,1.1,1.5,1.9,2.6,2.6,2.4,1.5,5.7,1.5,12.3,1.5h.1-.1Z"/>
    <path class="st10" d="M519.3,463.3h-2.1"/>
    <rect class="st17" x="981.8" y="424.7" width="464.3" height="94.5" rx="15" ry="15"/>
    <path class="st15" d="M1381.7,487h-2.7v-1.1h2.7c.5,0,.9,0,1.3-.2.4-.1.6-.4.7-.7s.2-.6.2-1.1,0-.7-.2-.9c0-.4-.4-.6-.7-.7-.4-.2-.7-.2-1.3-.2h-2.4v9h-1.3v-10h3.8c.7,0,1.4.1,1.9.4.5.2.9.6,1.2,1.1s.4.9.4,1.5,0,1.2-.4,1.7c-.2.5-.7.8-1.2,1.1-.5.2-1.2.4-1.9.4h0v-.3ZM1388,484.6v6.3h-1.3v-7.4h1.3v1.2h0ZM1390.3,483.3v1.2h-.7c-.2,0-.6,0-.8.1-.2,0-.5.2-.6.4,0,.1-.2.4-.4.6,0,.2,0,.5,0,.7l-.4.2c0-.5,0-.8,0-1.3,0-.4.2-.7.5-1.1.2-.4.5-.6.7-.7s.7-.2,1.1-.2h.6ZM1391,487.2h0c0-.7,0-1.2.2-1.7,0-.5.4-.8.7-1.2.2-.4.6-.6,1.1-.8s.9-.2,1.4-.2.9,0,1.4.2.8.5,1.1.8c.2.4.5.7.7,1.2,0,.5.2.9.2,1.5h0c0,.7,0,1.2-.2,1.7,0,.5-.4.8-.7,1.2-.2.4-.7.6-1.1.8s-.9.2-1.4.2-1.1,0-1.4-.2c-.5-.2-.8-.5-1.1-.8-.2-.4-.5-.7-.7-1.2,0-.5-.2-.9-.2-1.5ZM1392.3,487.1h0c0,.6,0,.9,0,1.2,0,.4.2.6.4.8.2.2.4.5.7.6.2.1.6.2.9.2s.6,0,.9-.2c.2-.1.5-.4.7-.6s.4-.6.4-.8c0-.4,0-.7,0-1.1h0c0-.5,0-.8,0-1.2,0-.4-.2-.6-.4-.8-.2-.2-.4-.5-.7-.6-.2-.1-.6-.2-.9-.2s-.7,0-.9.2c-.2.1-.5.4-.7.6,0,.2-.4.6-.4.8,0,.4,0,.7,0,1.1ZM1401.2,490.9h-1.3v-8.2c0-.6,0-1.1.4-1.4.2-.4.6-.7.9-.9.4-.2.9-.4,1.4-.4s.7,0,.9.1c.4,0,.6.2.9.4l-.2,1.1c-.2,0-.5-.1-.7-.2h-.9c-.6,0-.9.1-1.2.4-.2.2-.4.6-.4,1.1v8.2h0v-.2ZM1402.7,483.5v.9h-4v-.9h4ZM1405.2,483.5v7.4h-1.3v-7.4h1.3ZM1408.8,480.3v10.6h-1.3v-10.6h1.3ZM1413.8,491c-.5,0-.9,0-1.4-.2s-.8-.5-1.1-.7c-.2-.4-.5-.7-.7-1.2,0-.5-.2-.9-.2-1.4v-.2c0-.6,0-1.2.2-1.7,0-.5.5-.9.7-1.2.4-.4.7-.6,1.1-.7s.8-.2,1.2-.2.9,0,1.4.2c.4.2.7.5.9.8.2.4.5.7.6,1.2,0,.5,0,.9,0,1.4v.6h-5.6v-1.1h4.4c0-.5,0-.7-.2-1.1,0-.4-.2-.6-.6-.8-.2-.2-.6-.4-1.1-.4s-.6,0-.8.2c-.2.1-.5.4-.6.6s-.4.6-.4.8c0,.4,0,.7,0,1.2v.2c0,.4,0,.7,0,.9,0,.4.2.6.5.8.2.2.5.5.7.6s.6.2.9.2.8,0,1.2-.2.6-.5.8-.7l.8.6c0,.2-.4.5-.6.7s-.6.4-.9.6c-.4.1-.8.2-1.3.2v-.2.2Z"/>
    <path class="st12" d="M1387,470.7c0-1.3.5-2.6,1.4-3.5s2.2-1.4,3.5-1.4h10c1.3,0,2.6.5,3.5,1.4s1.4,2.2,1.4,3.5-.2,1.3-.7,1.8-1.1.7-1.8.7h-15.1c-.7,0-1.3-.2-1.8-.7s-.7-1.1-.7-1.8h.3Z"/>
    <path class="st4" d="M1397.1,460.7c2.1,0,3.8-1.7,3.8-3.8s-1.7-3.8-3.8-3.8-3.8,1.7-3.8,3.8,1.7,3.8,3.8,3.8Z"/>
    <path class="st19" d="M1277.6,487.8l2-7.1h.9l-.6,2.7-2.1,7.3h-.9l.7-3.1h0v.2ZM1275.6,480.9l1.5,6.9.5,3.2h-.9l-2.5-10h1.4ZM1283.2,487.7l1.5-6.9h1.3l-2.5,10h-.9l.5-3.2h0ZM1280.8,480.9l2,7.1.7,3.1h-.9l-2.1-7.3-.6-2.7h.9v-.2ZM1291.6,489.6v-3.9c0-.2,0-.6-.2-.7,0-.2-.2-.4-.5-.5-.2-.1-.5-.2-.8-.2s-.6,0-.8.1c-.2,0-.5.2-.6.5,0,.2-.2.4-.2.6h-1.3c0-.2,0-.6.2-.8,0-.2.4-.5.6-.7s.6-.4.9-.5.8-.2,1.2-.2,1.1,0,1.4.2c.4.2.7.5.9.8.2.4.4.8.4,1.4v4.4c0,.2,0,.5.2.7h-1.3c0-.1,0-.4,0-.6v-.7h0ZM1291.8,486.4v.9h-2.2c-.2,0-.5.1-.7.2-.2,0-.4.2-.5.5,0,.1,0,.4,0,.6s0,.5,0,.6.2.4.5.5c.2,0,.5.1.8.1s.7,0,1.1-.2c.4-.1.6-.4.7-.6.2-.2.2-.5.2-.7l.6.6c0,.2,0,.4-.2.6s-.4.5-.6.7-.5.4-.8.6c-.4.1-.7.2-1.1.2s-.9,0-1.3-.4c-.4-.2-.7-.5-.9-.8-.2-.4-.4-.7-.4-1.2s0-.7.2-1.1c0-.4.4-.6.7-.8.2-.2.7-.4,1.1-.5.4,0,.8-.1,1.4-.1h1.5v.2h0ZM1296.2,484.6v6.3h-1.3v-7.4h1.3v1.2h0ZM1298.5,483.3v1.2h-.7c-.2,0-.6,0-.8.1-.2,0-.5.2-.6.4,0,.1-.2.4-.4.6,0,.2,0,.5,0,.7l-.4.2c0-.5,0-.8,0-1.3,0-.4.2-.7.5-1.1.2-.4.5-.6.7-.7s.7-.2,1.1-.2h.6ZM1304.2,489.5v-9.2h1.3v10.6h-1.2v-1.4h-.1ZM1299.2,487.2h0c0-.7,0-1.2.2-1.7,0-.5.4-.8.6-1.2s.6-.6.9-.8.8-.2,1.2-.2.8,0,1.2.2c.4.1.7.4.9.7.2.4.5.7.6,1.2s.2.9.2,1.5v.6c0,.6,0,1.1-.2,1.5s-.4.8-.6,1.1c-.2.4-.6.6-.9.7s-.8.2-1.3.2-.8,0-1.2-.2-.7-.5-.9-.8c-.2-.4-.5-.7-.6-1.2s-.2-.9-.2-1.5h.1ZM1300.5,487.1h0v1.2c0,.4.2.6.4.8,0,.2.4.5.6.6s.6.2.9.2.8,0,1.1-.2c.2-.2.5-.5.7-.7s.2-.6.4-.9v-1.7c0-.2,0-.5-.2-.7,0-.2-.2-.5-.4-.6,0-.2-.4-.4-.6-.5-.2,0-.5-.1-.8-.1s-.6,0-.9.2c-.2.1-.5.4-.6.6s-.2.6-.4.8v1.1h-.2ZM1308.8,484.6v6.3h-1.3v-7.4h1.3v1.2h0ZM1311.2,483.3v1.2h-.7c-.2,0-.6,0-.8.1-.2,0-.4.2-.6.4,0,.1-.2.4-.4.6,0,.2,0,.5-.2.7l-.4.2c0-.5,0-.8,0-1.3,0-.4.2-.7.5-1.1.2-.4.5-.6.7-.7s.6-.2,1.1-.2.2,0,.4,0h.4,0ZM1311.9,487.2h0c0-.7,0-1.2.2-1.7,0-.5.4-.8.7-1.2.2-.4.6-.6,1.1-.8s.9-.2,1.4-.2.9,0,1.4.2.8.5,1.1.8c.4.4.5.7.7,1.2,0,.5.2.9.2,1.5h0c0,.7,0,1.2-.2,1.7,0,.5-.4.8-.7,1.2-.2.4-.7.6-1.1.8-.5.2-.9.2-1.4.2s-.9,0-1.4-.2-.8-.5-1.1-.8c-.2-.4-.6-.7-.7-1.2s-.2-.9-.2-1.5ZM1313.2,487.1h0c0,.6,0,.9,0,1.2,0,.4.2.6.4.8,0,.2.4.5.7.6.2.1.6.2.9.2s.7,0,.9-.2c.2-.1.5-.4.7-.6s.4-.6.4-.8c0-.4,0-.7,0-1.1h0c0-.5,0-.8,0-1.2,0-.4-.2-.6-.4-.8-.2-.2-.4-.5-.7-.6-.2-.1-.6-.2-.9-.2s-.7,0-.9.2c-.2.1-.5.4-.7.6s-.4.6-.4.8c0,.4,0,.7,0,1.1ZM1320.3,480.3h1.3v10.6h-1.3v-10.6ZM1326.7,487.1h0c0,.7,0,1.2-.2,1.7,0,.5-.4.8-.6,1.2s-.6.6-.9.8-.8.2-1.2.2-.9,0-1.3-.2c-.4-.1-.6-.4-.9-.7-.2-.4-.5-.7-.6-1.1,0-.5-.2-.9-.2-1.5v-.6c0-.6,0-1.1.2-1.5s.4-.8.6-1.2.6-.6.9-.7.8-.2,1.3-.2.9,0,1.3.2.7.5.9.8c.2.4.5.7.6,1.2s.2.9.2,1.5h-.1ZM1325.4,487.2h0v-1.2c0-.4,0-.6-.4-.8,0-.2-.4-.5-.6-.6s-.6-.2-.9-.2-.6,0-.8.1c-.2,0-.5.2-.6.5,0,.2-.4.4-.5.6,0,.2,0,.5-.2.7v1.7c0,.4.2.6.4.9,0,.2.4.6.7.7s.6.2,1.1.2.6,0,.9-.2c.2-.1.5-.4.6-.6s.2-.6.4-.8v-1.1h0ZM1331.4,491c-.5,0-.9,0-1.4-.2-.4-.2-.8-.5-1.1-.7-.2-.4-.6-.7-.7-1.2s-.2-.9-.2-1.4v-.2c0-.6,0-1.2.2-1.7s.5-.9.7-1.2c.4-.4.7-.6,1.1-.7s.8-.2,1.2-.2.9,0,1.4.2c.4.2.7.5.9.8.2.4.5.7.6,1.2s.2.9.2,1.4v.6h-5.6v-1.1h4.4c0-.5,0-.7-.2-1.1,0-.4-.2-.6-.6-.8-.2-.2-.6-.4-1.1-.4s-.6,0-.8.2c-.2.1-.5.4-.6.6-.2.2-.4.6-.5.8,0,.4,0,.7,0,1.2v.2c0,.4,0,.7,0,.9,0,.4.2.6.5.8.2.2.5.5.7.6s.6.2.9.2.8,0,1.2-.2.6-.5.8-.7l.8.6c0,.2-.4.5-.6.7s-.6.4-.9.6c-.4.1-.8.2-1.3.2v-.2.2Z"/>
    <path class="st5" d="M1298.2,472.1v2.2M1311.6,472.1v2.2M1305,472.1v-20.2M1301.6,460.9v1.1M1308.3,460.9v1.1M1294.9,465.4v-6.7c0-3.2,0-4.7,1.1-5.8,1.1-.9,2.7-.9,6.1-.9h5.9c3.3,0,5.1,0,6.1.9,1.1.9,1.1,2.6,1.1,5.8v6.7c0,3.2,0,4.7-1.1,5.8-1.1.9-2.7.9-6.1.9h-5.9c-3.4,0-5.1,0-6.1-.9-1.1-.9-1.1-2.6-1.1-5.8Z"/>
    <path class="st19" d="M1104.3,488.3v-.6c0-.2-.2-.4-.4-.5s-.4-.2-.7-.5c-.4-.1-.7-.2-1.2-.4-.5-.1-.9-.4-1.3-.5-.4-.2-.7-.4-1.1-.6s-.5-.5-.7-.8c0-.4-.2-.7-.2-1.1s0-.7.2-1.1c0-.4.4-.6.7-.8.4-.2.7-.5,1.1-.6.5-.1.9-.2,1.4-.2s1.4.1,1.9.5c.5.2.9.7,1.2,1.2s.5.9.5,1.5h-1.3c0-.4,0-.7-.2-1.1,0-.2-.4-.5-.7-.7-.4-.1-.7-.2-1.2-.2s-.8,0-1.2.2c-.4.1-.6.4-.7.6s-.2.5-.2.8,0,.4,0,.6c0,.1.2.4.5.5s.5.2.7.4c.2.1.7.2,1.1.4.6.1,1.1.4,1.4.6s.7.5,1.1.7c.2.2.5.5.6.8,0,.4.2.7.2,1.1s0,.8-.2,1.1c0,.4-.4.6-.7.8-.4.2-.7.5-1.1.6-.5.1-.9.2-1.4.2s-.9,0-1.4-.2-.8-.4-1.2-.6-.7-.6-.9-.9c-.2-.4-.4-.8-.4-1.3h1.3c0,.4,0,.6.2.9,0,.2.4.5.6.6s.5.2.8.4h.9c.5,0,.8,0,1.2-.2.4-.1.6-.4.7-.6.2-.2.2-.5.2-.8h-.2v-.2ZM1111.7,489.1v-5.8h1.3v7.4h-1.2v-1.8h0v.2ZM1112,487.6h.5c0,.5,0,.9,0,1.4,0,.5-.2.8-.5,1.1-.2.4-.5.6-.9.7s-.8.2-1.4.2-.7,0-.9-.1c-.2,0-.6-.2-.8-.5-.2-.2-.4-.5-.5-.8,0-.4-.2-.8-.2-1.3v-4.8h1.3v5.7c0,.2.2.4.4.5,0,.1.2.2.5.2h.5c.6,0,.9,0,1.3-.4.4-.2.6-.5.7-.8,0-.4.2-.7.2-1.2h0-.2ZM1119.8,483.5h1.2v7.3c0,.7,0,1.2-.4,1.7-.2.5-.6.8-1.1,1.1-.5.2-1.1.4-1.7.4s-.6,0-.9-.1c-.4,0-.7-.2-1.1-.4-.4-.2-.6-.5-.8-.8l.7-.7c.4.4.7.6.9.8.4.1.7.2,1.1.2s.7,0,1.1-.2.5-.4.7-.7c0-.2.2-.7.2-1.1v-7.4h.1ZM1114.7,487.2h0c0-.7,0-1.2.2-1.7,0-.5.4-.8.6-1.2s.6-.6.9-.8.7-.2,1.2-.2.9,0,1.2.2c.4.1.7.4.9.7.2.4.5.7.6,1.2s.2.9.4,1.5v.6c0,.6,0,1.1-.4,1.5,0,.5-.4.8-.6,1.1-.2.4-.6.6-.9.7s-.8.2-1.3.2-.8,0-1.2-.2-.7-.5-.9-.8-.5-.7-.6-1.2-.2-.9-.2-1.5h.1ZM1115.9,487.1h0v1.2c0,.4.2.6.4.8,0,.2.4.5.6.6s.6.2.9.2.8,0,1.1-.2c.2-.2.5-.5.7-.7s.2-.6.4-.9v-1.7c0-.2,0-.5-.2-.7,0-.2-.2-.5-.4-.6,0-.2-.4-.4-.6-.5-.2,0-.5-.1-.8-.1s-.6,0-.9.2c-.2.1-.5.4-.6.6s-.2.6-.4.8v1.1h-.2ZM1127.8,483.5h1.2v7.3c0,.7,0,1.2-.4,1.7-.2.5-.6.8-1.1,1.1-.5.2-1.1.4-1.7.4s-.6,0-.9-.1c-.4,0-.7-.2-1.1-.4-.4-.2-.6-.5-.8-.8l.7-.7c.4.4.6.6.9.8.4.1.7.2,1.1.2s.7,0,1.1-.2.5-.4.7-.7c0-.2.2-.7.2-1.1v-7.4h.1ZM1122.6,487.2h0c0-.7,0-1.2.2-1.7,0-.5.4-.8.6-1.2s.6-.6.9-.8.8-.2,1.2-.2.9,0,1.2.2c.4.1.7.4.9.7.2.4.5.7.6,1.2s.2.9.2,1.5v.6c0,.6,0,1.1-.2,1.5s-.4.8-.6,1.1c-.2.4-.6.6-.9.7s-.8.2-1.3.2-.8,0-1.2-.2-.7-.5-.9-.8-.5-.7-.6-1.2-.2-.9-.2-1.5h.1ZM1123.9,487.1h0v1.2c0,.4.2.6.4.8,0,.2.4.5.6.6s.6.2.9.2.8,0,1.1-.2c.2-.2.5-.5.7-.7s.2-.6.4-.9v-1.7c0-.2,0-.5-.2-.7,0-.2-.2-.5-.4-.6,0-.2-.4-.4-.6-.5-.2,0-.5-.1-.8-.1s-.6,0-.9.2c-.2.1-.5.4-.6.6s-.2.6-.4.8v1.1h-.2ZM1133.9,491c-.5,0-.9,0-1.4-.2-.4-.2-.8-.5-1.1-.7-.2-.4-.5-.7-.7-1.2,0-.5-.2-.9-.2-1.4v-.2c0-.6,0-1.2.2-1.7s.5-.9.7-1.2c.4-.4.7-.6,1.1-.7s.8-.2,1.2-.2.9,0,1.4.2c.4.2.7.5.9.8.2.4.5.7.6,1.2,0,.5.2.9.2,1.4v.6h-5.6v-1.1h4.3c0-.5,0-.7-.2-1.1,0-.4-.2-.6-.6-.8-.2-.2-.6-.4-1.1-.4s-.6,0-.8.2c-.2.1-.5.4-.6.6s-.4.6-.4.8c0,.4,0,.7,0,1.2v.2c0,.4,0,.7,0,.9,0,.4.2.6.5.8.2.2.5.5.7.6s.6.2.9.2.8,0,1.2-.2.6-.5.8-.7l.8.6c0,.2-.4.5-.6.7s-.6.4-.9.6c-.4.1-.8.2-1.3.2v-.2.2ZM1142.7,488.9c0-.2,0-.4,0-.5,0-.1-.2-.4-.5-.5-.2-.1-.6-.2-1.1-.4-.5,0-.8-.2-1.2-.4-.4-.1-.6-.2-.8-.5-.2-.1-.4-.4-.5-.6,0-.2-.2-.5-.2-.8s0-.6.2-.8c0-.2.4-.5.6-.7s.6-.4.9-.5c.4,0,.7-.1,1.2-.1s1.1,0,1.5.4c.5.2.7.5.9.8.2.4.4.7.4,1.2h-1.3c0-.2,0-.4-.2-.6,0-.2-.4-.4-.6-.5s-.5-.2-.8-.2-.6,0-.8.1c-.2,0-.4.2-.5.4,0,.1,0,.4,0,.5v.4s0,.2.2.4c0,0,.2.1.5.2.2,0,.5.1.8.2.6.1,1.1.4,1.5.5.4.2.7.5.9.7.2.2.2.6.2,1.1s0,.6-.2.9c0,.2-.4.5-.6.7s-.6.4-.9.5c-.4,0-.7.1-1.2.1s-1.2,0-1.7-.4c-.5-.2-.8-.6-1.1-.9-.2-.4-.4-.8-.4-1.2h1.3c0,.4,0,.6.2.8s.4.4.7.5c.2,0,.6.1.8.1s.7,0,.9-.1c.2,0,.4-.2.6-.4,0-.1.2-.4.2-.6h0l.4.2ZM1148.8,483.5v.9h-4v-.9h4ZM1146.1,481.6h1.3v8c0,.1.2.2.2.2h.9v1.1h-.9c-.2,0-.6,0-.8-.2-.2-.1-.5-.4-.6-.6s-.2-.7-.2-1.2v-7.4h0Z"/>
    <path class="st3" d="M1115.3,454.9c0-.1,0-.4.2-.5,0,0,.2-.1.4-.1h16.5c0,0,.4,0,.4.1,0,0,.2.2.2.5v13.8s0,.1,0,.2h-.2c0,.1,0,.1-.2.1h-4.3s0,0-.2.1l-3.3,3.5h-.2c0,.1,0,.1-.2.1h-.2s0,0-.2-.1l-3.3-3.5s0,0-.2-.1h-4.3c0,0-.4,0-.4-.1,0,0-.2-.2-.2-.5v-13.6h-.2Z"/>
    <path class="st6" d="M1124.1,458.2l1.4,2.5,2.5,1.4-2.5,1.4-1.4,2.5-1.4-2.5-2.5-1.4,2.5-1.4,1.4-2.5Z"/>
    <path class="st19" d="M1018.3,485.1v1.1h-5.4v-1.1h5.4ZM1013.1,480.9v10h-1.3v-10h1.3ZM1019.5,480.9v10h-1.3v-10h1.3ZM1021.4,487.2h0c0-.7,0-1.2.2-1.7,0-.5.4-.8.7-1.2.2-.4.7-.6,1.1-.8.5-.2.9-.2,1.4-.2s.9,0,1.4.2.8.5,1.1.8c.4.4.5.7.7,1.2,0,.5.2.9.2,1.5h0c0,.7,0,1.2-.2,1.7,0,.5-.4.8-.7,1.2-.2.4-.7.6-1.1.8-.5.2-.9.2-1.4.2s-.9,0-1.4-.2-.8-.5-1.1-.8c-.2-.4-.5-.7-.7-1.2,0-.5-.2-.9-.2-1.5ZM1022.5,487.1h0c0,.6,0,.9,0,1.2,0,.4.2.6.4.8.2.2.4.5.7.6.2.1.6.2.9.2s.7,0,.9-.2c.2-.1.5-.4.7-.6,0-.2.4-.6.4-.8,0-.4,0-.7,0-1.1h0c0-.5,0-.8,0-1.2,0-.4-.2-.6-.4-.8s-.4-.5-.7-.6c-.2-.1-.6-.2-.9-.2s-.7,0-.9.2c-.2.1-.5.4-.7.6,0,.2-.4.6-.4.8,0,.4,0,.7,0,1.1h0ZM1031,484.9v6h-1.3v-7.4h1.2v1.5h.1ZM1030.7,486.9h-.6c0-.6,0-1.1.2-1.4,0-.5.4-.8.6-1.2s.6-.6.9-.7c.4-.2.8-.2,1.3-.2s.7,0,.9.1c.2,0,.6.2.8.5.2.2.4.5.5.8,0,.4.2.7.2,1.2v5h-1.3v-5c0-.4,0-.7-.2-.9,0-.2-.4-.4-.6-.5-.2,0-.5-.1-.8-.1s-.7,0-.9.2c-.2.1-.5.4-.6.6s-.2.5-.4.8v.9h0,0ZM1035.6,486.2l-.8.2c0-.4,0-.8.2-1.2,0-.4.4-.7.6-1.1.2-.2.6-.5.9-.7.4-.1.8-.2,1.3-.2s.7,0,1.1.1c.4,0,.6.2.8.5.2.2.4.5.5.8,0,.4,0,.7,0,1.2v5h-1.3v-5c0-.5,0-.7-.2-.9,0-.2-.4-.4-.6-.5-.2,0-.5-.1-.8-.1s-.6,0-.7.1c-.2,0-.4.2-.6.4,0,.1-.2.4-.4.6v.7h0ZM1045.2,491c-.5,0-.9,0-1.4-.2-.4-.2-.8-.5-1.1-.7-.2-.4-.6-.7-.7-1.2s-.2-.9-.2-1.4v-.2c0-.6,0-1.2.2-1.7s.5-.9.7-1.2c.4-.4.7-.6,1.1-.7s.8-.2,1.2-.2,1.1,0,1.4.2.7.5.9.8c.2.4.5.7.6,1.2,0,.5.2.9.2,1.4v.6h-5.6v-1.1h4.4c0-.5,0-.7-.2-1.1,0-.4-.2-.6-.6-.8-.2-.2-.6-.4-1.1-.4s-.6,0-.8.2c-.2.1-.5.4-.6.6-.2.2-.4.6-.5.8,0,.4,0,.7,0,1.2v.2c0,.4,0,.7,0,.9,0,.4.2.6.5.8s.5.5.7.6.6.2.9.2.8,0,1.2-.2.6-.5.8-.7l.8.6c0,.2-.4.5-.6.7s-.6.4-.9.6c-.4.1-.8.2-1.3.2v-.2.2Z"/>
    <path class="st5" d="M1023.1,473.2c-1.3,0-2.4-1.1-2.4-2.5v-9.8c0-.7.4-1.4.9-1.9l6.5-5.3c.5-.4.9-.6,1.5-.6s1.1.2,1.5.6l6.5,5.3c.6.5.9,1.2.9,1.9v9.8c0,1.3-1.1,2.5-2.4,2.5h-13.2.2Z"/>
    <path class="st5" d="M1026.9,473.2v-6.1c0-.6.2-1.2.7-1.5.5-.5.9-.7,1.5-.7h1.1c.6,0,1.2.2,1.5.7s.7.9.7,1.5v6.1"/>
    <path class="st9" d="M1213.3,476c3.5,0,6.4-2.8,6.4-6.4s-2.8-6.4-6.4-6.4-6.4,2.8-6.4,6.4,2.8,6.4,6.4,6.4Z"/>
    <path class="st9" d="M1208.6,486.6h9.5c6.6,0,9.9,0,12.3-1.5,1.1-.7,1.9-1.5,2.6-2.6,1.5-2.4,1.5-5.6,1.5-12.2s0-9.8-1.5-12.2c-.7-1.1-1.5-1.9-2.6-2.6-1.5-1.1-3.4-1.4-6.4-1.5-1.4,0-2.6-1.1-2.8-2.4-.2-.9-.7-1.9-1.5-2.5s-1.8-.9-2.8-.9h-7c-2.1,0-3.9,1.4-4.4,3.4-.2,1.3-1.4,2.4-2.8,2.4-3,.1-4.8.5-6.4,1.5-1.1.7-1.9,1.5-2.6,2.6-1.5,2.4-1.5,5.6-1.5,12.2s0,9.8,1.5,12.2c.7,1.1,1.5,1.9,2.6,2.6,2.4,1.5,5.7,1.5,12.3,1.5h0,0Z"/>
    <path class="st10" d="M1228.2,463.3h-2.1"/>
  </g>
  <g id="Layer_2">
    <line class="st7" x1="278.4" y1="220.1" x2="278.4" y2="209.3"/>
    <g>
      <line class="st8" x1="672.7" y1="236.7" x2="672.7" y2="131.4"/>
      <polygon class="st18" points="677.8 230.9 672.7 236 667.6 230.9 667.6 235.2 672.7 240.3 677.8 235.2 677.8 230.9"/>
    </g>
    <g>
      <line class="st8" x1="810.4" y1="232.9" x2="810.4" y2="131.4"/>
      <polygon class="st18" points="815.5 227.1 810.4 232.2 805.3 227.1 805.3 231.4 810.4 236.5 815.5 231.4 815.5 227.1"/>
    </g>
    <g class="st16">
      <text class="st1" transform="translate(616.6 112.8)"><tspan x="0" y="0">#FFFFFF</tspan></text>
    </g>
    <g class="st16">
      <text class="st1" transform="translate(223.6 179.3)"><tspan x="0" y="0">36px</tspan></text>
    </g>
    <g>
      <line class="st8" x1="993.7" y1="236.7" x2="993.7" y2="131.4"/>
      <polygon class="st18" points="998.8 230.9 993.7 236 988.6 230.9 988.6 235.2 993.7 240.3 998.8 235.2 998.8 230.9"/>
    </g>
    <g>
      <line class="st8" x1="1166.9" y1="301.8" x2="1166.9" y2="345.9"/>
      <polygon class="st18" points="1161.8 307.6 1166.9 302.5 1172 307.6 1172 303.3 1166.9 298.2 1161.8 303.3 1161.8 307.6"/>
    </g>
    <g>
      <line class="st11" x1="1396.5" y1="192.1" x2="1396.5" y2="212"/>
      <polygon class="st18" points="1392.4 211 1396.5 214.4 1400.6 211 1400.6 208.3 1396.5 211.6 1392.4 208.3 1392.4 211"/>
    </g>
    <g class="st16">
      <text class="st1" transform="translate(938.3 112.8)"><tspan x="0" y="0">#787878</tspan></text>
    </g>
    <g class="st16">
      <text class="st1" transform="translate(1141 379.3)"><tspan x="0" y="0">12px</tspan></text>
    </g>
    <g class="st16">
      <text class="st1" transform="translate(758.6 111.8)"><tspan x="0" y="0">#066051</tspan></text>
    </g>
    <line class="st7" x1="223.4" y1="210.6" x2="279.7" y2="210.6"/>
    <line class="st7" x1="223.8" y1="220.1" x2="223.8" y2="209.3"/>
  </g>
  <text class="st18" transform="translate(1315.7 112)"><tspan class="st20"><tspan x="0" y="0">Drop Shadow</tspan></tspan><tspan class="st0"><tspan x="50.5" y="23">Blur 15</tspan></tspan><tspan class="st0"><tspan x="23.5" y="46">Color 000000</tspan></tspan><tspan class="st0"><tspan x="32" y="69">Opacity 5%</tspan></tspan></text>
</svg>