<svg width="19" height="21" viewBox="0 0 19 21" fill="none" xmlns="http://www.w3.org/2000/svg">
<path id="Vector" d="M3.85 18.1V20M15.25 18.1V20M9.55 18.1V1M6.7 8.6V9.55M12.4 8.6V9.55M1 12.4V6.7C1 4.0134 1 2.66915 1.8835 1.83505C2.767 1.00095 4.1901 1 7.03535 1H12.0647C14.9099 1 16.3321 1 17.2165 1.83505C18.1 2.66915 18.1 4.0134 18.1 6.7V12.4C18.1 15.0866 18.1 16.4309 17.2165 17.265C16.333 18.0991 14.9099 18.1 12.0647 18.1H7.03535C4.1901 18.1 2.76795 18.1 1.8835 17.265C1 16.4309 1 15.0866 1 12.4Z" stroke="#05574A" stroke-width="1.425" stroke-linecap="round" stroke-linejoin="round"/>
</svg>
