<svg width="40" height="36" viewBox="0 0 40 36" fill="none" xmlns="http://www.w3.org/2000/svg">
<g id="Camera icon">
<path id="Vector" d="M20.0001 25.4006C22.9824 25.4006 25.4001 22.9829 25.4001 20.0006C25.4001 17.0182 22.9824 14.6006 20.0001 14.6006C17.0178 14.6006 14.6001 17.0182 14.6001 20.0006C14.6001 22.9829 17.0178 25.4006 20.0001 25.4006Z" stroke="#05574A" stroke-width="2.7"/>
<path id="Vector_2" d="M16.0004 34.4001H23.9996C29.6174 34.4001 32.4272 34.4001 34.445 33.0771C35.3159 32.5067 36.0658 31.7703 36.6518 30.9099C38 28.9299 38 26.1705 38 20.6553C38 15.1401 38 12.3807 36.6518 10.4007C36.0658 9.54027 35.3159 8.80383 34.445 8.23348C33.149 7.38208 31.5254 7.07788 29.0396 6.96988C27.8534 6.96988 26.8328 6.08788 26.6006 4.94488C26.4231 4.10765 25.9621 3.35735 25.2953 2.8208C24.6286 2.28424 23.797 1.99434 22.9412 2.00008H17.0588C15.2804 2.00008 13.7486 3.23308 13.3994 4.94488C13.1672 6.08788 12.1466 6.96988 10.9604 6.96988C8.4764 7.07788 6.8528 7.38388 5.555 8.23348C4.68477 8.80401 3.93549 9.54044 3.35 10.4007C2 12.3807 2 15.1383 2 20.6553C2 26.1723 2 28.9281 3.3482 30.9099C3.9314 31.7667 4.6802 32.5029 5.555 33.0771C7.5728 34.4001 10.3826 34.4001 16.0004 34.4001Z" stroke="#05574A" stroke-width="2.7"/>
<path id="Vector_3" d="M32.5998 14.6006H30.7998" stroke="#05574A" stroke-width="2.7" stroke-linecap="round"/>
</g>
</svg>
