<svg width="17" height="19" viewBox="0 0 17 19" fill="none" xmlns="http://www.w3.org/2000/svg">
<g id="Group">
<path id="Vector" d="M3.01447 18C1.90193 18 1 17.0745 1 15.9317V7.61883C1 6.99078 1.27861 6.39579 1.75554 6.00385L7.29651 1.45359C7.65054 1.16042 8.09578 1 8.55544 1C9.01509 1 9.46034 1.16042 9.81436 1.45359L15.3544 6.00385C15.8323 6.39579 16.1109 6.99078 16.1109 7.61883V15.9317C16.1109 17.0745 15.2089 18 14.0964 18H3.01447Z" stroke="#787878" stroke-width="1.41664" stroke-linecap="round" stroke-linejoin="round"/>
<path id="Vector_2" d="M6.19434 18.0002V12.8059C6.19434 12.3049 6.39334 11.8245 6.74757 11.4702C7.1018 11.116 7.58224 10.917 8.0832 10.917H9.02763C9.52858 10.917 10.009 11.116 10.3633 11.4702C10.7175 11.8245 10.9165 12.3049 10.9165 12.8059V18.0002" stroke="#787878" stroke-width="1.41664" stroke-linecap="round" stroke-linejoin="round"/>
</g>
</svg>
