<svg width="17" height="18" viewBox="0 0 17 18" fill="none" xmlns="http://www.w3.org/2000/svg">
<g id="Group">
<path id="Vector" d="M1 1.5C1 1.36739 1.05268 1.24021 1.14645 1.14645C1.24021 1.05268 1.36739 1 1.5 1H15.5C15.6326 1 15.7598 1.05268 15.8536 1.14645C15.9473 1.24021 16 1.36739 16 1.5V13C16 13.0657 15.9871 13.1307 15.9619 13.1913C15.9368 13.252 15.9 13.3071 15.8536 13.3536C15.8071 13.4 15.752 13.4368 15.6913 13.4619C15.6307 13.4871 15.5657 13.5 15.5 13.5H12.05C11.9816 13.4999 11.914 13.5138 11.8512 13.5409C11.7884 13.568 11.7318 13.6077 11.685 13.6575L8.86417 16.655C8.81742 16.7047 8.76099 16.7443 8.69836 16.7714C8.63573 16.7984 8.56823 16.8124 8.5 16.8124C8.43177 16.8124 8.36427 16.7984 8.30164 16.7714C8.23901 16.7443 8.18258 16.7047 8.13583 16.655L5.315 13.6575C5.26816 13.6077 5.21161 13.568 5.14883 13.5409C5.08604 13.5138 5.01838 13.4999 4.95 13.5H1.5C1.36739 13.5 1.24021 13.4473 1.14645 13.3536C1.05268 13.2598 1 13.1326 1 13V1.5Z" stroke="#787878" stroke-width="1.5"/>
<path id="Vector_2" d="M8.49984 4.33301L9.68734 6.47884L11.8332 7.66634L9.68734 8.85384L8.49984 10.9997L7.31234 8.85384L5.1665 7.66634L7.31234 6.47884L8.49984 4.33301Z" stroke="#787878" stroke-width="1.5" stroke-linecap="round" stroke-linejoin="round"/>
</g>
</svg>
